<svg xmlns="http://www.w3.org/2000/svg" fill="none" viewBox="0 0 1260 155">
  <path fill="url(#a)" d="M163.354 72.61 128.936 12.9a13.794 13.794 0 0 0-11.931-6.89H48.168A13.73 13.73 0 0 0 36.26 12.9L1.84 72.61a13.81 13.81 0 0 0 0 13.78l34.42 59.71a13.73 13.73 0 0 0 11.908 6.889h68.837a13.73 13.73 0 0 0 11.908-6.889l34.418-59.71a13.75 13.75 0 0 0 .023-13.78Z"/>
  <path fill="url(#b)" d="M163.354 72.61 128.936 12.9a13.794 13.794 0 0 0-11.931-6.89H48.168A13.73 13.73 0 0 0 36.26 12.9L1.84 72.61a13.81 13.81 0 0 0 0 13.78l34.42 59.71a13.73 13.73 0 0 0 11.908 6.889h68.837a13.73 13.73 0 0 0 11.908-6.889l34.418-59.71a13.75 13.75 0 0 0 .023-13.78Z"/>
  <path fill="#1F2348" d="M285.655 35.862h14.961v87.269h-11.519l-47.038-60.858v60.858h-14.914V35.862h11.472l47.038 60.859V35.862Zm44.749 87.269V35.862h16.062v87.269h-16.062Zm118.165-87.269h12.62v87.269h-13.767V69.162l-23.519 53.969h-10.326l-23.519-53.969v53.969h-13.767V35.862h12.62l29.829 68.322 29.829-68.322Zm42.452 87.269V35.862h16.062v87.269h-16.062Zm123.355-19.885c-4.681 9.3-11.955 14.766-18.403 17.43.757 1.746 4.314 6.614 6.999 9.416 2.684 2.802 5.507 5.65 9.086 8.543l-10.899 8.612c-4.015-2.802-7.503-6.155-11.06-10.059-3.556-3.904-6.585-8.221-9.339-13.021-.665.046-2.524.115-3.694.115-8.88 0-16.291-1.814-22.693-5.42-6.402-3.629-11.289-8.819-14.662-15.616-3.098-6.178-5.094-14.423-5.094-23.747s1.721-16.948 5.14-23.746c3.419-6.775 8.329-11.988 14.731-15.616 6.402-3.629 13.882-5.42 22.578-5.42 8.697 0 16.292 1.814 22.693 5.42 6.402 3.628 11.289 8.818 14.662 15.616 3.396 6.798 5.094 14.422 5.094 23.746 0 9.324-2.042 17.592-5.139 23.747Zm-56.745.068c4.635 5.558 11.106 8.337 19.435 8.337 8.329 0 14.823-2.779 19.435-8.337 4.635-5.58 6.953-13.434 6.953-23.815 0-10.311-2.318-18.349-6.953-23.86-4.635-5.512-11.106-8.291-19.435-8.291-8.329 0-14.823 2.733-19.435 8.221-4.635 5.49-6.952 13.55-6.952 23.93 0 10.38 2.317 18.235 6.952 23.815Z"/>
  <path fill="url(#c)" d="M57.831 91h-15c-8.1 0-15.2-6.3-16.2-14.3l-2.5-14.95c-.55-4.25.65-8.25 3.25-11.15 2.6-2.9 6.4-4.6 10.45-4.6h30c4.15 0 7.9 1.75 10.3 4.8.55.75 1.05 1.55 1.45 2.45 2.15-.45 4.35-.45 6.45 0 .4-.9.9-1.7 1.5-2.45 2.35-3.05 6.1-4.8 10.3-4.8h30c4.05 0 7.85 1.7 10.45 4.6 2.55 2.9 3.75 6.9 3.25 10.95l-2.55 15.35c-.95 7.8-8.1 14.1-16.15 14.1h-15c-7.8 0-15.4-5.95-17.3-13.5l-4.5-13.55c-1.9-1.4-4.55-1.4-6.45 0l-4.6 13.9C73.181 85.1 65.631 91 57.831 91Z"/>
  <path fill="#1F2348" d="m697.387 124 37.917-87.074h6.917L780.756 124h-8.028l-10.869-25.072 3.582 1.852h-53.603l4.199-1.852L705.415 124h-8.028Zm41.252-77.81-21.12 49.526-2.841-1.482H762.6l-2.1 1.482-21.614-49.527h-.247ZM807.455 124 785.1 62.122h8.151l19.885 57.432h-3.334l20.626-57.432h7.657l20.256 57.432h-3.211l20.132-57.432h7.781L860.564 124h-7.781l-20.75-58.173h4.323L815.36 124h-7.905Zm116.027.988c-9.386 0-16.838-2.799-22.355-8.399-5.434-5.599-8.151-13.38-8.151-23.343 0-6.587 1.193-12.268 3.581-17.044 2.47-4.776 5.888-8.481 10.252-11.116 4.364-2.717 9.427-4.076 15.191-4.076 5.517 0 10.169 1.194 13.957 3.582 3.787 2.306 6.71 5.64 8.769 10.004 2.058 4.282 3.088 9.387 3.088 15.315v3.459H898.41v-5.435h44.71l-2.099 1.606c0-6.999-1.606-12.474-4.817-16.427-3.211-4.035-7.987-6.052-14.327-6.052-6.752 0-12.022 2.347-15.81 7.04-3.787 4.611-5.681 10.746-5.681 18.403v.865c0 8.234 2.017 14.491 6.052 18.773 4.117 4.282 9.84 6.423 17.168 6.423 3.787 0 7.328-.577 10.622-1.73 3.293-1.152 6.463-3.128 9.51-5.928l3.088 5.558c-2.635 2.717-6.052 4.817-10.252 6.299-4.199 1.482-8.563 2.223-13.092 2.223Zm60.516 0c-4.776 0-9.263-.7-13.463-2.1-4.116-1.399-7.534-3.334-10.251-5.805l2.964-5.557c3.047 2.47 6.341 4.322 9.881 5.557 3.541 1.153 7.246 1.73 11.116 1.73 5.27 0 9.263-.988 11.98-2.965 2.718-1.976 4.075-4.652 4.075-8.028 0-2.635-.863-4.775-2.592-6.422-1.73-1.647-4.611-2.882-8.646-3.706l-11.116-2.346c-5.27-1.235-9.222-3.211-11.857-5.929-2.552-2.717-3.829-6.134-3.829-10.25 0-3.541.906-6.67 2.718-9.388 1.893-2.717 4.569-4.858 8.028-6.422 3.458-1.565 7.534-2.347 12.227-2.347 4.446 0 8.522.741 12.227 2.223 3.79 1.4 6.88 3.417 9.26 6.052l-3.21 5.435c-2.47-2.47-5.267-4.323-8.396-5.558-3.047-1.235-6.299-1.853-9.757-1.853-5.105 0-8.975 1.07-11.61 3.212-2.635 2.058-3.953 4.816-3.953 8.275 0 2.634.824 4.816 2.471 6.546 1.646 1.646 4.24 2.882 7.781 3.705l11.116 2.47c5.599 1.235 9.758 3.129 12.478 5.681 2.71 2.553 4.07 5.929 4.07 10.128 0 3.623-.99 6.793-2.96 9.51-1.98 2.635-4.74 4.653-8.278 6.052-3.54 1.4-7.698 2.1-12.474 2.1Zm65.482 0c-5.85 0-10.91-1.276-15.2-3.829-4.2-2.552-7.45-6.216-9.75-10.992-2.31-4.776-3.46-10.498-3.46-17.168 0-6.587 1.15-12.268 3.46-17.044 2.3-4.776 5.55-8.44 9.75-10.992 4.29-2.635 9.35-3.953 15.2-3.953 5.76 0 10.74 1.318 14.94 3.953 4.28 2.552 7.58 6.216 9.88 10.992 2.39 4.776 3.58 10.457 3.58 17.044 0 6.67-1.19 12.392-3.58 17.168-2.3 4.776-5.6 8.44-9.88 10.992-4.2 2.553-9.18 3.829-14.94 3.829Zm0-6.422c6.25 0 11.28-2.182 15.06-6.546 3.79-4.364 5.68-10.705 5.68-19.02 0-8.317-1.89-14.657-5.68-19.021-3.78-4.364-8.81-6.546-15.06-6.546-6.34 0-11.41 2.182-15.2 6.546-3.7 4.364-5.55 10.704-5.55 19.02 0 8.316 1.85 14.657 5.55 19.021 3.79 4.364 8.86 6.546 15.2 6.546Zm44.89 5.434V75.955c0-2.223-.08-4.488-.24-6.793-.17-2.306-.41-4.652-.74-7.04h7.41l1.11 14.203h-1.48c1.56-4.858 4.15-8.604 7.78-11.239 3.62-2.717 8.02-4.076 13.21-4.076 5.27 0 9.55 1.276 12.85 3.83 3.29 2.552 5.47 6.504 6.54 11.856h-1.85c1.48-4.776 4.2-8.563 8.15-11.363 3.95-2.882 8.61-4.323 13.96-4.323 6.75 0 11.86 1.935 15.31 5.805 3.46 3.87 5.19 9.922 5.19 18.156V124h-7.53V85.465c0-6.258-1.11-10.786-3.34-13.586-2.22-2.882-5.84-4.323-10.87-4.323-5.6 0-10.04 1.894-13.34 5.682-3.21 3.787-4.81 8.892-4.81 15.315V124h-7.54V85.465c0-6.258-1.11-10.786-3.33-13.586-2.22-2.882-5.81-4.323-10.75-4.323-5.6 0-10.04 1.894-13.34 5.682-3.21 3.787-4.81 8.892-4.81 15.315V124h-7.54Zm133.91.988c-9.39 0-16.84-2.799-22.36-8.399-5.43-5.599-8.15-13.38-8.15-23.343 0-6.587 1.19-12.268 3.58-17.044 2.47-4.776 5.89-8.481 10.25-11.116 4.37-2.717 9.43-4.076 15.19-4.076 5.52 0 10.17 1.194 13.96 3.582 3.79 2.306 6.71 5.64 8.77 10.004 2.06 4.282 3.09 9.387 3.09 15.315v3.459h-49.41v-5.435h44.71l-2.1 1.606c0-6.999-1.6-12.474-4.81-16.427-3.21-4.035-7.99-6.052-14.33-6.052-6.75 0-12.02 2.347-15.81 7.04-3.79 4.611-5.68 10.746-5.68 18.403v.865c0 8.234 2.02 14.491 6.05 18.773 4.12 4.282 9.84 6.423 17.17 6.423 3.79 0 7.33-.577 10.62-1.73 3.29-1.152 6.46-3.128 9.51-5.928l3.09 5.558c-2.64 2.717-6.05 4.817-10.25 6.299a39.08 39.08 0 0 1-13.09 2.223Z"/>
  <defs>
    <radialGradient id="a" cx="0" cy="0" r="1" gradientTransform="matrix(165.25 0 0 165.393 124.271 151.075)" gradientUnits="userSpaceOnUse">
      <stop stop-color="#EC991C"/>
      <stop offset="1" stop-color="#E9B213"/>
    </radialGradient>
    <radialGradient id="b" cx="0" cy="0" r="1" gradientTransform="matrix(165.25 0 0 165.393 124.271 151.075)" gradientUnits="userSpaceOnUse">
      <stop stop-color="#EC991C"/>
      <stop offset="1" stop-color="#E9B213"/>
    </radialGradient>
    <linearGradient id="c" x1="141.642" x2="111.61" y1="46" y2="124.512" gradientUnits="userSpaceOnUse">
      <stop offset=".19" stop-color="white"/>
      <stop offset=".61" stop-color="white" stop-opacity=".86"/>
      <stop offset="1" stop-color="white" stop-opacity=".6"/>
    </linearGradient>
  </defs>
</svg>
