<svg xmlns="http://www.w3.org/2000/svg" width="20" height="20" viewBox="0 0 1080 1080"><path fill="#ca8a03" d="M297 29.4c-21.9 4.9-41.3 17.1-53.4 33.6C237.5 71.3 8.1 462.7 5.5 469.2 1.5 479.4 0 487.6 0 500c0 13.4 1.6 21.9 6.3 33.3 2.6 6.5 209.8 362.1 230.5 395.7 5.9 9.5 16.3 20.4 25.5 26.8 9.2 6.3 13.6 8.5 25 12.5l9.2 3.2 238 .3c162.8.2 240.2-.1 244.9-.8 20.6-3.2 42.5-15.6 56.1-31.7 4.4-5.3 36.5-59.6 120.4-203.5 63-108 115.7-199.5 117.2-203.3 8.1-20.8 7.9-45.2-.5-66-4.5-11.2-228.1-394.5-235.8-404.1-9.8-12.4-26.6-24.3-41.5-29.5s-1.8-4.9-256.1-4.8c-182.4.1-238 .4-242.2 1.3m351.7 266.4c9 2.8 15.8 7.7 21.8 15.7 4.6 6 99.5 169.9 101.5 175.2 2.9 7.7 2.7 19-.4 26.5-1.3 3.2-24.6 43.9-51.7 90.5-53.8 92.3-53.1 91.4-65.7 97.5l-6.7 3.3h-216l-6.6-3.2c-4.1-2-8.4-5.2-11.5-8.5-3.6-3.8-18.8-28.9-54.4-89.8-27.2-46.5-50.5-87.2-51.8-90.4-2.1-5.1-2.4-7.2-2-14.7.3-7.3.9-9.7 3.5-14.6 6.9-13.1 100.8-172.1 103.8-175.8 3.9-4.7 12.8-10.4 19.3-12.1 3.6-1 28.5-1.3 107.9-1.3 97.1-.1 103.5 0 109 1.7"/></svg>
