<svg id="Layer_1" data-name="Layer 1" xmlns="http://www.w3.org/2000/svg" viewBox="0 0 329 261"><defs><style>.cls-1{fill:#fff;}</style></defs><title>desktop_miner_app</title><path class="cls-1" d="M114.49,74.86A11.19,11.19,0,0,0,103.38,86v66.64a11.08,11.08,0,0,0,11.11,11.1h38.9V175h-11.1v11.11h44.42V175h-11.1V163.71h38.9a11.12,11.12,0,0,0,11.11-11.1V86a11.15,11.15,0,0,0-11.11-11.18Zm0,11.18h100v66.64h-100Z"/><path class="cls-1" d="M173.52,90a20.67,20.67,0,0,0-13.24,10.9h.07a22,22,0,0,0-1.59,17.44,44.94,44.94,0,0,1,3.86-13.17l1.8,1,2.41-4.76-1.79-1A42.66,42.66,0,0,1,173.52,90ZM159,97.83a.9.9,0,0,0-.83.55l-1.1,2.07a1,1,0,0,0,.41,1.38l1,.55a12.51,12.51,0,0,1,1.94-3.86l-.9-.55A.92.92,0,0,0,159,97.83Zm8.82,4.49-2.34,4.41,20,11.17a.89.89,0,0,0,1.24-.27.91.91,0,0,0,.07-.14l1.38-2.55a1,1,0,0,0-.48-1.38Zm-17.51,9.37-2.76,4h5.31Zm-2.9,8.07a3.46,3.46,0,0,0-3.1,1.8l-6.56,11.86a3.78,3.78,0,0,0,0,3.52l6.56,11.86a3.43,3.43,0,0,0,3,1.72h13.24a3.46,3.46,0,0,0,3-1.72l6.62-11.86a3.75,3.75,0,0,0,0-3.59l-6.62-11.79a3.48,3.48,0,0,0-3-1.8Zm29,1.59-6.63.69,4.14,5.31Zm2.41,6.21-4.62,5.38,6.89.89Z"/></svg>