<svg id="Layer_1" data-name="Layer 1" xmlns="http://www.w3.org/2000/svg" viewBox="0 0 329 261"><defs><style>.cls-1{fill:#fff;}</style></defs><title>nimiq_nimipay_app</title><path class="cls-1" d="M224.45,125.05,199,81.45c-1.82-2.73-5.45-5.45-9.08-5.45H139.07c-3.64,0-7.27,2.72-9.08,5.45l-25.44,43.6c-1.82,2.73-1.82,8.17,0,10.9L130,179.55c1.81,2.72,5.44,5.45,9.08,5.45h50.87c3.63,0,7.26-2.73,9.08-5.45L224.45,136C226.27,133.22,226.27,127.78,224.45,125.05ZM200.27,147.2c0,2.38-1.79,4.76-3.58,6l-28.61,16.68a7.63,7.63,0,0,1-7.16,0l-28.61-16.68c-1.79-1.2-3.58-3.58-3.58-6V113.81c0-2.39,1.79-4.77,3.58-6l28.61-16.69a7.63,7.63,0,0,1,7.16,0l28.61,16.69c1.79,1.19,3.58,3.57,3.58,6Z"/><polygon class="cls-1" points="187.97 106.3 187.97 154.7 187.71 154.7 153.17 134.09 141.13 154.7 141.03 154.7 141.03 106.3 175.83 127.07 187.97 106.3"/></svg>