<svg id="Layer_1" data-name="Layer 1" xmlns="http://www.w3.org/2000/svg" viewBox="0 0 329 261"><defs><style>.cls-1{fill:#fff;}</style></defs><title>nimiq_mopsus</title><path class="cls-1" d="M132.8,184.67,131,183.3l2.1-3.84,2.1-3.84-12-20.82-12-20.92-4.57-.27-4.48-.28v-5.66l4.57-.28,4.57-.27,11.87-20.64L135,85.83l-2.29-3.74c-2.74-4.57-2.74-4.57,0-5.94l2.29-1,2.19,3.74,2.1,3.84h50.06l2.19-3.93L193.82,75l1.83.92c2.46,1.37,2.46,2.1,0,6.12l-1.83,3.28,12,20.92,12.05,20.92,4.57.27,4.48.28v5.66l-4.57.28-4.57.27-11.87,20.64L194,175.17l2.29,3.65c2.74,4.66,2.74,4.75,0,6l-2.29,1L191.81,182l-2.1-3.75H139.29l-.55,1.65a20.1,20.1,0,0,1-2.28,3.92l-1.74,2.2ZM184,168.5l-3-4.84H148.06l-2.47,4.47L143,173c0,.19,9.87.37,21.93.37h21.92Zm-42.84-3.29,2.1-4.2-7.95-13.79-8-13.8H116.82l8.4,14.34,10.42,18c2.64,4.66,3.1,4.57,5.57-.55Zm60.47-13.7L212,133.42H201.68l-8,13.7-7.95,13.8,2.29,4.29c2.92,5.57,1.82,6.67,13.7-13.7Zm-25.85,3.1-2.47-4.11-8.68-.36-8.58-.28-2.11,3.84a25.8,25.8,0,0,0-2.19,4.48v.55H178.2ZM149.61,151l2-3.47-3.93-7-3.92-7H133.08l1.46,2.2,6.58,11.23,5.2,9.13.64-.91c.37-.36,1.55-2.28,2.74-4.11Zm38.27-4.11q3.18-5.65,6.49-11.23l1.46-2.2H185.14l-3.92,7-3.84,6.94,2.56,4.29,2.74,4.2,5.3-9Zm-18.63-2.28c0-.92-4.29-8.22-4.84-8.22s-4.84,7.3-4.84,8.22c0,.27,2.19.54,4.84.54S169.25,144.84,169.25,144.57Zm-11.78-7.31,2.19-3.84h-10l2.28,3.93c1.19,2.1,2.47,3.84,2.74,3.84s1.65-1.74,2.84-3.84Zm19.45,0,2.19-3.84h-9.77l2.19,3.84c2.74,4.84,2.74,4.84,5.48,0Zm-41.65-23.38,7.95-13.71-2.29-4.29c-2.92-5.57-1.82-6.76-13.7,13.7L117,127.67h10.32Zm12.61,6.39,3.74-6.76-2.74-4.2-2.56-4.2-5.2,9.13c-2.93,4.84-5.85,9.87-6.76,11.14L133,127.76l5.57-.27,5.57-.28Zm9.59,3.47c-2.74-4.75-2.74-4.75-5.48,0l-2.2,3.93h9.87Zm19.54,0c-1.18-2.1-2.46-3.84-2.74-3.84s-1.64,1.74-2.83,3.84l-2.19,3.93H179.3Zm17.45,1.74-6.58-11.42-5.11-9.14-.64.83-2.74,4.2-2,3.47,3.93,7,3.92,7H196Zm9.32-12.34L193.36,95.06c-2.64-4.57-3.1-4.57-5.57.64l-2.1,4.2,8,13.7,8,13.89h10.41Zm-36.54,7.59c2.74-5,2.92-4.94-2.74-4.94s-5.48-.09-2.74,4.94C164.5,125.38,164.5,125.38,167.24,120.73ZM175.1,107c2.92-5.2,3.38-5-11.33-4.65l-12.79.27,2.56,4.11L156,111h17Zm8.31-14.24L186,87.93c0-.18-9.87-.36-21.93-.36H142.12l3,4.84,2.92,4.84h32.88Z"/></svg>