<svg id="Layer_1" data-name="Layer 1" xmlns="http://www.w3.org/2000/svg" viewBox="0 0 329 261"><defs><style>.cls-1{fill:#fff;}</style></defs><title>nini_app</title><path class="cls-1" d="M179.28,76.31c-4.75,0-7.83,1.67-9.16,4.91-.83,2.75.5,5.41,5.83,5.16,8.32-.33,6.49-.91,6.57,7.49.08,7.41.25,10.82.17,15.82,0,1.33,1.25,2.91-2.17,3.24-2.58.25-5,2-7.49,1.58s-5.24,1.75-5.32,3.92c0,1.66.41,3.57,3.74,3.24,11.65-.91,21.64-4.49,33.29-2.33,1.83.33,7.49-4.83,1-7.49-4.16-1.75-13.31-.17-13.31-.17-1.75-8.32-.17-17.47,0-25.8,4.32-3.82,10.81-2.66,15.81-1.66,1.58.25,3.08-2.41,2.83-4-.34-1.92-3-2.67-4.83-3.17-3.66-1-7.66-.41-11.65.67-5.66,1.66-9.16-.58-11.65-.92a21.24,21.24,0,0,0-4.33-.41ZM151.81,79c-.91,0-1.83,1.33-2.91,4.49-3.33,10-3,23.3-5.33,32.46-6.49-10.82-6.91-20.81-12.48-30.79-3.58-5.91-6.33-1.59-7.33,1-3.82,10-4.82,21.64-7.65,26.64-1.42,2.33-1.17,7,.66,8.15,1.67.17,2.75-.75,4.5-1.08-.67-.91,0-2.25.16-3.41L128,94.79c1.66,4,3.66,10.82,4.58,11.65,2.41,2.08,4,10.82,8.32,17.48,1.66,2.58,3.66,2.58,7.49-1.92,3.74-4.32,3.33-25.8,6.66-38.28.75-2.41-.34-3.58-2.5-4.66l-.42-.17Zm59.92,51.6c-4,0-10,.5-15,.5a54,54,0,0,0-9.15.75c-3.33.49-7.33-1.34-10,.49-1.41.84-2.66,2.75-2.33,4.42a3.55,3.55,0,0,0,3.16,2.66c3.42,0,12.49-1.17,12.49-.83.58,12.48.5,25,3,35.78,0,0-5.74,2.5-9.15,2-.92-.08-5.33,1.92-5.33,4.41,0,2.17,3.66,3.58,5.83,3,7.57-2.08,16.64-1.33,25-2.33,1.83-.25,4.24-1.92,4.41-3.33.25-2.25-3.17-4.33-5.33-3.83a39,39,0,0,1-9.15.67c-1.09-11.66-2.58-24.14-1.92-36.62.33-1,11.65-.84,15-1.08a3.51,3.51,0,0,0,2.66-3.58,4.07,4.07,0,0,0-3.74-3.17ZM141,133.82h-.25c-1.91.42-2.83,3.33-2.66,5.16.75,7,3.08,26.64.16,29.13-9.15-11.65-10.81-21.64-16.64-30.79a3.61,3.61,0,0,0-4.16-1.92c-2.58.5-2.5,3-2.58,5.83-.83,13.32-2.58,26.63-1.33,39.12.25,3,1.49,4.49,3.24,4.32,2.08-.16,3.66-1.66,2.83-5.66-1.91-8.32.58-27.46,1.25-27.46,3.83,10,9.16,15.81,15,27.46.83,1.92,6.24,3.33,6.91-1.66,0,0,2.08-13.32,2.16-20,.09-7-1.66-13.32-1.41-20.81a3.2,3.2,0,0,0-2.91-2.75Z"/></svg>