<svg id="Layer_1" data-name="Layer 1" xmlns="http://www.w3.org/2000/svg" viewBox="0 0 329 261"><defs><style>.cls-1{fill:#fff;fill-rule:evenodd;}</style></defs><title>short_nim_app</title><path class="cls-1" d="M111.74,82.74a6.18,6.18,0,0,0-4.89,2.71L93,109.33a6,6,0,0,0,0,5.43l13.89,23.88a6.22,6.22,0,0,0,4.89,2.72h27.79a6.08,6.08,0,0,0,4.77-2.72l13.9-23.88a5.43,5.43,0,0,0,0-5.43L144.3,85.45a6.15,6.15,0,0,0-4.77-2.82Zm14.65,10.85a14.57,14.57,0,0,1,6,1.3,14.82,14.82,0,0,1,4.89,3.26l-3.26,4a10.83,10.83,0,0,0-3.47-2.17,10,10,0,0,0-4.13-.87,6.62,6.62,0,0,0-4.12,1.08,3.39,3.39,0,0,0-1.52,3,3.63,3.63,0,0,0,.43,1.85l1.3,1.3,1.85,1.09,2.06.76,4.89,2.06a11.71,11.71,0,0,1,2.82,1.52,9.85,9.85,0,0,1,3.8,4.67,11.05,11.05,0,0,1,.54,3.36,9.74,9.74,0,0,1-3.47,7.49,12.79,12.79,0,0,1-4,2.17,18.44,18.44,0,0,1-18.13-4.34l3.69-4.34a16.46,16.46,0,0,0,4.35,3,13.19,13.19,0,0,0,4.88,1.08,7.26,7.26,0,0,0,4.67-1.3,3.92,3.92,0,0,0,1.52-3.26,3,3,0,0,0-.44-1.84,3.13,3.13,0,0,0-1.08-1.3l-1.74-1.09-2.17-1.08L121.62,113a11.67,11.67,0,0,1-4.89-3.25,9.49,9.49,0,0,1-1.74-2.72,9,9,0,0,1-.65-3.47,9.41,9.41,0,0,1,.87-3.91,10.3,10.3,0,0,1,2.61-3.26,12.13,12.13,0,0,1,3.69-2.06A14.43,14.43,0,0,1,126.39,93.59Zm36.69,5.21v33.33h2.17V115.3a20.73,20.73,0,0,1,3.59-3,6.49,6.49,0,0,1,3.58-1.08c1.84,0,3.15.54,3.91,1.73a9.25,9.25,0,0,1,1.19,5.21v14h2.17V117.8c0-2.82-.54-5-1.63-6.41s-2.82-2.06-5.1-2.06a8.62,8.62,0,0,0-4.12,1.09,21,21,0,0,0-3.59,2.93V98.8Zm64.7,4.67-.22,6.51H224v1.63h3.48v14.33a9.63,9.63,0,0,0,.32,2.71,4.39,4.39,0,0,0,.87,2.18,4.06,4.06,0,0,0,1.74,1.3,6.38,6.38,0,0,0,2.71.54,4.76,4.76,0,0,0,1.63-.22l2-.65-.54-1.63-1.41.55a5.75,5.75,0,0,1-3.26-.22,1.91,1.91,0,0,1-1.08-1,3.33,3.33,0,0,1-.66-1.41l-.1-2V111.61H236v-1.74h-6.51v-6.51Zm-32.13,5.86a9.45,9.45,0,0,0-7,3,10.33,10.33,0,0,0-2.17,3.69,14.77,14.77,0,0,0,0,10,9.86,9.86,0,0,0,2.17,3.58,9.66,9.66,0,0,0,10.75,2.17,8.81,8.81,0,0,0,3.25-2.17,13.24,13.24,0,0,0,2.18-3.58,16.79,16.79,0,0,0,0-10,10.4,10.4,0,0,0-2.18-3.69,8.89,8.89,0,0,0-3.25-2.17A9.42,9.42,0,0,0,195.65,109.33Zm25,0a5.6,5.6,0,0,0-3.48,1.3,10.7,10.7,0,0,0-2.71,3.37h-.11l-.22-4.13h-1.84v22.26h2.06v-15.2a9.17,9.17,0,0,1,2.82-4.34,5.21,5.21,0,0,1,3.26-1.3,5.16,5.16,0,0,1,1.95.32l.44-1.84a3.17,3.17,0,0,0-1.09-.33,6.59,6.59,0,0,0-1.08-.11Zm-25,1.85a6.6,6.6,0,0,1,5.64,2.82,10,10,0,0,1,1.63,3,11,11,0,0,1,.65,4,11.8,11.8,0,0,1-.65,4,11.38,11.38,0,0,1-1.63,3,9,9,0,0,1-2.49,2.06,8.13,8.13,0,0,1-3.15.66,7.09,7.09,0,0,1-5.65-2.72,15.68,15.68,0,0,1-1.62-3,9.6,9.6,0,0,1-.55-4,14.79,14.79,0,0,1,.55-4,21.59,21.59,0,0,1,1.62-3.15A7.18,7.18,0,0,1,195.65,111.18ZM151.47,138v40.38h2.71V153.3q0-5.76-.43-11.51H154l4.56,8,17,28.44h2.93V138h-2.72v24.75l.11,5.86.33,5.86h-.33l-4.45-8-17-28.33Zm39,0v40.38h2.82V138Zm14.65,0v40.38h2.72V151.89q0-5.44-.44-10.86h.33l3.15,8.9,8.68,24H222L230.71,150l3.15-9.12h.22q-.2,5.43-.33,10.86v26.59h2.71V138h-4l-8.36,23.66q-1.67,4.46-3,9h-.33q-1.53-4.51-3.14-9l-8.47-23.55Z"/></svg>