<svg id="Layer_1" data-name="Layer 1" xmlns="http://www.w3.org/2000/svg" viewBox="0 0 329 261"><defs><style>.cls-1{fill:#fff;}</style></defs><title>web_miner_app</title><path class="cls-1" d="M195.54,63.21a45.46,45.46,0,0,0-28.79,24.24A48.45,48.45,0,0,0,163,125.32a98.45,98.45,0,0,1,9.09-28.78l3.78,2.27,5.31-10.6-3.79-2.27A94.59,94.59,0,0,1,195.54,63.21ZM163.72,80.63a2.28,2.28,0,0,0-1.51.76l-2.27,4.55a2.28,2.28,0,0,0,.75,3L163,90.48a27.18,27.18,0,0,1,3.78-8.33l-1.51-1.52A2.33,2.33,0,0,0,163.72,80.63Zm19.7,9.85-5.3,9.09,43.93,25a2.28,2.28,0,0,0,3-.76l3-6.06a2.27,2.27,0,0,0-1.28-3l-.24-.08Zm-38.63,20.45L138.73,120h12.12ZM138,128.35a7.6,7.6,0,0,0-6.06,4.55l-15.15,25.75a8.35,8.35,0,0,0,0,7.57l15.15,26.52a7.59,7.59,0,0,0,6.06,3.78h29.54a7.57,7.57,0,0,0,6.82-3.78l14.39-26.52a8.35,8.35,0,0,0,0-7.57L174.33,132.9a7.58,7.58,0,0,0-6.82-4.55Zm64.38,3.79L188,133.66,197.05,145Zm5.31,13.63-10.61,12.12L213,159.41Z"/></svg>