<svg xmlns="http://www.w3.org/2000/svg" fill="none" viewBox="0 0 41 40"><g clip-path="url(#a)"><path fill="#03578c" d="m28.306 22.827-7.752 9.923-.867-6.927-5.11-.553 13.73-2.443Zm-7.86-1.955-5.869 4.398 1.212-11.495 4.656 7.097Z"/><path fill="#0099f7" d="m20.314 20.85-4.526-7.075 4.288.977z"/><path fill="#28adff" d="M34.91 24.74h-.021l-1.191 8.032H20.554v-.02l7.752-9.924 6.605 1.912Z"/><path fill="#0099f7" d="m14.577 25.27 5.782-4.333-.044-.085 7.99 1.976z"/><path fill="#0474ba" d="m23.583 18.62-3.14 2.252-.13-.021-.238-6.099 8.12 1.891.022-.02.693 2.485z"/><path fill="#0474ba" d="m39.522 24.293-4.614.446-6.604-1.912.39-.128-5.09-4.08 10.937 3.995 2.144.808.476-.49-.736-3.314-2.512-.042-4.157-.383 3.182-1.275 3.746 1.339.283-6.077.26.085z"/><path fill="#03578c" d="m37.162 22.933-.477.49-2.144-.809-.628-3.038 2.512.042z"/><path fill="#49484d" d="m28.477 6.04-2.49.617-2.923 1.317.044-1.721 4.697-2.741z"/><path fill="#ffb536" d="m29.732 10.779-6.735-.043.066-2.762 2.923-1.317 2.49-.616z"/><path fill="#ffc767" d="m15.79 13.838-9.4 19.08h-.02l-5.848 1.51z"/><path fill="#ffb536" d="M15.832 13.775 14.576 25.27l-5.674 9.158L6.39 32.92l9.399-19.08z"/><path fill="#ffc767" d="m18.107 25.652-3.184 7.968-6.02.808 5.674-9.158 3.53.383Z"/><path fill="#ffb536" d="m20.552 32.77-.65 2.742-4.937-1.89h-.044l3.184-7.969 1.58.17zm7.643-16.126L15.83 13.775l7.168-3.039h.108l4.114 4.76z"/><path fill="#ffc767" d="M36.752 13.117h-.022l-8.531 3.527-.975-1.147 3.876-4.313z"/><path fill="#03578c" d="m31.097 11.181-3.876 4.313-4.222-4.76 6.734.043 1.343.404z"/><path fill="#0099f7" d="m36.726 13.115-1.234 2.571-2.534 2.231h-.02l-3.184 1.275-.845-.085-.715-2.465 8.51-3.506z"/><path fill="#03578c" d="m28.696 22.701-.39.127-7.84-1.934-.02-.02 3.16-2.253z"/><path fill="#0099f7" d="M34.541 22.613 23.605 18.62h-.022l5.327.49.845.084 4.158.383z"/><path fill="#03578c" d="m36.965 13.18-.28 6.076-3.747-1.339h.023l2.532-2.23 1.234-2.572h.023z"/></g><defs><clipPath id="a"><path fill="#fff" d="M.333 0h40v40h-40z"/></clipPath></defs></svg>