<svg xmlns="http://www.w3.org/2000/svg" fill="none" viewBox="0 0 43 40"><g clip-path="url(#a)"><path fill="#57bae5" d="m15.425 8.348-2.009 7.85-13.441 1.791z"/><path fill="#005472" d="m22.416 25.748-4.35-1.842 1 16.092z"/><path fill="#34afe4" d="m13.416 16.2-3.541 7.424-9.9-5.633 13.441-1.792Z"/><path fill="#0076a7" d="m18.067 23.906-8.192-.283 9.192 16.375z"/><path fill="#009de2" d="m13.417 16.2 4.65 7.708-8.192-.284z"/><path fill="#7acdf2" d="M15.426 8.348 26.46 9.831l-13.042 6.367zm23.359-3.567-7.025 8.35.5-7.725zm0 0 3.891-4.783-.858 5.158z"/><path fill="#00abe7" d="m35.133 9.125 6.683-3.967-3.033-.375z"/><path fill="#0076a7" d="m22.416 25.749.334-9.575-4.684 7.733z"/><path fill="#008dbe" d="m22.751 16.174-4.683 7.733-4.65-7.708z"/><path fill="#57bae5" d="m26.576 9.773-3.825 6.4-9.333.025z"/><path fill="#00698d" d="m22.75 16.174-.334 9.575 8.558 8.966z"/><path fill="#09a1cb" d="m35.45 29.708-4.517-11.492.042 16.5zm-3.692-16.575-.825 5.083-8.183-2.042z"/><path fill="#8bdaff" d="m35.909 20.041-4.975-1.825.825-5.083z"/><path fill="#7acdf2" d="m37.693 29.382-5.425-8.892h3.091z"/><path fill="#57bae5" d="m27.592 7.892 4.167 5.241.5-7.725z"/><path fill="#008dbe" d="m30.933 18.215-8.183-2.041 8.225 18.541z"/><path fill="#0076a7" d="m35.45 29.707 1.808 1.025L31 34.715z"/><path fill="#57bae5" d="m37.692 29.282-6.758-11.067 4.516 11.491z"/><path fill="#7acdf2" d="m27.592 7.89-4.842 8.284 9.008-3.042-4.166-5.241Z"/></g><defs><clipPath id="a"><path fill="#fff" d="M0 0h42.7v40H0z"/></clipPath></defs></svg>