<svg xmlns="http://www.w3.org/2000/svg" fill="none" viewBox="0 0 41 40"><g clip-path="url(#a)"><path fill="#fde937" d="M.333 0h40v40h-40z"/><path fill="#000" d="m39.512 20.517-2.48-3.204a.4.4 0 0 0-.302-.15H25.296v7.157h11.563a.31.31 0 0 0 .259-.129l2.416-3.094a.52.52 0 0 0-.022-.58m-8.801 2.537h-3.883v-4.666h3.796v1.182h-2.243v.538h1.985v1.14H28.38v.602h2.33zm3.753 0-.798-1.247-.798 1.247h-1.79l1.682-2.344-1.64-2.3h1.77l.798 1.182.776-1.183h1.705l-1.618 2.258 1.725 2.408h-1.812z"/><path fill="#fff" fill-rule="evenodd" d="M26.823 23.053h3.883v-1.204h-2.33v-.602h1.985v-1.14h-1.985v-.538h2.244v-1.182h-3.797zm6.839-1.247.798 1.247v.021h1.812l-1.726-2.408 1.618-2.258H34.46l-.777 1.183-.798-1.183h-1.769l1.64 2.301-1.683 2.344h1.79z" clip-rule="evenodd"/><path fill="#000" fill-rule="evenodd" d="M2.093 21.576q.05.352.192.526.26.317.895.317.38 0 .616-.084.45-.16.45-.596a.44.44 0 0 0-.223-.393q-.223-.135-.7-.24l-.544-.122q-.801-.181-1.107-.394-.52-.355-.52-1.11 0-.69.502-1.147.502-.456 1.474-.456.81 0 1.384.43t.601 1.249h-1.03q-.03-.465-.405-.659a1.36 1.36 0 0 0-.623-.128q-.415 0-.662.167a.53.53 0 0 0-.247.466q0 .275.243.412.157.09.67.212l.884.212q.581.14.877.373.46.362.46 1.048 0 .705-.538 1.169t-1.52.465q-1.004 0-1.578-.458-.575-.457-.575-1.26zm3.511-1.47v-.707h.53V18.34h.982v1.06h.616v.707h-.616v2.006q0 .234.059.291.06.057.362.058a3 3 0 0 0 .195-.008v.742l-.47.018q-.704.024-.961-.244-.167-.171-.167-.526v-2.337h-.53Zm4.263-.024q-.345 0-.534.216t-.239.585h1.543q-.024-.394-.239-.598a.74.74 0 0 0-.53-.203Zm0-.819q.474 0 .853.178.381.177.627.56.224.339.29.784.038.261.03.753H9.07q.02.57.358.8a.85.85 0 0 0 .495.143q.306 0 .498-.174a.8.8 0 0 0 .185-.261h1.013q-.038.338-.352.686-.488.555-1.365.554-.725 0-1.278-.467-.555-.466-.554-1.518 0-.986.5-1.512t1.297-.526m4.563 2.052q-.09.057-.19.095a1.6 1.6 0 0 1-.263.068l-.223.042q-.313.055-.45.136a.46.46 0 0 0-.229.421q0 .255.141.368a.53.53 0 0 0 .343.113q.32 0 .59-.188.27-.189.28-.686v-.37Zm-.603-.464q.276-.034.394-.087.212-.09.212-.282 0-.233-.162-.322-.162-.09-.475-.089-.351 0-.498.174a.7.7 0 0 0-.14.349h-.957q.031-.498.278-.819.394-.501 1.352-.501a2.4 2.4 0 0 1 1.107.247q.484.247.484.933v1.742q0 .18.008.439.01.195.059.264a.36.36 0 0 0 .146.115v.146h-1.08a1 1 0 0 1-.063-.215 3 3 0 0 1-.027-.23 2 2 0 0 1-.474.38 1.4 1.4 0 0 1-.724.184q-.516 0-.852-.294-.336-.296-.336-.834 0-.7.54-1.014.296-.17.87-.244zm3.49 2.31h-.992v-5.134h.992v5.133Zm.578-3.055v-.707h.53V18.34h.982v1.06h.616v.707h-.616v2.006q0 .234.06.291.059.057.361.058a3 3 0 0 0 .195-.008v.742l-.47.018q-.704.024-.961-.244-.167-.171-.167-.526v-2.337h-.53Zm4.86-.84q.35 0 .638.123.288.12.472.372a1 1 0 0 1 .192.437q.035.226.035.733v2.23h-1.014v-2.31a1 1 0 0 0-.104-.494q-.137-.265-.516-.265-.393 0-.597.263-.204.262-.204.75v2.055h-.99v-5.116h.99v1.815q.215-.33.5-.462a1.4 1.4 0 0 1 .597-.13Z" clip-rule="evenodd" opacity=".95"/></g><defs><clipPath id="a"><path fill="#fff" d="M.333 0h40v40h-40z"/></clipPath></defs></svg>