<?xml version="1.0" encoding="utf-8"?>
<!-- Generator: Adobe Illustrator 25.4.2, SVG Export Plug-In . SVG Version: 6.00 Build 0)  -->
<svg version="1.1" id="Layer_1" xmlns="http://www.w3.org/2000/svg" xmlns:xlink="http://www.w3.org/1999/xlink" x="0px" y="0px"
	 viewBox="0 0 329 261" style="enable-background:new 0 0 329 261;" xml:space="preserve">
<style type="text/css">
	.st0{fill:#FFFFFF;}
</style>
<path class="st0" d="M108.3,127.63l-1.9,0.19h-0.27h0.28L108.3,127.63z"/>
<path class="st0" d="M123,132.33v0.4c-5,0.58-10.3,1.13-15.78,1.64C112.69,133.84,117.94,133.16,123,132.33z"/>
<path class="st0" d="M199,103.35v-6.13c-9.97,9.33-21.28,17.13-33.54,23.15c9.32-2,18.07-4.19,26.66-6.77
	c1.75-0.52,3.59,0.47,4.11,2.22s-0.47,3.59-2.22,4.11c-2.65,0.79-5.31,1.56-8,2.28v24.86c-0.1,1.83-1.66,3.22-3.49,3.12
	c-1.68-0.09-3.03-1.44-3.12-3.12V124c-3.86,1-7.78,1.87-11.81,2.72v20.4c-0.1,1.83-1.66,3.22-3.49,3.12
	c-1.68-0.09-3.03-1.44-3.12-3.12V128c-3.83,0.75-7.75,1.45-11.81,2.12v16.94c-0.1,1.83-1.66,3.22-3.49,3.12
	c-1.68-0.09-3.03-1.44-3.12-3.12v-15.9c-4.17,0.63-8.51,1.22-13,1.78v29.24h72.67c1.83-0.1,3.39,1.3,3.49,3.12
	c0.1,1.83-1.3,3.39-3.12,3.49c-0.12,0.01-0.24,0.01-0.36,0h-76c-1.82,0-3.3-1.48-3.31-3.3v-32.16c-5,0.83-10.29,1.51-15.78,2h-0.16
	h-0.33c-0.51,0-1.02-0.12-1.47-0.35c-0.09-0.04-0.18-0.09-0.26-0.15c-0.25-0.16-0.49-0.34-0.69-0.56c-0.36-0.39-0.62-0.86-0.75-1.38
	c-0.05-0.17-0.09-0.34-0.1-0.52l0,0l0,0c-0.09-0.92,0.21-1.84,0.84-2.52l0.21-0.21c0.37-0.35,0.81-0.6,1.3-0.74l0.23-0.06h0.12h0.27
	l1.9-0.19h0.15c5-0.48,9.87-1,14.53-1.53V89.51c0.1-1.83,1.66-3.22,3.49-3.12c1.68,0.09,3.03,1.44,3.12,3.12v35.86
	c25.8-5.38,45.74-15.55,64.44-32.56h-5.58c-1.82,0-3.3-1.48-3.3-3.3c0-1.82,1.48-3.3,3.3-3.3h13.84c0.1-0.01,0.19-0.01,0.29,0h0.31
	l0.32,0.08l0.3,0.1c0.2,0.08,0.39,0.18,0.57,0.3l0.26,0.19l0,0l0.24,0.22l0,0c0.14,0.15,0.27,0.31,0.39,0.48l0,0l0,0l0.08,0.13
	c0.03,0.04,0.05,0.08,0.07,0.13l0,0c0.04,0.08,0.08,0.16,0.11,0.25c0,0.03,0,0.06,0,0.09c0,0.1,0.07,0.19,0.1,0.29
	c0.1,0.29,0.15,0.59,0.15,0.9v13.84c0,1.82-1.48,3.3-3.3,3.3s-3.3-1.48-3.3-3.3L199,103.35z"/>
<path class="st0" d="M105,133.91c-0.26-0.15-0.49-0.34-0.69-0.56C104.51,133.57,104.75,133.75,105,133.91z"/>
<path class="st0" d="M123,125.63v0.45c-4.66,0.54-9.49,1-14.53,1.53C113.5,127.08,118.33,126.42,123,125.63z"/>
</svg>
