<?xml version="1.0" encoding="utf-8"?>
<!-- Generator: Adobe Illustrator 23.1.1, SVG Export Plug-In . SVG Version: 6.00 Build 0)  -->
<svg version="1.1" id="Layer_1" xmlns="http://www.w3.org/2000/svg" xmlns:xlink="http://www.w3.org/1999/xlink" x="0px" y="0px"
	 viewBox="0 0 329 261" style="enable-background:new 0 0 329 261;" xml:space="preserve">
<style type="text/css">
	.st0{fill:#FFFFFF;}
</style>
<g>
	<path class="st0" d="M229.2,114c0-3.9-1.5-7.5-4.1-9.8l-10.7-9.4l0.5,2.9l0,0l-0.9,0.1l0,0l-7.5,1.2h0l-60.2,9.5c0,0,0,0.1,0,0.1
		c0.2,0.1,0.4,0.2,0.7,0.3c1,0.6,2,1.1,2.9,1.8c2.2,1.7,2.7,4,1.4,6.5c-0.5,1-1.1,1.9-1.9,2.7c-2.2,2.3-5.4,2.3-8,0
		c-0.7-0.6-1.3-1.3-2-2l1.3,8.1l0.8,4.8l-3,2.3l0,0l-2.3-14.7c-0.2,0.3-0.3,0.6-0.4,0.8c-0.6,1-1.1,2.1-1.9,3.1
		c-1.4,1.8-3.9,2.4-5.9,1.5c-1.5-0.6-2.7-1.5-3.8-2.8c-0.8-1-1.1-2.1-1.1-3.3c0-1.8,0.9-3.1,2.1-4.3c0.5-0.5,1.1-1,1.7-1.6
		l-14.3,2.3l0,0l0,0l-0.2,0l0.5,3.2l-5.4-3.9c-0.5-0.4-1-0.6-1.6-0.7c-0.3-0.1-0.6-0.1-0.9-0.1c-0.3,0-0.6,0-0.9,0.1
		c-0.4,0.1-0.9,0.3-1.3,0.5c0.2-2.7,1.4-5.2,3.2-6.8l4.6-4l1.3,8.4l14.6-2.3c-0.9-0.5-1.8-0.9-2.6-1.3c-3.3-1.9-4.1-5.2-2-8.4
		c0.5-0.7,1-1.3,1.6-1.9c1.6-1.5,4.1-1.9,6-0.9c1.1,0.6,2,1.4,2.8,2.3c0.3,0.3,0.5,0.6,0.9,1L131,87.4l0-0.3l-0.4-2.3l-0.1-0.4
		L114.3,87c-3.5,0.6-5.9,3.8-5.3,7.4l0.8,4.8l-5.8,5.1c-2.6,2.3-4.1,5.9-4.1,9.8v54.1c0,1.2,0.1,2.3,0.4,3.3c0,0,0,0,0,0
		c0.9,5,4.6,8.8,9,8.8H220c5.1,0,9.2-4.9,9.2-11.1c0-0.2,0-0.4,0-0.5c0-0.2,0-0.4,0-0.6V114z M218.1,119.1L218.1,119.1l5.2-3.8
		c0.3-0.2,0.6-0.4,1-0.4c1.1,0,2.3,1.3,2.3,3.2v43c-0.6-0.8-1.3-1.5-2-2.1l-21.8-16.9l-8-6.2L218.1,119.1z M102.4,118.2
		c0-1,0.3-1.9,0.8-2.5c0.4-0.5,0.9-0.7,1.4-0.7c0.3,0,0.6,0.1,1,0.4l7.5,5.4l0.3,0.2l21,15.2l-16.5,12.8l-0.3,0.2l-13,10
		c-0.8,0.7-1.6,1.4-2.2,2.3V118.2z M225,174.7c-0.5,0.7-1.1,1.3-1.7,1.8c0,0,0,0,0,0c-1,0.7-2.1,1.1-3.3,1.1H109.2
		c-3.2,0-5.8-2.9-6.5-6.7c0,0,0,0,0,0c-0.1-0.6-0.1-1.1-0.1-1.7c0-0.9,0.1-1.8,0.3-2.6c0.5-2.3,1.7-4.2,3.3-5.5l12.3-9.5l0.2-0.1
		l17.9-13.8l2.1-1.6l0-0.1l0,0l0,0l3-2.3l19-14.7c1.2-0.9,2.5-1.4,3.8-1.4c1.4,0,2.7,0.5,3.8,1.4l21.9,16.9l2.1,1.7l6.7,5.2
		l23.8,18.4c1.5,1.2,2.6,3,3.2,5.1c0.2,0.8,0.3,1.6,0.4,2.5c0,0.2,0,0.4,0,0.6C226.6,171.3,226,173.3,225,174.7z M226.5,113
		C226.5,113,226.5,113,226.5,113c-0.1-0.1-0.1-0.1-0.1-0.1c-0.1-0.1-0.2-0.1-0.3-0.2c0,0-0.1,0-0.1-0.1c-0.1,0-0.1-0.1-0.2-0.1
		c-0.1,0-0.2-0.1-0.3-0.1c0,0-0.1,0-0.1,0c0,0-0.1,0-0.1,0c-0.1,0-0.1,0-0.2,0c-0.1,0-0.1,0-0.2,0c-0.1,0-0.2,0-0.4,0h0
		c0,0-0.1,0-0.1,0c0,0-0.1,0-0.1,0c0,0,0,0,0,0c-0.1,0-0.1,0-0.2,0c0,0-0.1,0-0.1,0c0,0,0,0,0,0c0,0,0,0,0,0c0,0,0,0,0,0
		c-0.1,0-0.1,0-0.2,0c-0.1,0-0.1,0-0.2,0c-0.5,0.1-1.1,0.4-1.6,0.7l-4.1,3c-0.2-1.6-0.5-3.1-0.7-4.7c0-0.3-0.1-0.7-0.1-1L215,98.9
		l8.3,7.3C225.1,107.8,226.3,110.3,226.5,113c0.2,0.1,0.4,0.2,0.5,0.4C226.9,113.2,226.7,113.1,226.5,113z"/>
	<path class="st0" d="M145.8,99.9c-0.5,1.1-1.4,2-2.4,2.7c-1.6,1.1-3.3,2.1-5,3.1c-0.1,0.1-0.3,0.1-0.4,0.2c-0.1,0-0.1-0.1-0.2-0.1
		c0.2-1.1,0.4-2.3,0.7-3.4c0.4-1.4,0.8-2.7,1.4-4c0.2-0.6,0.7-1.1,1.1-1.6c0.5-0.6,1.2-0.8,2-0.5c1.1,0.4,1.9,1.1,2.6,2
		C146.1,98.7,146.1,99.3,145.8,99.9z"/>
	<path class="st0" d="M134.2,111c-0.2,1-0.3,1.9-0.5,2.7c-0.5,1.6-0.9,3.2-1.5,4.8c-0.3,0.7-0.8,1.3-1.3,1.8c-0.5,0.6-1.3,0.8-2,0.4
		c-0.8-0.4-1.5-0.9-2.2-1.5c-0.8-0.7-0.9-1.4-0.3-2.4c0.5-1,1.3-1.9,2.3-2.5c1.7-1.1,3.4-2.1,5.1-3.2
		C133.8,111.1,134,111.1,134.2,111z"/>
	<path class="st0" d="M148.4,115.5c-0.4,1-1.1,1.8-1.9,2.5c-0.6,0.5-1.3,0.6-1.9,0.1c-0.8-0.6-1.6-1.2-2.2-1.9
		c-1.5-1.7-2.6-3.7-3.6-5.7c0,0,0-0.1,0-0.3c1.1,0.2,2.2,0.4,3.3,0.7c1.6,0.4,3.3,0.8,4.7,1.7c0.5,0.3,1,0.7,1.4,1.2
		C148.6,114.3,148.6,114.9,148.4,115.5z"/>
	<path class="st0" d="M133.5,106.6c-0.6-0.1-1-0.1-1.4-0.2c-2-0.4-4-0.8-5.8-1.7c-0.7-0.3-1.4-0.8-2-1.3c-0.8-0.6-0.9-1.4-0.4-2.2
		c0.5-0.8,1-1.5,1.6-2.2c0.5-0.6,1.2-0.7,1.9-0.3c0.8,0.4,1.5,1,2.1,1.6C131.1,102.1,132.3,104.2,133.5,106.6z"/>
	<path class="st0" d="M212,80.6c-0.2-1-0.3-2-0.5-3c-0.1-0.4-0.2-0.8-0.4-1.2c-1.2-2.5-3.9-4.1-6.8-3.6l-70.4,11.1l0,0.3h0l0.1,0.6
		l0.4,2.6l0,0.2l1,6.2l0.8,4.8c0.2-0.4,0.3-0.7,0.4-0.9c0.5-0.9,0.9-1.8,1.5-2.6c1.7-2.2,4.4-2.8,6.8-1.5c1,0.5,2,1.3,2.8,2.1
		c1.8,1.9,2,4.2,0.6,6.3c-0.6,1-1.5,1.8-2.3,2.8c-0.2,0.2-0.3,0.4-0.5,0.6l50-7.9h0l14.9-2.4h0l3.3-0.5l0.1,0l0.3,0L212,80.6z
		 M205.1,84.6l-0.7,1.7h0l-0.8,1.9c-0.1,0.2-0.2,0.3-0.4,0.4c-0.1,0-0.1,0-0.2,0.1l-3.8,0.5c-0.3,0-0.5-0.1-0.7-0.3l-1.2-1.5
		l-1.2-1.6c-0.2-0.2-0.2-0.5-0.1-0.8l0.1-0.3l1.3-3.4c0.1-0.3,0.3-0.4,0.6-0.5l3.8-0.5c0.3,0,0.5,0.1,0.7,0.3l2.4,3.1
		C205.1,84,205.2,84.3,205.1,84.6z"/>
</g>
</svg>
