<svg id="Layer_1" data-name="Layer 1" xmlns="http://www.w3.org/2000/svg" viewBox="0 0 329 261"><defs><style>.cls-1{fill:#fff;}</style></defs><title>paynim_telegram_bot_app</title><path class="cls-1" d="M138.82,76.24a11.48,11.48,0,0,0-8.92,5.19l-25.67,44a11.19,11.19,0,0,0,0,10.2l25.67,44.06a11.48,11.48,0,0,0,8.92,5.19h51.35a11.49,11.49,0,0,0,8.93-5.19l25.67-44a11.19,11.19,0,0,0,0-10.2L199.1,81.34a11.37,11.37,0,0,0-8.93-5.19Zm50.44,27.13c.91,0,1.82.45,1.82,2l-9.92,49.89a3.65,3.65,0,0,1-4.73,2.05,4,4,0,0,1-.46-.23l-23-17.48,26.67-24.21c1.19-1,.73-1.28.73-1.28.09-1.09-1.82,0-1.82,0L146.2,134.6l5.46,17.3,1.19-10.66,7.55,6.29-7.65,7a1.81,1.81,0,0,1-.72.36h-.73a.73.73,0,0,1-.73-.55l-5.92-18.84-14-4.74s-2.18-.82-2.37-2.36,2.46-2.74,2.46-2.74l55.81-21.85V104A8.12,8.12,0,0,1,189.26,103.37Z"/></svg>