<svg xmlns="http://www.w3.org/2000/svg" width="329" height="261" fill="none" viewBox="0 0 329 261"><path fill="currentColor" d="M163.556 166.836c2.998 0 5.995-1.038 8.417-2.767 4.727-3.459 13.028-8.877 18.908-9.108 6.225 0 11.529 3.805 13.72 9.108 1.268 2.882 2.882 5.649 4.842 7.955 1.845 2.076 4.266 3.574 6.917 4.381l3.229.923c2.651.692 3.343 4.381.922 5.88 0 0-.115 0-.115.115-26.402 8.878-53.381 19.254-63.412 19.254-12.105 0-22.366-7.379-55.456-24.442-2.651-1.384-3.92-4.497-2.997-7.379a5.925 5.925 0 0 1 6.802-4.035c1.614 0 3.344.23 4.842.807l16.833 5.534c1.845.576 3.344 1.729 4.266 3.343 1.96 3.229 5.765 8.647 13.489 8.647h21.791c1.614 0 3.113-1.268 3.228-2.882.115-1.729-1.268-3.113-2.998-3.113h-23.635c-2.882 0-5.534-1.96-6.11-4.727-.807-3.804 2.19-7.148 5.88-7.148zm-11.183-77.592c-.231-.462-.692-.807-1.269-.923a1.7 1.7 0 0 0-1.499.462l-.345.345c-.116.116-.231.116-.231 0l-.346-.346c-.692-.691-1.729-.691-2.421 0-.692.692-.692 1.73 0 2.422l2.536 2.651c.116.116.231.116.346.116.116 0 .231 0 .346-.116l2.537-2.651c.576-.461.691-1.269.346-1.96m15.219 14.181c-.231-.346-.577-.692-1.038-.692-.461-.115-.922.115-1.268.346l-.231.23c-.115.116-.115.116-.23 0l-.231-.23a1.46 1.46 0 0 0-2.075 0c-.577.576-.577 1.383 0 1.96l2.075 2.075c.115.115.231.115.346.115s.231 0 .346-.115l2.075-2.075c.346-.461.461-1.038.231-1.614m-27.786-2.537c-.231-.346-.576-.692-1.038-.692-.461-.115-.922.116-1.268.346l-.23.231c-.116.115-.116.115-.231 0l-.231-.231a1.46 1.46 0 0 0-2.075 0c-.576.577-.576 1.384 0 1.96l2.075 2.075c.116.116.231.116.346.116.116 0 .231 0 .346-.116l2.075-2.075c.462-.461.577-1.153.231-1.614m25.71-24.672c-.346-.692-1.037-1.153-1.844-1.268s-1.615.115-2.191.692l-.461.46a.35.35 0 0 1-.461 0l-.461-.46a2.806 2.806 0 0 0-3.69 0c-1.038.922-1.038 2.42 0 3.343l3.805 3.69a.88.88 0 0 0 .576.23c.231 0 .346-.115.577-.23l3.804-3.69c.577-.692.807-1.845.346-2.767m-14.297-17.064c-.691-1.268-1.96-2.19-3.574-2.421-1.498-.23-3.113.23-4.15 1.268l-.923.923a.557.557 0 0 1-.807 0l-.922-.923c-1.845-1.73-4.958-1.73-6.802 0a4.324 4.324 0 0 0 0 6.341l7.148 6.918q.346.346 1.038.346c.461 0 .691-.115 1.037-.346l7.148-6.918c1.384-1.383 1.73-3.458.807-5.188"/><path fill="currentColor" fill-rule="evenodd" d="m162.634 120.142 8.301 14.527a3.45 3.45 0 0 1 0 3.344l-8.301 14.527c-.576 1.037-1.729 1.614-2.882 1.614h-16.603c-1.152 0-2.305-.577-2.882-1.614l-8.301-14.527a3.45 3.45 0 0 1 0-3.344l8.301-14.527c.577-1.037 1.73-1.614 2.882-1.614h16.603c1.153 0 2.306.577 2.882 1.614" clip-rule="evenodd"/></svg>