<svg xmlns="http://www.w3.org/2000/svg" width="31" height="36" fill="none" viewBox="0 0 31 36"><path fill="#fff" d="m30.82 11.5-2.45-8.93A3.58 3.58 0 0 0 24.02.1l-9.13 2.4A5.53 5.53 0 0 0 11.54 5L.49 23.68a3.43 3.43 0 0 0 1.3 4.75l12.58 7.1c1.7.95 3.89.38 4.85-1.27l11.04-18.68c.74-1.24.94-2.72.56-4.09zm-8.77 8.68-2.83 4.8c-.2.35-.58.55-.98.57h-5.7c-.4 0-.78-.22-.98-.56l-2.85-4.81a1.1 1.1 0 0 1 0-1.11l2.85-4.81c.2-.35.58-.55.98-.57h5.7c.4 0 .78.22.98.57l2.83 4.8c.2.33.2.77 0 1.12M24.31 7.5a2.16 2.16 0 0 1-2.64-1.48 2.1 2.1 0 0 1 1.52-2.57c1.14-.3 2.32.37 2.63 1.48a2.1 2.1 0 0 1-1.51 2.57"/></svg>