<svg xmlns="http://www.w3.org/2000/svg" width="218" height="218" fill="none" viewBox="0 0 218 218"><path fill="#fff" d="m40.734 108.156-4.158-7.312a1.66 1.66 0 0 0-1.441-.844h-8.316c-.593 0-1.142.321-1.439.844l-4.158 7.312a1.71 1.71 0 0 0 0 1.688l4.158 7.312c.297.523.846.844 1.439.844h8.316c.593 0 1.142-.321 1.438-.844l4.158-7.312c.3-.523.3-1.165.003-1.688M40.734 88.156l-4.158-7.312A1.66 1.66 0 0 0 35.135 80h-8.316c-.593 0-1.142.32-1.439.844l-4.158 7.312a1.71 1.71 0 0 0 0 1.688l4.158 7.312c.297.523.846.844 1.439.844h8.316c.593 0 1.142-.32 1.438-.844l4.158-7.312c.3-.523.3-1.165.003-1.688M57.734 98.156l-4.158-7.312A1.66 1.66 0 0 0 52.135 90h-8.316c-.593 0-1.142.32-1.439.844l-4.158 7.312a1.71 1.71 0 0 0 0 1.688l4.158 7.312c.297.523.846.844 1.439.844h8.316c.593 0 1.142-.321 1.438-.844l4.158-7.312c.3-.523.3-1.165.003-1.688M108.734 108.156l-4.158-7.312a1.66 1.66 0 0 0-1.441-.844h-8.316c-.593 0-1.142.321-1.439.844l-4.158 7.312a1.71 1.71 0 0 0 0 1.688l4.158 7.312c.297.523.846.844 1.439.844h8.316c.593 0 1.142-.321 1.438-.844l4.158-7.312c.3-.523.3-1.165.003-1.688M125.734 117.156l-4.158-7.312a1.66 1.66 0 0 0-1.441-.844h-8.316c-.593 0-1.142.321-1.439.844l-4.158 7.312a1.72 1.72 0 0 0 0 1.688l4.158 7.312c.297.523.846.844 1.439.844h8.316c.593 0 1.142-.321 1.438-.844l4.158-7.312c.3-.523.3-1.165.003-1.688M142.734 127.156l-4.158-7.312a1.66 1.66 0 0 0-1.441-.844h-8.316c-.593 0-1.142.321-1.439.844l-4.158 7.312a1.72 1.72 0 0 0 0 1.688l4.158 7.312c.297.523.846.844 1.439.844h8.316c.593 0 1.142-.321 1.438-.844l4.158-7.312c.3-.523.3-1.165.003-1.688M159.734 137.156l-4.158-7.312a1.66 1.66 0 0 0-1.441-.844h-8.316c-.593 0-1.142.321-1.439.844l-4.158 7.312a1.72 1.72 0 0 0 0 1.688l4.158 7.312c.297.523.846.844 1.439.844h8.316c.593 0 1.142-.321 1.438-.844l4.158-7.312c.3-.523.3-1.165.003-1.688M74.734 88.156l-4.158-7.312A1.66 1.66 0 0 0 69.135 80h-8.316c-.593 0-1.142.32-1.439.844l-4.158 7.312a1.71 1.71 0 0 0 0 1.688l4.158 7.312c.297.523.846.844 1.439.844h8.316c.593 0 1.142-.32 1.438-.844l4.158-7.312c.3-.523.3-1.165.003-1.688M91.734 98.156l-4.158-7.312A1.66 1.66 0 0 0 86.135 90h-8.316c-.593 0-1.142.32-1.439.844l-4.158 7.312a1.71 1.71 0 0 0 0 1.688l4.158 7.312c.297.523.846.844 1.439.844h8.316c.593 0 1.142-.321 1.438-.844l4.158-7.312c.3-.523.3-1.165.003-1.688M57.734 58.156l-4.158-7.312A1.66 1.66 0 0 0 52.135 50h-8.316c-.593 0-1.142.32-1.439.844l-4.158 7.312a1.71 1.71 0 0 0 0 1.688l4.158 7.312c.297.523.846.844 1.439.844h8.316c.593 0 1.142-.32 1.438-.844l4.158-7.312c.3-.523.3-1.165.003-1.688M108.734 68.156l-4.158-7.312a1.66 1.66 0 0 0-1.441-.844h-8.316c-.593 0-1.142.32-1.439.844l-4.158 7.312a1.71 1.71 0 0 0 0 1.688l4.158 7.312c.297.523.846.844 1.439.844h8.316c.593 0 1.142-.32 1.438-.844l4.158-7.312c.3-.523.3-1.165.003-1.688M57.734 118.156l-4.158-7.312a1.66 1.66 0 0 0-1.441-.844h-8.316c-.593 0-1.142.321-1.439.844l-4.158 7.312a1.71 1.71 0 0 0 0 1.688l4.158 7.312c.297.523.846.844 1.439.844h8.316c.593 0 1.142-.321 1.438-.844l4.158-7.312c.3-.523.3-1.165.003-1.688M108.734 128.156l-4.158-7.312a1.66 1.66 0 0 0-1.441-.844h-8.316c-.593 0-1.142.321-1.439.844l-4.158 7.312a1.71 1.71 0 0 0 0 1.688l4.158 7.312c.297.523.846.844 1.439.844h8.316c.593 0 1.142-.321 1.438-.844l4.158-7.312c.3-.523.3-1.165.003-1.688M125.734 137.156l-4.158-7.312a1.66 1.66 0 0 0-1.441-.844h-8.316c-.593 0-1.142.321-1.439.844l-4.158 7.312a1.72 1.72 0 0 0 0 1.688l4.158 7.312c.297.523.846.844 1.439.844h8.316c.593 0 1.142-.321 1.438-.844l4.158-7.312c.3-.523.3-1.165.003-1.688M142.734 147.156l-4.158-7.312a1.66 1.66 0 0 0-1.441-.844h-8.316c-.593 0-1.142.321-1.439.844l-4.158 7.312a1.72 1.72 0 0 0 0 1.688l4.158 7.312c.297.523.846.844 1.439.844h8.316c.593 0 1.142-.321 1.438-.844l4.158-7.312c.3-.523.3-1.165.003-1.688M159.734 157.156l-4.158-7.312a1.66 1.66 0 0 0-1.441-.844h-8.316c-.593 0-1.142.321-1.439.844l-4.158 7.312a1.72 1.72 0 0 0 0 1.688l4.158 7.312c.297.523.846.844 1.439.844h8.316c.593 0 1.142-.321 1.438-.844l4.158-7.312c.3-.523.3-1.165.003-1.688M74.734 108.156l-4.158-7.312a1.66 1.66 0 0 0-1.441-.844h-8.316c-.593 0-1.142.321-1.439.844l-4.158 7.312a1.71 1.71 0 0 0 0 1.688l4.158 7.312c.297.523.846.844 1.439.844h8.316c.593 0 1.142-.321 1.438-.844l4.158-7.312c.3-.523.3-1.165.003-1.688M91.734 118.156l-4.158-7.312a1.66 1.66 0 0 0-1.441-.844h-8.316c-.593 0-1.142.321-1.439.844l-4.158 7.312a1.71 1.71 0 0 0 0 1.688l4.158 7.312c.297.523.846.844 1.439.844h8.316c.593 0 1.142-.321 1.438-.844l4.158-7.312c.3-.523.3-1.165.003-1.688M91.734 138.156l-4.158-7.312a1.66 1.66 0 0 0-1.441-.844h-8.316c-.593 0-1.142.321-1.439.844l-4.158 7.312a1.71 1.71 0 0 0 0 1.688l4.158 7.312c.297.523.846.844 1.439.844h8.316c.593 0 1.142-.321 1.438-.844l4.158-7.312c.3-.523.3-1.165.003-1.688M57.734 78.156l-4.158-7.312A1.66 1.66 0 0 0 52.135 70h-8.316c-.593 0-1.142.32-1.439.844l-4.158 7.312a1.71 1.71 0 0 0 0 1.688l4.158 7.312c.297.523.846.844 1.439.844h8.316c.593 0 1.142-.32 1.438-.844l4.158-7.312c.3-.523.3-1.165.003-1.688M108.734 88.156l-4.158-7.312a1.66 1.66 0 0 0-1.441-.844h-8.316c-.593 0-1.142.32-1.439.844l-4.158 7.312a1.71 1.71 0 0 0 0 1.688l4.158 7.312c.297.523.846.844 1.439.844h8.316c.593 0 1.142-.32 1.438-.844l4.158-7.312c.3-.523.3-1.165.003-1.688M125.734 97.156l-4.158-7.312a1.66 1.66 0 0 0-1.441-.844h-8.316c-.593 0-1.142.32-1.439.844l-4.158 7.312a1.72 1.72 0 0 0 0 1.688l4.158 7.312c.297.523.846.844 1.439.844h8.316c.593 0 1.142-.321 1.438-.844l4.158-7.312c.3-.523.3-1.165.003-1.688M74.734 68.156l-4.158-7.312A1.66 1.66 0 0 0 69.135 60h-8.316c-.593 0-1.142.32-1.439.844l-4.158 7.312a1.71 1.71 0 0 0 0 1.688l4.158 7.312c.297.523.846.844 1.439.844h8.316c.593 0 1.142-.32 1.438-.844l4.158-7.312c.3-.523.3-1.165.003-1.688M91.734 58.156l-4.158-7.312A1.66 1.66 0 0 0 86.135 50h-8.316c-.593 0-1.142.32-1.439.844l-4.158 7.312a1.71 1.71 0 0 0 0 1.688l4.158 7.312c.297.523.846.844 1.439.844h8.316c.593 0 1.142-.32 1.438-.844l4.158-7.312c.3-.523.3-1.165.003-1.688M91.734 78.156l-4.158-7.312A1.66 1.66 0 0 0 86.135 70h-8.316c-.593 0-1.142.32-1.439.844l-4.158 7.312a1.71 1.71 0 0 0 0 1.688l4.158 7.312c.297.523.846.844 1.439.844h8.316c.593 0 1.142-.32 1.438-.844l4.158-7.312c.3-.523.3-1.165.003-1.688M127.089 113.001v-6.064a16 16 0 0 0-.128-2.016h1.936l.16 1.6h-.192a2.8 2.8 0 0 1 1.136-1.296q.752-.464 1.744-.464 1.424 0 2.144.8t.72 2.496v4.944h-2v-4.848q0-.977-.384-1.392-.368-.432-1.12-.432-.928 0-1.472.576t-.544 1.536v4.56zm9.641 0v-8.08h2v8.08zm-.112-9.6v-1.952h2.224v1.952zm4.284 9.6v-6.064q0-.497-.033-1.008a16 16 0 0 0-.095-1.008h1.936l.16 1.6h-.192q.336-.832 1.024-1.296.704-.464 1.664-.464t1.584.464q.64.447.896 1.408h-.256a2.77 2.77 0 0 1 1.104-1.36q.768-.512 1.76-.512 1.36 0 2.032.8t.672 2.496v4.944h-2v-4.864q0-.96-.32-1.376-.32-.432-1.025-.432-.831 0-1.311.592-.48.576-.48 1.568v4.512h-2v-4.864q0-.96-.32-1.376-.32-.432-1.024-.432-.832 0-1.312.592-.465.576-.464 1.568v4.512zm16.552 0-3.152-8.08h2.064l2.272 6.288h-.416l2.304-6.288h1.424l2.288 6.288h-.368l2.256-6.288h1.952l-3.152 8.08h-1.76l-2.416-6.432h.848l-2.368 6.432zm15.377.16q-1.248 0-2.16-.512a3.6 3.6 0 0 1-1.424-1.456q-.496-.944-.496-2.24t.496-2.224a3.6 3.6 0 0 1 1.424-1.456q.912-.512 2.16-.512t2.16.512a3.47 3.47 0 0 1 1.424 1.456q.512.927.512 2.224 0 1.296-.512 2.24a3.5 3.5 0 0 1-1.424 1.456q-.912.512-2.16.512m0-1.536q.943 0 1.504-.656.56-.672.56-2.016t-.56-2-1.504-.656-1.504.656-.56 2 .56 2.016q.56.656 1.504.656m5.805 1.376v-6.016q0-.513-.032-1.04a11 11 0 0 0-.08-1.024h1.936l.224 2.208h-.32q.159-.8.528-1.328.384-.529.928-.784a2.7 2.7 0 0 1 1.184-.256q.287 0 .464.032.175.015.352.08l-.016 1.76a2.2 2.2 0 0 0-.528-.16 3.5 3.5 0 0 0-.528-.032q-.688 0-1.168.288-.465.287-.704.8-.225.511-.224 1.168v4.304zm6.297 0v-11.776h2v11.776zm7.308.16q-1.056 0-1.872-.496-.801-.513-1.248-1.456-.448-.945-.448-2.256 0-1.313.448-2.24.447-.945 1.248-1.44.816-.512 1.872-.512 1.008 0 1.776.496.783.48 1.04 1.312h-.208v-5.344h2v11.776h-1.968v-1.712h.192a2.43 2.43 0 0 1-1.04 1.376q-.769.495-1.792.496m.56-1.536q.944 0 1.52-.656.576-.672.576-2.016t-.576-2-1.52-.656-1.536.656q-.576.656-.576 2t.576 2.016q.591.656 1.536.656"/></svg>
