<svg xmlns="http://www.w3.org/2000/svg" width="1000" height="890" fill="none" viewBox="0 0 1000 890"><path fill="url(#a)" d="M988.87 403.163 780.519 41.707C765.518 15.849 738.015 0 708.291 0H291.588a83.12 83.12 0 0 0-72.09 41.707L11.147 403.163a83.6 83.6 0 0 0 0 83.413l208.351 361.456a83.12 83.12 0 0 0 72.09 41.707h416.703a83.12 83.12 0 0 0 72.089-41.707l208.352-361.456c14.998-25.858 14.998-57.555.138-83.413"/><path fill="url(#b)" d="M368.761 287.5h262.5a157.501 157.501 0 0 1 0 315c-46.725 0-88.462-20.212-117.337-52.5h-27.825c-28.875 32.288-70.613 52.5-117.338 52.5a157.5 157.5 0 0 1 0-315m-26.25 78.75v52.5h-52.5v52.5h52.5v52.5h52.5v-52.5h52.5v-52.5h-52.5v-52.5zM591.886 445a39.375 39.375 0 1 0 0 78.751 39.375 39.375 0 0 0 0-78.751m78.75-78.75a39.375 39.375 0 1 0 0 78.751 39.375 39.375 0 0 0 0-78.751"/><defs><radialGradient id="a" cx="0" cy="0" r="1" gradientTransform="matrix(1000.34 0 0 1001.21 752.276 878.151)" gradientUnits="userSpaceOnUse"><stop stop-color="#ec991c"/><stop offset="1" stop-color="#e9b213"/></radialGradient><linearGradient id="b" x1="638.11" x2="497.727" y1="294.605" y2="671.164" gradientUnits="userSpaceOnUse"><stop stop-color="#fefbf5"/><stop offset="1" stop-color="#fcf3df"/></linearGradient></defs></svg>