<svg xmlns="http://www.w3.org/2000/svg" fill="none" viewBox="0 0 295 263"><mask id="b" width="295" height="263" x="0" y="0" maskUnits="userSpaceOnUse" style="mask-type:alpha"><path fill="url(#a)" d="M291.717 119.172 230.253 12.328C225.828 4.685 217.715 0 208.946 0H86.018a24.51 24.51 0 0 0-21.266 12.328L3.288 119.172a24.75 24.75 0 0 0 0 24.656l61.464 106.844A24.51 24.51 0 0 0 86.018 263h122.928a24.51 24.51 0 0 0 21.266-12.328l61.464-106.844a24.66 24.66 0 0 0 .041-24.656"/></mask><g mask="url(#b)"><path fill="url(#c)" d="M291.717 119.172 230.253 12.328C225.828 4.685 217.715 0 208.946 0H86.018a24.51 24.51 0 0 0-21.266 12.328L3.288 119.172a24.75 24.75 0 0 0 0 24.656l61.464 106.844A24.51 24.51 0 0 0 86.018 263h122.928a24.51 24.51 0 0 0 21.266-12.328l61.464-106.844a24.66 24.66 0 0 0 .041-24.656"/><path fill="url(#d)" d="M128 136c0-6.627 5.373-12 12-12h104c6.627 0 12 5.373 12 12v104c0 6.627-5.373 12-12 12H140c-6.627 0-12-5.373-12-12z"/><path fill="url(#e)" d="M-12 136c0-6.627 5.373-12 12-12h104c6.627 0 12 5.373 12 12v104c0 6.627-5.373 12-12 12H0c-6.627 0-12-5.373-12-12z"/><path fill="url(#f)" d="M-12-4c0-6.627 5.373-12 12-12h104c6.627 0 12 5.373 12 12v104c0 6.627-5.373 12-12 12H0c-6.627 0-12-5.373-12-12z"/><path fill="url(#g)" d="M128-4c0-6.627 5.373-12 12-12h104c6.627 0 12 5.373 12 12v104c0 6.627-5.373 12-12 12H140c-6.627 0-12-5.373-12-12z"/><path fill="#1f2348" fill-opacity=".4" d="M38.744 64.528q-6.72 0-10.368-4.464-3.648-4.512-3.648-12.672 0-5.616 1.872-9.552 1.92-3.984 5.376-6.096 3.504-2.112 8.4-2.112 2.784 0 5.472.864 2.736.864 4.8 2.592l-2.736 6.48q-1.728-1.392-3.696-2.016a12.1 12.1 0 0 0-3.936-.672q-3.6 0-5.472 2.256-1.824 2.208-1.824 6.672v2.496h-.72q.432-2.064 1.584-3.504a7.4 7.4 0 0 1 2.88-2.256q1.776-.768 3.888-.768 2.832 0 5.04 1.44 2.208 1.392 3.504 3.888 1.344 2.496 1.344 5.664 0 3.456-1.536 6.096a11 11 0 0 1-4.128 4.176q-2.64 1.488-6.096 1.488m-.48-6.72q1.248 0 2.208-.576a3.6 3.6 0 0 0 1.44-1.632q.528-1.056.528-2.448 0-1.44-.528-2.448a3.6 3.6 0 0 0-1.44-1.632q-.96-.624-2.208-.624t-2.208.624a3.9 3.9 0 0 0-1.488 1.632q-.48 1.008-.48 2.448 0 1.392.48 2.448a3.9 3.9 0 0 0 1.488 1.632q.96.576 2.208.576M67.141 64v-5.712h-13.92v-6.144L68.485 30.16h7.056v21.552h4.416v6.576h-4.416V64zm0-12.288V40.624h1.248l-8.976 13.104v-2.016z"/><path fill="#1f2348" fill-opacity=".55" d="M152.368 64v-7.2h7.584V37.504h4.032l-10.8 6.144v-8.16l9.312-5.328h6.288V56.8h7.056V64zm27.677 0v-6.48l10.272-10.704q1.872-1.92 2.688-3.36c.816-1.44.816-1.936.816-2.928q0-1.824-1.248-2.736-1.2-.912-3.504-.912-1.92 0-3.936.72-1.968.672-3.984 2.208l-2.736-6.432q2.256-1.728 5.424-2.736a21.4 21.4 0 0 1 6.528-1.008q5.904 0 8.976 2.544 3.12 2.544 3.12 7.344 0 3.072-1.44 5.904-1.392 2.784-4.656 5.952l-7.872 7.68V56.8h15.216V64zm39.917.528q-6.144 0-9.696-2.592-3.504-2.592-3.504-7.2 0-3.648 2.161-6 2.16-2.4 5.472-2.784v1.392q-2.977-.624-4.849-2.88-1.872-2.304-1.872-5.568 0-4.32 3.312-6.768 3.312-2.496 8.976-2.496 5.712 0 9.024 2.496 3.313 2.448 3.313 6.768 0 3.312-1.824 5.616t-4.752 2.784v-1.344q3.311.48 5.375 2.88 2.065 2.352 2.065 5.904 0 4.608-3.504 7.2t-9.697 2.592m0-6.624q2.592 0 3.888-.96 1.345-1.008 1.345-2.88 0-1.92-1.345-2.88-1.296-.96-3.888-.96-2.544 0-3.888.96t-1.344 2.88q0 1.872 1.344 2.88 1.344.96 3.888.96m0-14.352q2.065 0 3.169-.96 1.152-1.008 1.152-2.688c0-1.68-.384-2-1.152-2.64q-1.104-1.008-3.169-1.008t-3.215 1.008q-1.104.96-1.104 2.64c0 1.68.368 2.016 1.104 2.688q1.151.96 3.215.96"/><path fill="#1f2348" d="M137.264 210v-6.48l10.272-10.704q1.872-1.92 2.688-3.36c.816-1.44.816-1.936.816-2.928q0-1.824-1.248-2.736-1.2-.912-3.504-.912-1.92 0-3.936.72-1.968.672-3.984 2.208l-2.736-6.432q2.256-1.728 5.424-2.736a21.4 21.4 0 0 1 6.528-1.008q5.904 0 8.976 2.544 3.12 2.544 3.12 7.344 0 3.072-1.44 5.904-1.392 2.784-4.656 5.952l-7.872 7.68V202.8h15.216v7.2zm39.917.528q-6.24 0-9.6-4.56-3.312-4.608-3.312-13.008 0-8.496 3.312-12.912 3.36-4.416 9.6-4.416 6.288 0 9.6 4.416t3.312 12.864-3.36 13.056q-3.312 4.56-9.552 4.56m0-7.056q2.304 0 3.408-2.496 1.152-2.496 1.152-8.016 0-5.568-1.152-7.92-1.104-2.4-3.408-2.4t-3.456 2.4q-1.104 2.352-1.104 7.872 0 5.568 1.104 8.064 1.152 2.496 3.456 2.496M206.923 210v-5.712h-13.92v-6.144l15.263-21.984h7.056v21.552h4.416v6.576h-4.416V210zm0-12.288v-11.088h1.248l-8.976 13.104v-2.016zm27.821 12.816q-6.144 0-9.696-2.592-3.504-2.592-3.504-7.2 0-3.648 2.16-6 2.16-2.4 5.472-2.784v1.392q-2.976-.624-4.848-2.88-1.872-2.304-1.872-5.568 0-4.32 3.312-6.768 3.312-2.496 8.976-2.496 5.712 0 9.024 2.496 3.312 2.448 3.312 6.768 0 3.312-1.824 5.616t-4.752 2.784v-1.344q3.312.48 5.376 2.88 2.064 2.352 2.064 5.904 0 4.608-3.504 7.2t-9.696 2.592m0-6.624q2.592 0 3.888-.96 1.344-1.008 1.344-2.88 0-1.92-1.344-2.88-1.296-.96-3.888-.96-2.544 0-3.888.96t-1.344 2.88q0 1.872 1.344 2.88 1.344.96 3.888.96m0-14.352q2.064 0 3.168-.96 1.152-1.008 1.152-2.688c0-1.68-.384-2-1.152-2.64q-1.104-1.008-3.168-1.008t-3.216 1.008q-1.104.96-1.104 2.64c0 1.68.368 2.016 1.104 2.688q1.152.96 3.216.96"/><path fill="#1f2348" fill-opacity=".7" d="M-1.632 210v-7.2h7.584v-19.296h4.032l-10.8 6.144v-8.16l9.312-5.328h6.288v26.64h7.056v7.2zm38.813.528q-6.24 0-9.6-4.56-3.312-4.608-3.312-13.008 0-8.496 3.312-12.912 3.36-4.416 9.6-4.416 6.288 0 9.6 4.416t3.312 12.864-3.36 13.056q-3.312 4.56-9.552 4.56m0-7.056q2.304 0 3.408-2.496 1.152-2.496 1.152-8.016 0-5.568-1.152-7.92-1.104-2.4-3.408-2.4t-3.456 2.4q-1.104 2.352-1.104 7.872 0 5.568 1.104 8.064 1.152 2.496 3.456 2.496M54.827 210v-6.48l10.272-10.704q1.872-1.92 2.688-3.36.815-1.44.816-2.928 0-1.824-1.248-2.736-1.2-.912-3.505-.912-1.92 0-3.936.72-1.968.672-3.983 2.208l-2.736-6.432q2.256-1.728 5.423-2.736a21.4 21.4 0 0 1 6.529-1.008q5.903 0 8.975 2.544 3.12 2.544 3.12 7.344 0 3.072-1.44 5.904-1.392 2.784-4.656 5.952l-7.871 7.68V202.8H78.49v7.2H54.828Zm40.877 0v-5.712h-13.92v-6.144l15.264-21.984h7.056v21.552h4.416v6.576h-4.416V210zm0-12.288v-11.088h1.248l-8.976 13.104v-2.016z"/></g><defs><radialGradient id="a" cx="0" cy="0" r="1" gradientTransform="matrix(295.101 0 0 295.951 221.922 259.575)" gradientUnits="userSpaceOnUse"><stop stop-color="#ec991c"/><stop offset="1" stop-color="#e9b213"/></radialGradient><radialGradient id="c" cx="0" cy="0" r="1" gradientTransform="matrix(307.106 0 0 313.956 218.949 259.366)" gradientUnits="userSpaceOnUse"><stop stop-color="#ec991c"/><stop offset="1" stop-color="#e9b213"/></radialGradient><radialGradient id="d" cx="0" cy="0" r="1" gradientTransform="rotate(222.26 184.103 54.724)scale(281.366 282.592)" gradientUnits="userSpaceOnUse"><stop offset=".188" stop-color="#fff"/><stop offset=".613" stop-color="#fff" stop-opacity=".857"/><stop offset="1" stop-color="#fff" stop-opacity=".6"/></radialGradient><radialGradient id="e" cx="0" cy="0" r="1" gradientTransform="rotate(222.26 184.103 54.724)scale(281.366 282.592)" gradientUnits="userSpaceOnUse"><stop offset=".188" stop-color="#fff"/><stop offset=".613" stop-color="#fff" stop-opacity=".857"/><stop offset="1" stop-color="#fff" stop-opacity=".6"/></radialGradient><radialGradient id="f" cx="0" cy="0" r="1" gradientTransform="rotate(222.26 184.103 54.724)scale(281.366 282.592)" gradientUnits="userSpaceOnUse"><stop offset=".188" stop-color="#fff"/><stop offset=".613" stop-color="#fff" stop-opacity=".857"/><stop offset="1" stop-color="#fff" stop-opacity=".6"/></radialGradient><radialGradient id="g" cx="0" cy="0" r="1" gradientTransform="rotate(222.26 184.103 54.724)scale(281.366 282.592)" gradientUnits="userSpaceOnUse"><stop offset=".188" stop-color="#fff"/><stop offset=".613" stop-color="#fff" stop-opacity=".857"/><stop offset="1" stop-color="#fff" stop-opacity=".6"/></radialGradient></defs></svg>