<svg xmlns="http://www.w3.org/2000/svg" viewBox="0 0 477 423.98">
  <defs>
    <radialGradient id="a" cx="358.89" cy="95.51" r="477.11" gradientTransform="matrix(1 0 0 -1 0 514)" gradientUnits="userSpaceOnUse">
      <stop offset="0" stop-color="#ec991c"/>
      <stop offset="1" stop-color="#e9b213"/>
    </radialGradient>
    <linearGradient id="b" x1="167.05" x2="339.91" y1="285.73" y2="112.87" gradientUnits="userSpaceOnUse">
      <stop offset="0" stop-color="#fff" stop-opacity=".6"/>
      <stop offset=".01" stop-color="#fff" stop-opacity=".61"/>
      <stop offset=".09" stop-color="#fff" stop-opacity=".61"/>
      <stop offset=".33" stop-color="#fff" stop-opacity=".7"/>
      <stop offset=".8" stop-color="#fff" stop-opacity=".9"/>
      <stop offset="1" stop-color="#fff"/>
    </linearGradient>
  </defs>
  <path fill="url(#a)" d="M471.71 192.12 372.34 19.87A39.76 39.76 0 0 0 337.89 0H139.15a39.76 39.76 0 0 0-34.39 19.87L5.33 192.12a39.7 39.7 0 0 0 0 39.75l99.37 172.24A39.73 39.73 0 0 0 139.15 424h198.74a39.73 39.73 0 0 0 34.38-19.87l99.37-172.24a39.75 39.75 0 0 0 .07-39.77Z"/>
  <path fill="url(#b)" d="M324.36 109 106 193.19c-14.9 6-14.82 14.3-2.72 18l54.46 17 20.84 63.88c2.53 7 1.28 9.77 8.62 9.77 5.67 0 8.18-2.59 11.34-5.67 2-2 13.92-13.55 27.22-26.48l56.65 41.85c10.42 5.75 17.95 2.77 20.55-9.68l37.18-175.22c3.86-15.27-5.81-22.19-15.78-17.64ZM166.3 224.28 289 146.84c6.13-3.71 11.75-1.72 7.13 2.38l-105.1 94.83L187 287.7Z"/>
</svg>
