<svg version="1.2" xmlns="http://www.w3.org/2000/svg" viewBox="0 0 768 441" width="768" height="441">
	<style>
		.s0 { fill: #ffffff } 
		.s1 { stroke: #ffffff;stroke-width: 4;stroke-linejoin: round;;fill: #ffffff } 
	</style>
	<path id="Sunset" class="s0" aria-label="SUNSET"  d="m103.4 270.2q-24.2-7.1-27.1-23.9-0.6-3.7-0.2-7.8l0.4-4.6q2.2-23 37.5-28.9l61.5-10.3-6.6 23.7-48.4 8.2q-8.8 1.4-9.6 10.6 0 0.8 0.1 1.5 1.4 8.4 28.6 16.3 24.2 7.2 27 24 0.6 3.6 0.2 7.7l-0.4 4.6q-2.2 23-37.5 28.9l-61.6 10.3 2.3-23 52.8-8.8q8.8-1.5 9.7-10.7 0-0.8-0.1-1.5-1.4-8.4-28.6-16.3zm120.4-83.6l-4.3 46q-1.8 18.7 0.1 30 3.2 19.2 17 16.9 22-3.7 26.8-54.3l4.4-46 35.2-5.9-4.4 46q-7 73.6-64.2 83.2-43 7.2-49.7-32.7-2.2-13.1-0.4-31.3l4.2-46zm198-33.2l-11.4 119.6-35.2 5.9 2.6-27.6-30.8-40.1-7 73.6-35.2 5.9 11.4-119.6 35.2-5.9 30.8 40.1 4.4-46zm37.9 57q-24.3-7-27.1-23.9-0.6-3.7-0.2-7.7l0.4-4.6q2.2-23 37.5-28.9l61.5-10.3-6.6 23.7-48.4 8.1q-8.8 1.5-9.6 10.7-0.1 0.7 0 1.4 1.5 8.5 28.7 16.4 24.1 7.2 26.9 24 0.6 3.6 0.2 7.6l-0.4 4.6q-2.2 23-37.4 29l-61.6 10.3 2.3-23 52.8-8.9q8.8-1.5 9.7-10.7 0-0.7-0.1-1.4-1.4-8.5-28.6-16.4zm177.6-93.1l-6.6 23.7-52.8 8.8-2.2 23 39.6-6.6-6.6 23.7-35.2 5.9-2.6 27.6 57.2-9.6-2.2 23-92.4 15.5 11.5-119.6zm118.7-19.9l-6.6 23.8-30.8 5.1-9.2 96.6-37 24.3 11-115-35.2 5.9 2.3-23z"/>
	<path id="NIMIQ" class="s1" aria-label="NIMIQ"  d="m108.7 205.3l35-5.7 18.1-64.2 36.4 55.2 31-5.1 33-117.1-35 5.8-17.5 61.9-35.1-53.3-33 5.5zm133-21.9l35.5-5.9 33-117-35.6 5.8zm48-7.9l34.7-5.7 18.8-66.9 19.7 40.2 0.7-0.1 45.5-51.2-18.9 67.2 35.2-5.8 33-117.1-37.4 6.2-43.2 50.3-17.7-40.3-37.4 6.2zm148.1-24.4l35.5-5.9 33-117-35.6 5.8zm164.1-23.6l23-21.2-10.3-8c10-10.8 17.3-23.1 20.8-35.5l0.1-0.3c9.5-33.6-12.1-55.8-51.5-49.3-39.4 6.5-76.6 38.6-86.1 72.2l-0.1 0.4c-9.5 33.6 12.1 55.7 51.5 49.2 14.6-2.4 29-8.4 41.8-16.7zm-44.1-21.3c-19.5 3.2-28.4-9.5-23.7-26.4l0.1-0.4c4.8-16.9 21.9-33.7 41.2-36.9 19.7-3.2 28.8 9.5 24 26.5l-0.1 0.4c-1.1 4-2.9 7.9-5.4 11.7l-13.3-11.5-23 21.3 13.8 11c-4.2 1.9-8.9 3.5-13.6 4.3z"/>
	<path id="cyberspace" class="s0" aria-label="cyberspace"  d="m78.4 322.2q0 0 0.3 0.4 0 0.5-0.1 1.4 0.1 0.6 0.1 1-3.2 10.8-3.3 11.7-0.7 1.8-2.4 2.2-0.2 0.2-1 0.5-0.6 0.3-0.8 0.3-0.4 0.3-1.3 0.6-0.8 0.1-1.2 0.3-1.1 0.4-1.7 0.9-2.2 1.3-4.8 1.6-0.6 0.3-1.7 0.8-0.6 0.5-1.7 0.4-0.9-0.3-1.4-0.9 0-0.3 0.2-0.7 0.5-1.6 1.3-4.1 1-2.5 1.4-3.1 0-0.3 0.3-1.2-0.6 0.5-0.6 0.5-9.1 12.3-14.1 22.8-7 15.3-9 29.2-1.3 8.4-0.7 14.2 0.1 0.4 1.3 7.9 0.2 0 0.4-0.1 2.4-2.4 2.4-2.4 8.4-10.9 13.7-19.7 3.5-5.8 4.4-8 0 0 0.3-0.7 0 0 1.3 1.6 1.2-0.6 1.6-0.9 0.1 0.3 0.1 0.9-0.1 0.5-0.1 0.7 0.6-0.5 0.8-0.8 0.2 0.2 0.7 0.4 0.4 0.2 0.7 0.4 0.4 0.1 0.9 0.5 0.6 0.2 0.9 0.3 0.4-0.2 1.4-1 0 0.2-0.2 0.7 0.1 0.4-0.1 0.9 0 0.2 0.1 0.6 0.4-0.5 1.4-1.2 0.1 0.6-0.1 1.5 1.3 0.1 1.7-0.6 0.2 0.2 0.7 0.4 0.7 0.1 0.9 0.3 0.4 0.2 0.7 0.4 0.4 0.1 0.7 0.5 0.3 0.4 0.3 0.9 0.4-0.3 1-0.6 0.7-0.3 0.8-0.5-0.8 2.7-0.8 2.7-3.3 6.9-13.5 21.4-4 5.6-7.6 8.6-3.7 3.5-7.6 3.5-1.1-0.1-3.2-0.8-1.7-0.5-5.1-1.8-5-1.7-7-2.5-3.7-1.4-6.5-5.9-1.6-2.2-2.7-6.8-0.1-0.5-0.9-4.5-0.1-0.9-0.3-2.4 0.1-1.5 0-2.4 0-0.4 0-0.4 0.6-6.6 0.5-6.8 2-18.4 11.7-37.5 6.1-11.7 16.6-19.5 3.8-2.8 12.3-6.6 3.1-1.4 5.7-1 0.9 0.1 3.7-0.6 0.8-0.1 1.2-0.2 4.5 0.7 4.9 0.8 1.5 0.1 2.1 1.5zm-5.6 0.6q0 0 0.2 0.4 0.1 0.5-0.1 1.4 0.1 0.6 0.2 1-3.2 10.8-3.4 11.7-0.6 1.8-2.3 2.2-0.2 0.2-1.1 0.5-0.6 0.3-0.8 0.3-0.4 0.3-1.2 0.6-0.9 0.1-1.3 0.4-1.1 0.3-1.7 0.8-2.2 1.3-4.8 1.6-0.6 0.3-1.6 0.8-0.6 0.5-1.7 0.4-0.9-0.3-1.4-0.9 0-0.3 0.1-0.7 0.5-1.6 1.3-4 1.1-2.5 1.4-3.2 0-0.3 0.3-1.2-0.6 0.5-0.6 0.5-9.1 12.3-14 22.8-7.1 15.3-9.1 29.2-1.3 8.4-0.6 14.2 0 0.4 1.2 7.9 0.3 0 0.5-0.1 2.3-2.4 2.3-2.4 8.4-10.9 13.8-19.7 3.5-5.8 4.3-8 0 0 0.4-0.7 0 0 1.2 1.6 1.3-0.6 1.7-0.9 0 0.3 0.1 0.9-0.2 0.5-0.2 0.7 0.6-0.5 0.8-0.8 0.3 0.2 0.7 0.4 0.5 0.2 0.7 0.4 0.4 0.1 0.9 0.5 0.7 0.2 0.9 0.3 0.4-0.2 1.4-1 0.1 0.2-0.1 0.7 0 0.4-0.1 0.9 0 0.2 0 0.6 0.4-0.5 1.4-1.2 0.1 0.6 0 1.5 1.3 0.1 1.6-0.6 0.3 0.2 0.7 0.4 0.7 0.1 0.9 0.3 0.5 0.2 0.7 0.4 0.5 0.1 0.7 0.5 0.3 0.4 0.3 0.9 0.4-0.3 1.1-0.6 0.6-0.3 0.8-0.5-0.8 2.7-0.8 2.7-3.4 6.9-13.6 21.4-3.9 5.7-7.5 8.6-3.8 3.5-7.7 3.5-1.1-0.1-3.1-0.8-1.8-0.5-5.2-1.8-5-1.7-7-2.5-3.6-1.4-6.5-5.9-1.5-2.2-2.7-6.8 0-0.5-0.9-4.5-0.1-0.9-0.2-2.4 0-1.5-0.1-2.4 0-0.4 0-0.4 0.6-6.6 0.6-6.8 1.9-18.4 11.6-37.5 6.1-11.7 16.6-19.5 3.8-2.8 12.3-6.6 3.1-1.4 5.8-1 0.9 0.1 3.6-0.6 0.9-0.1 1.3-0.2 4.4 0.7 4.8 0.8 1.6 0.1 2.2 1.5zm77.9-10.4l0.1 0.2q-0.2 0.7-0.9 2.5-1.1 3.8-1.7 5.8-1.9 6.7-6.6 20.2-2.5 7-3.8 10.7-2 6-5.7 18.1l-0.6 2.1q-4.7 15.7-7.7 26-2.8 10-4.6 17.8-1.7 6.9-2.1 15.4l0.1 0.3-1.5 0.5q-2.7 1-4 1.3-0.2 0.1-0.4 0.1 0 0 0 0-0.2 0-0.6 0.3-1.2 0.8-1.7 0.4-0.4 0-0.9 0.3-0.6 0.3-1-0.1-0.3 0-0.7 0.3-0.2 0-0.4 0.4 0.1 0.2-0.6 0.5-0.2 0.1-0.1 0.3-0.3 0-0.9 0.3l-0.2 0.2-1.3 0.1-0.3-0.8q-0.4 0.3-0.8 0.5 0 0.2-0.2 0.3l0.1 0.2-0.9 0.1-0.1-0.5q0-0.2 0-0.6-0.3-0.8-0.4-1.3 0.6-10.5 3.8-21.4 2.1-7.4 6.3-22.2 1.8-6 2.9-9.9 0.2-0.4 0.3-1.3v-0.2q-0.9 0.3-1.1 0.3-4.7 1-8.5-2.1-0.7-1-2.2-3-1.5-2-2.1-2.9-6.4-13.2-8.5-21-0.7-2.1-1.4-6.8-0.7-4.9-1.4-7.4-0.2-1.7-0.4-3.2 0.2-0.9-0.5-1.3l0.8-2.9 0.9 0.3q0 0 0.5-0.9 1.3-2.1 2.1-3.2 0.3-0.7 1.4-0.8 0.4-0.1 1.1 0.1 0.4 0.1 0.4 0.1l0.3 0.2q0.2-0.2 0.1-0.6 0.2-0.5 0.4-0.5 0.7-1.8 2.6-2.2 0.8-0.8 2.1-0.7 1.3 0.1 2 0.9 1.4 0.7 1.4 2.4 0.2 1.7 0.4 5.8-0.4 4.6 1.1 12.3 2.3 14.1 7.6 20.7 0.7 0.8 1.8 0.7 1.4 1.1 3.2 1.8l0.4-0.7q0.5-1.4 0.7-2 0.8-2.3 2.4-7.2 4-11.5 6-17.2 1.2-3.6 3.6-11 1.1-3.8 2-6.1 0.1-0.8 0.8-2.4 0.5-1.6 0.8-2.5 0.5-1.6 2.1-1.3 1.5 0 2.2-1.1l0.2-0.3 1 0.8 2.6-1.8 0.3 0.6q0.6 0 1.2-0.5 2.5-1.2 3.6-1.5 2.3-0.5 3.1 1.2zm-5.6 0.6v0.2q-0.1 0.7-0.8 2.5-1.1 3.8-1.8 5.8-1.9 6.7-6.5 20.2-2.5 7-3.9 10.7-1.9 6-5.6 18.1l-0.7 2.1q-4.6 15.7-7.7 26-2.8 10-4.6 17.8-1.6 6.9-2 15.4v0.3l-1.4 0.6q-2.8 0.9-4 1.2-0.2 0.1-0.5 0.1 0 0 0 0-0.2 0-0.6 0.3-1.2 0.8-1.7 0.4-0.4 0-0.8 0.3-0.6 0.3-1.1-0.1-0.2 0-0.6 0.3-0.2 0-0.4 0.4 0 0.2-0.6 0.5-0.2 0.1-0.2 0.3-0.2 0-0.8 0.3l-0.2 0.2-1.3 0.1-0.3-0.8q-0.4 0.3-0.8 0.5 0 0.2-0.2 0.3v0.2l-0.9 0.1v-0.5q0-0.2-0.1-0.6-0.3-0.8-0.3-1.3 0.6-10.4 3.8-21.4 2-7.4 6.3-22.2 1.7-6 2.8-9.9 0.2-0.4 0.3-1.3v-0.2q-0.8 0.3-1 0.3-4.7 1-8.5-2.1-0.8-1-2.3-3-1.5-2-2-2.8-6.4-13.3-8.6-21.1-0.6-2.1-1.3-6.8-0.8-4.9-1.5-7.4-0.2-1.7-0.3-3.2 0.1-0.9-0.6-1.3l0.8-2.9 0.9 0.4q0 0 0.6-1 1.2-2.1 2-3.2 0.4-0.7 1.4-0.8 0.5-0.1 1.1 0.1 0.5 0.1 0.5 0.1l0.2 0.2q0.2-0.2 0.2-0.6 0.1-0.5 0.3-0.5 0.7-1.8 2.6-2.2 0.8-0.8 2.1-0.7 1.3 0.1 2.1 0.9 1.4 0.7 1.3 2.4 0.2 1.7 0.4 5.8-0.4 4.6 1.1 12.3 2.4 14.1 7.6 20.7 0.8 0.8 1.8 0.7 1.5 1.1 3.3 1.8l0.3-0.7q0.5-1.4 0.7-2 0.8-2.3 2.5-7.2 4-11.5 6-17.2 1.1-3.6 3.6-11 1.1-3.8 1.9-6.1 0.2-0.8 0.9-2.4 0.4-1.6 0.8-2.5 0.5-1.6 2-1.3 1.5 0 2.3-1.1l0.2-0.3 0.9 0.8 2.7-1.8 0.2 0.6q0.7 0 1.3-0.5 2.5-1.2 3.5-1.5 2.3-0.5 3.2 1.2zm88.7 33.1q0.5 0.8-0.2 2.2-1.1 2.3-2.1 3.2-3.6 4.3-6.4 7-5.5 5.4-11.2 10.8-4.8 4.4-14.5 13.2l-0.8 0.6q-12.3 11-24.7 24.7-1 1-2.7 3.1-0.8 1-1.1 1.5-0.8 0.9-1.4 1.2l-0.7 0.3 1.1-4q-0.2-0.4-0.2-0.7l-0.4 0.5q-0.2 0.3-0.8 0.8-0.2 0.2-0.2 0.4l-0.2 0.2-1.6-0.7-0.1-1.5q-0.3-0.2-0.5-0.1-0.2-0.2-0.6 0.3-0.2 0.2-1 0.7-0.4 0.5-0.6 0.5l-0.4 0.5-0.1-0.7q0-0.2 0-0.6-0.3-0.4-0.1-0.6 0.1-1.4-0.6-1.5-0.9-0.1-2.3-1.5-0.5-0.4-0.5-0.6-0.5-0.2-0.9-0.1-0.2 0-0.2 0l-0.2-0.2q-1-1-0.3-2.1 0.2-0.3 0.6-1l0.2-0.2q1.1-1.4 1.1-3.2 0.2-6.5 2.1-19.1 0.5-2 1.1-6.2 0.1-0.8 0.7-3.5 0-0.2 0.1-1.5 0.2-1.8 0.6-2.7-0.1-0.2-0.1-1.1l-1.9 0.9-0.1-0.5q0-0.2-0.3-0.8-0.4-1.7-1.1-2.3-0.2-0.4-0.4-1.7 0-2.6-1.8-3.2l-0.3-0.2q0-0.5-0.1-0.9-0.1-0.9-0.3-1 0-0.3-0.9-0.4-0.2 0-0.4 0.1l-0.5-0.2 0.2-0.2q0-0.5 0.2-0.7 0.3-1.1 0.7-1.6 0.1-0.5 0.9-1l0.8-0.5q6.1-4.1 9-5.9 0.8-0.6 0.9-1.4l2.1-9.2q1.6-7.3 3-14v-0.2q-0.8 0.3-2.3 1.1-0.8 0.3-1 0.6-0.8 0.3-2.7 1.3-0.6 0.3-1.2 0.6h-0.2l-0.3-0.2q0-0.2 0-0.4-0.3-0.6-0.3-0.6 0 0-0.4 0-0.2 0.1-0.4 0.1h-0.5l-0.1-1q-0.6 0-1.4-1-0.2-0.2-0.4-0.2-0.3-0.4-1-1.2l-0.7-0.5-0.1-0.9q-0.5 0.1-1-0.8-0.2-0.4-0.5-0.3-1.7-0.3-2.6-2.6 0-0.2-0.5-0.4v-0.2q-0.2 0-0.5-0.1-0.2-0.2-0.2-0.2h-0.2v-0.2q0.1-1.1 1.1-1.7h0.2q2.7-1.6 8-4.3l1.2-0.8q2.9-1.6 9-3.3 1.9-0.5 3-0.8 4.2-1.3 11.8-3 2.1-0.4 6.2-0.6 4.7-0.6 7.8-0.4 3.3 0 6.8 0.5 3.1 0.6 5.3 3.2 0.5 0.8 1.7 2 0.7 0.3 1 0.5 0.5 0.8 1.7 1.8 2.8 2.5 4.1 3.9 3.7 4.1 2.3 9.7-1.1 4.3-5 8.4-2.9 2.9-9.3 7.7l-0.6 0.5q0 0 0.2 0 1.5-0.4 2.1-0.7 3.6-0.6 6.8-1.1 2.8-0.6 3.7 1.9 0 0.3 0.2 0.2 0.7 0.4 1.9 1.6 1 1 1.5 1.3 0 0 0.2 0 0.4 0.2 0.5 0.4 0.3 0.8 1.7 2 0.7 0.8 1.2 1.2 0 0.2 0.2 0.2 0.3 0.4 0.3 0.4 1.1 0.5 2 2.6 0 0 0.1 0.4zm-25.3 4.9q0.9-1 0.4-1.8-0.2-0.4-0.5-0.4-0.2 0-0.6 0.3-0.2 0-0.2 0l-1.7 0.6q-6.7 2.5-10 3.7-2.9 1.2-8.1 3.2-2.7 1.2-4.4 1.8-0.4 0.3-1.3 0.4-1.5 0.1-3.6 2.1-0.4 0.2-0.6 0.5 0 0-0.2 0.9l-0.1 0.2q-1.9 9.3-3.9 20.8-0.2 0-0.2 0.5 0.4-0.3 0.4-0.3 1.2-1.2 1.8-1.7 5.9-5.6 10.3-9.6 12-11.2 16-14.9 3.3-3.2 6.5-6.3zm-8.7-22.3q5.1-4.7 9.1-8.4 3.5-3.6 5.2-7.9 0.2-0.5 0.4-0.9l-0.1-0.3q0.2-0.8-0.3-1.2 0 0-0.5 0-0.4 0.1-1 0.1-1.1 0.4-1.7 0.4-2.6-0.1-5.6 0.2-6.1 0.6-15.4 2.9l-0.4 0.1q-1.3 0.3-1.7 0.6-0.2 0.2-0.3 1.1-0.1 0.7-0.3 1.3-1 4.7-3 14-1 3.6-1.2 5.6-0.2 0-0.2 0.5-0.3 1.1 0 1.5 0.5 0.4 1.3-0.2 0.2 0 0.4-0.2 6.6-3.5 10.6-5.9 2.3-1.4 4.7-3.3zm28.3 18q0.5 0.8-0.2 2.2-1.1 2.3-2 3.3-3.7 4.2-6.5 6.9-5.5 5.4-11.2 10.8-4.7 4.4-14.4 13.2l-0.8 0.6q-12.3 11-24.7 24.7-1 1-2.8 3.1-0.7 1-1.1 1.5-0.8 0.9-1.4 1.2l-0.6 0.3 1.1-4q-0.3-0.4-0.3-0.7l-0.4 0.5q-0.2 0.3-0.8 0.8-0.2 0.2-0.1 0.4l-0.2 0.2-1.6-0.7-0.2-1.5q-0.2-0.1-0.4-0.1-0.3-0.2-0.7 0.3-0.2 0.2-1 0.7-0.4 0.5-0.6 0.5l-0.4 0.5v-0.7q0-0.2-0.1-0.6-0.3-0.4-0.1-0.6 0.1-1.4-0.5-1.5-0.9-0.1-2.4-1.5-0.5-0.4-0.5-0.6-0.4-0.2-0.9-0.1-0.2 0-0.2 0l-0.2-0.2q-1-1-0.2-2.1 0.2-0.3 0.5-1l0.2-0.2q1.2-1.4 1.2-3.2 0.2-6.5 2.1-19.1 0.4-2 1.1-6.2 0.1-0.8 0.7-3.5-0.1-0.2 0-1.5 0.3-1.8 0.6-2.7 0-0.2-0.1-1.1l-1.9 0.9v-0.5q0-0.2-0.3-0.8-0.4-1.7-1.1-2.3-0.3-0.4-0.4-1.7-0.1-2.6-1.9-3.2l-0.2-0.2q-0.1-0.5-0.1-0.9-0.1-0.8-0.4-1 0-0.3-0.9-0.4-0.2 0-0.4 0.1l-0.4-0.2 0.1-0.2q0-0.5 0.2-0.7 0.3-1.1 0.7-1.6 0.2-0.5 1-1l0.8-0.5q6.1-4.1 8.9-5.9 0.8-0.6 0.9-1.4l2.1-9.2q1.6-7.3 3.1-14v-0.2q-0.9 0.3-2.3 1.1-0.8 0.3-1 0.6-0.9 0.3-2.7 1.3-0.6 0.3-1.3 0.6h-0.2l-0.2-0.2q0-0.2-0.1-0.4-0.2-0.6-0.2-0.6 0 0-0.5 0-0.2 0.1-0.4 0.1h-0.4l-0.1-1q-0.7 0-1.4-1-0.3-0.2-0.5-0.2-0.3-0.4-1-1.2l-0.7-0.5-0.1-0.9q-0.4 0.1-0.9-0.8-0.3-0.4-0.5-0.3-1.8-0.3-2.7-2.6 0-0.2-0.5-0.4v-0.2q-0.2 0-0.4-0.1-0.3-0.2-0.3-0.2h-0.2v-0.2q0.1-1.1 1.1-1.7h0.2q2.7-1.6 8-4.3l1.3-0.8q2.8-1.6 8.9-3.3 2-0.5 3-0.8 4.2-1.3 11.8-3 2.2-0.4 6.3-0.6 4.7-0.5 7.7-0.4 3.3 0 6.8 0.5 3.1 0.6 5.3 3.2 0.6 0.8 1.8 2 0.7 0.3 0.9 0.5 0.5 0.8 1.7 1.8 2.9 2.5 4.1 3.9 3.7 4.1 2.4 9.7-1.1 4.3-5 8.4-3 2.9-9.4 7.7l-0.6 0.5q0 0 0.2 0 1.5-0.4 2.1-0.7 3.6-0.6 6.8-1.1 2.8-0.6 3.7 2 0.1 0.2 0.3 0.1 0.7 0.4 1.9 1.6 0.9 1 1.4 1.3 0 0 0.2 0 0.5 0.2 0.5 0.4 0.3 0.8 1.7 2 0.8 0.8 1.2 1.2 0.1 0.2 0.3 0.2 0.2 0.4 0.2 0.4 1.2 0.5 2.1 2.6 0 0 0 0.4zm-25.3 4.9q1-1 0.5-1.8-0.3-0.4-0.5-0.4-0.2 0-0.6 0.3-0.3 0-0.3 0l-1.6 0.6q-6.7 2.5-10.1 3.7-2.9 1.2-8.1 3.2-2.7 1.2-4.3 1.8-0.5 0.3-1.3 0.4-1.5 0.1-3.7 2.1-0.4 0.2-0.6 0.5 0 0-0.1 0.9l-0.2 0.2q-1.8 9.3-3.9 20.8-0.2 0-0.1 0.5 0.4-0.3 0.4-0.3 1.1-1.2 1.7-1.7 6-5.6 10.3-9.6 12.1-11.2 16-14.9 3.4-3.2 6.5-6.3zm-8.7-22.3q5.2-4.7 9.1-8.4 3.5-3.6 5.3-7.9 0.1-0.5 0.3-0.9v-0.3q0.1-0.8-0.4-1.2 0 0-0.4 0-0.4 0.1-1.1 0.1-1 0.4-1.7 0.4-2.6-0.1-5.6 0.2-6 0.6-15.3 2.9l-0.5 0.1q-1.2 0.3-1.6 0.6-0.2 0.2-0.3 1.1-0.2 0.7-0.3 1.3-1.1 4.7-3.1 14.1-0.9 3.5-1.1 5.5-0.3 0-0.2 0.5-0.3 1.1-0.1 1.5 0.5 0.4 1.3-0.2 0.2 0 0.4-0.2 6.6-3.5 10.7-5.9 2.2-1.4 4.6-3.3zm126.6-28.7q0.5 0.2 0.3 0.8 0.1 0.5-0.3 0.5 0 0.2-0.4 0.3 0 0-0.3 0 0 0 0 0-3.8 0.8-7.5 2.3 0 0 0 0.2 1.5-0.1 7.7-1.2 0.4-0.1 0.5 0.6 0.3 0.6-0.4 0.9-0.2 0-1.6 0.6 0.1 0.8-0.6 1.1-1.9 0.4-4.2 1.3 0.1 0.5-0.1 0.5-1.2 1-2.7 1.8-0.2 0.2-0.4 0.3 0 0-0.4 0.2-0.6 0.1-0.8 0.3 0 0-0.2 0-8.2 2.4-11 3.2-9.9 3-22.2 9.5-1.4 0.8-4.1 2.2-2.7 1.1-3.7 1.7-3.8 1.7-7 4.2-1.2 1-4.2 2.6-1.9 1.1-3.2-1.2-1-1.4-0.1-3 1.8-3 3.2-4.7 0-0.2 0.8-2.5 0.2-0.2 0.4-0.7 0.1-0.4 0.1-0.6 0.2-0.3 0.3-0.9 0.2-0.7 0.4-1.1 0.8-2.3 1-2.5 0.6-0.5 1.7-2.6 0.9-1.8 3.1-3.2 1.4-0.8 3.9-2.3 2.6-1.8 3.8-2.6 0.7-0.3 0.8-0.8 0.4-0.6 1.2-1.2 0.6-0.2 3.5-1.9 0 0.3-0.2 0.5 0 0.2 0.1 0.4 4.5-1.8 4.8-1.8 9.3-3.8 19.8-5.6 1.7-0.4 3.8-0.8 0 0 0 0 0.4-0.1 0.5 0.4 0.6-0.1 1.5-0.2 0.6-0.1 0.5 0.6 0 0.7-0.4 0.9 0.7 0 1.3-0.1 0.4-0.1 0.5 0.4 2.4-0.3 4.5-0.7 0.4-0.1 0.7 0.5 0.3 0.7-0.4 1 0 0 0 0-1.8 0.8-3.9 1.9 1.5-0.4 2.8-0.3 0.5-0.1 0.5 0.4 4.1-0.5 6.3 0.4zm-11.4 23.3q0.7 0 0.5 0.9 0.1 0.6-0.3 0.6-0.2 0.1-0.8 0.4-0.5 0-0.7 0 0.2 0.2 0.1 0.7 0 0.4-0.2 0.4-3.4 1-5.2 1.7-0.2 0.2-0.2 0.2-0.4 0.3-0.8 0.5-0.5 0.1-0.7 0.1 0.2 0 2.8-0.7 0.4-0.1 0.6 0.3 0-0.2 0-0.2 0.7-0.1 0.7 0.4 0.5 0.1 0.5 0.8 0.1 0.4-0.3 0.7-0.4 0.2-2.3 0.9-0.6 0.3-0.6 0.3l0.2-0.1q0.4-0.2 0.7 0.4l-0.2 0.9q-0.2 0-0.6 0.3-0.4 0.2-0.8 0.5 0.7 0.6-0.1 1.1-0.2 0-0.4 0.2 0.6-0.2 0.9 0.4 0.1 0.6-0.3 0.9-0.2 0.2-0.8 0.5-0.5 0.3-0.6 0.5-0.3 0-0.5 0.3-2.6 1.3-4.9 2.7 0.1 0.4 0.1 0.6-5.7 1.9-5.7 1.9-0.6 0.1-2.5 0.9-1.9 0.7-2.9 1-2.5 1.1-4.8 2-0.2 0.2-0.4-0.2-0.7 0.3-1.7 0.9-1 0.5-1.6 0.8-1.3 0.6-2.7 1.1-1.5 0.6-3.4 1.5-1.6 0.6-2.7 1.1-0.4 0.1-0.5 0.8-0.6 1.1-2.7 9.1 0 0 0 0.3-0.4 0.9-0.5 1.7-0.1 0.5 0.1 0.9-0.2 0-0.2 0.2 0 0 0 0-0.5 1.2-0.7 1.9-0.1 0.2-0.1 0.6-0.5 1.4-0.7 2-0.1 0.7 0.2 1.1 0 0.2 0 0.2-0.1 1.1 0.8 1.5 2.2 0.8 5.3-1 5.2-0.6 16.8-7 2.9-1.6 5.2-2.8 0.2 0 0.4 0 3.1-1.4 5.8-2.6 0 0 0 0 0.2 0 0.4-0.2 0.2-0.1 0.4-0.1 2.7-1.1 5.9-2.1 0.8-0.3 1.2-0.6 0.7-0.3 1.1-0.3 1.8-1.1 2.5-1.4 0.8-0.5 1.7 0.1 1.2-0.8 2-1.1 0.6-0.5 1.1 0.1 0.7 0.3 0.6 1.2 0.1 0.7-0.5 1.2 0.3 1-0.5 1.3-1.1 0.6-1.9 1.1-0.2 0.2-0.4 0.5 0.6 0.8 0 1.7 1.1 1.8-0.3 3.3 0.1 1.1-0.7 1.6-0.2 0-0.4 0.2 0 0 0 0.3h-0.2q-1 0.7-2.2 1.5 0.1 0.9-0.5 1.4-0.4 0.5-0.8 0.9-0.2 0.1-0.2 0.3 0 1.5-1 2.3-0.7 0.2-2.5 1.5-0.1 0.5-0.5 0.9-2 2.2-4.6 2-1.4 0.6-2.7 1.4 0.1 0.2-0.1 0.5-0.2 0.4-0.6 0.7-0.8 0.3-2.3 1.1-0.4 0-0.6 0.1-0.2 0-1 0.5-0.9 0.3-1.3 0.6-0.4 0-0.8 0.1-7.1 3.1-14.4 6-1.2 0.4-4.1 1.8-2.7 1.1-4.4 2-1.6 0.6-4.2 1.3-2.5 0.7-4.7 0.9-3.2 0.1-6.2-1.5-3-1.8-3.6-5.5-0.1-0.4-0.1-1.3-0.3 0.1-0.3 0.1 0-0.2 0-0.7 0.1-0.4-0.1-0.8 0.5-2.9 0.9-5.3 0.2-0.3 0.2-0.5 0.2-0.4 0.1-0.7 0.4-2.4 1.1-4.6 1-7.1 3.3-13.4 0.2-0.3 0.2-0.7 0.1-0.6 0.3-0.7-3.5 1.5-6.6 2.9 0.2-0.2 0.8-2.3 0.7-2 1.2-2.9 0.6-0.9 1.6-1.5 0.6-0.5 0.8-1.1 0.2-0.3 0.1-1.1-0.3-0.9 0.3-1.2 0.6-0.5 1.8-1.5 1.2-0.9 1.8-1.4 1.2-1 2.2-3.5 0-0.3 0.7-1.2 0 0 0 0 0.2-0.2 0.2-0.2 3.4-3.4 8.6-5.3 2.7-1.2 6.8-3.1 0.6-0.3 1.5-0.8 1-0.6 1.6-0.8 8.1-3.9 13.6-5 4-1.5 8.1-1.7 0.2 0 0.4 0.2 1.1-0.3 1.9-0.7 3.8-1.2 7.1-2.2 0.4-0.3 0.7 0.1 0.3 0.8-0.3 1.1-0.2 0.3-0.4 0.3 2.3-0.7 4.6-1.2zm5.8-22.7q0.4 0.2 0.3 0.8 0 0.5-0.4 0.5 0 0.2-0.4 0.3 0 0-0.2 0 0 0 0 0-3.8 0.8-7.6 2.3 0 0 0 0.2 1.5-0.1 7.7-1.2 0.4-0.1 0.5 0.6 0.3 0.6-0.3 0.9-0.2 0-1.7 0.6 0.1 0.8-0.5 1.1-1.9 0.4-4.2 1.3 0 0.5-0.2 0.5-1.2 1-2.6 1.8-0.2 0.2-0.4 0.3 0 0-0.4 0.2-0.7 0.1-0.9 0.3 0 0-0.2 0-8.2 2.4-10.9 3.2-9.9 3-22.3 9.5-1.4 0.8-4.1 2.2-2.7 1.1-3.7 1.7-3.7 1.7-6.9 4.2-1.2 1-4.3 2.6-1.8 1.1-3.2-1.2-1-1.4-0.1-3 1.9-3 3.2-4.7 0-0.2 0.8-2.5 0.2-0.2 0.4-0.7 0.2-0.4 0.1-0.6 0.2-0.3 0.4-0.9 0.1-0.7 0.3-1.1 0.8-2.3 1-2.5 0.6-0.5 1.7-2.6 0.9-1.8 3.2-3.2 1.4-0.8 3.8-2.3 2.7-1.8 3.9-2.6 0.6-0.3 0.8-0.8 0.3-0.6 1.1-1.2 0.7-0.2 3.5-1.9 0.1 0.3-0.1 0.5 0 0.2 0 0.4 4.6-1.8 4.8-1.8 9.4-3.8 19.8-5.6 1.7-0.4 3.8-0.8 0 0 0 0 0.5-0.1 0.5 0.4 0.7-0.1 1.5-0.2 0.7-0.1 0.5 0.6 0.1 0.7-0.3 0.9 0.6 0 1.3-0.1 0.4-0.1 0.4 0.4 2.4-0.3 4.5-0.7 0.4-0.1 0.7 0.5 0.3 0.7-0.3 1 0 0 0 0-1.9 0.8-3.9 1.9 1.5-0.4 2.8-0.3 0.4-0.1 0.4 0.4 4.1-0.5 6.4 0.4zm-11.4 23.3q0.6 0 0.5 0.9 0.1 0.6-0.4 0.7-0.2 0-0.8 0.3-0.4 0-0.6 0 0.2 0.2 0 0.7 0.1 0.4-0.1 0.4-3.4 1-5.3 1.7-0.2 0.2-0.2 0.2-0.4 0.3-0.8 0.5-0.4 0.1-0.6 0.1 0.2 0 2.7-0.7 0.4-0.1 0.7 0.3 0-0.2 0-0.2 0.6-0.1 0.7 0.4 0.4 0.1 0.5 0.8 0 0.4-0.4 0.7-0.4 0.2-2.3 0.9-0.6 0.3-0.6 0.3l0.2-0.1q0.4-0.2 0.7 0.4l-0.1 0.9q-0.2 0-0.6 0.3-0.4 0.2-0.9 0.5 0.8 0.6-0.1 1.1-0.2 0-0.4 0.2 0.7-0.2 0.9 0.4 0.1 0.6-0.3 0.9-0.2 0.2-0.8 0.5-0.4 0.3-0.6 0.5-0.2 0-0.4 0.3-2.7 1.3-4.9 2.7 0 0.4 0 0.6-5.6 1.9-5.6 1.9-0.7 0.1-2.5 0.9-1.9 0.7-3 1-2.5 1.1-4.7 2-0.2 0.2-0.5-0.2-0.6 0.3-1.6 0.9-1.1 0.5-1.7 0.8-1.2 0.6-2.7 1.2-1.4 0.5-3.3 1.4-1.7 0.6-2.7 1.1-0.4 0.1-0.6 0.8-0.5 1.1-2.7 9.1 0 0 0 0.3-0.3 0.9-0.4 1.8-0.2 0.4 0.1 0.8-0.3 0-0.2 0.2 0 0 0 0-0.6 1.2-0.7 1.9-0.2 0.2-0.2 0.6-0.5 1.4-0.6 2-0.2 0.7 0.1 1.1 0 0.2 0 0.2-0.1 1.1 0.8 1.5 2.3 0.8 5.3-1 5.2-0.6 16.9-7 2.9-1.6 5.1-2.8 0.2 0 0.5 0 3.1-1.4 5.8-2.6 0 0 0 0 0.2 0 0.4-0.2 0.2-0.1 0.4-0.1 2.7-1.1 5.8-2.1 0.9-0.3 1.3-0.6 0.6-0.3 1-0.3 1.9-1.1 2.5-1.4 0.8-0.5 1.7 0.1 1.3-0.8 2.1-1.1 0.6-0.5 1.1 0.1 0.7 0.3 0.6 1.2 0 0.7-0.6 1.2 0.4 1-0.5 1.3-1 0.6-1.8 1.1-0.2 0.2-0.4 0.5 0.5 0.8 0 1.7 1 1.8-0.3 3.3 0.1 1.1-0.7 1.6-0.3 0-0.4 0.3 0 0 0 0.2h-0.2q-1 0.7-2.3 1.5 0.1 0.9-0.5 1.4-0.4 0.5-0.7 0.9-0.3 0.1-0.2 0.3-0.1 1.5-1.1 2.3-0.6 0.2-2.4 1.5-0.2 0.5-0.6 0.9-1.9 2.2-4.5 2.1-1.5 0.5-2.7 1.3 0 0.2-0.2 0.5-0.2 0.4-0.6 0.7-0.8 0.3-2.2 1.1-0.5 0-0.7 0.1-0.2 0-1 0.5-0.8 0.3-1.2 0.6-0.5 0-0.9 0.1-7 3.1-14.3 6-1.3 0.4-4.2 1.8-2.7 1.2-4.3 2-1.7 0.6-4.2 1.3-2.6 0.7-4.7 0.9-3.3 0.2-6.2-1.5-3.1-1.8-3.7-5.5 0-0.4-0.1-1.2-0.2 0-0.2 0 0-0.2-0.1-0.7 0.2-0.4-0.1-0.8 0.6-2.9 1-5.3 0.2-0.3 0.1-0.5 0.2-0.4 0.2-0.7 0.4-2.4 1-4.6 1-7.1 3.4-13.4 0.2-0.3 0.1-0.7 0.2-0.6 0.4-0.7-3.6 1.5-6.7 2.9 0.2-0.2 0.9-2.3 0.6-2 1.2-2.9 0.5-0.9 1.6-1.5 0.6-0.5 0.7-1.1 0.2-0.3 0.1-1.1-0.3-0.9 0.3-1.2 0.6-0.5 1.8-1.4 1.2-1 1.8-1.5 1.2-1 2.2-3.5 0-0.3 0.8-1.2 0 0 0 0 0.2-0.2 0.2-0.2 3.3-3.4 8.5-5.3 2.7-1.1 6.9-3.1 0.6-0.3 1.4-0.8 1-0.6 1.6-0.8 8.1-3.9 13.6-5 4-1.5 8.1-1.7 0.2 0 0.4 0.2 1.1-0.3 1.9-0.7 3.8-1.2 7.2-2.2 0.4-0.3 0.6 0.1 0.3 0.9-0.3 1.1-0.2 0.3-0.4 0.3 2.3-0.7 4.7-1.2zm92.6-19.1q0.9 2.2 0.3 4.7-0.9 3.4-3.7 7.3-3.5 4.8-10.8 11.2-7.8 6.5-18.1 13.4-11.2 7.3-16.5 10.5 6.4 2.7 16.6 10.6 10.1 7.6 14.7 10.1 0.9 0.6 1 1.4 1.7 1.2 3.6 2.5 1.4 0.9 0.9 2.7 0.4 0 0.9 0.3 0.5 0.4 0.7 0.4 1.9 1.3 0.4 3.7 0.2-0.1 0.3 0.6 1 1.8-0.8 3.1-1.8 1.1-3.3-0.1-0.2 0-1.8-1.1 2.6 2.5 5 4.7 0 0-0.2 0 0 0 0-0.2-1.3-0.3-2.3 0.7-0.9-0.4-2.8-1.5-1.6-1.1-2.1-1.5-4-3.3-9.8-6.5-9.2-5.1-12.6-6.7-1.4-1-14.2-6.6-0.9-0.5-3-1.4 0 0-2.4 7.4-0.7 1.9-2.5 1-0.6 2.6-0.6 2.8-0.5 1.4-2.2 2-0.2 0-0.2 0-0.1 0.7-0.7 1.2-0.4 0.5-1.2 1-0.7 0.3-0.9 0.5-0.2 0-0.8 0.1-0.7 0.1-0.8 0.5 0 0-0.4 0.3-0.2 0.2-0.2 0.2-0.5 1.2-2 2 0 0-0.2-0.2-0.3-0.4-0.3-0.6-0.8 0.9-1.3 1.6-0.3-4.5-0.1-4.7 0-3.7 1.9-10.7 1.5-6.2 2.8-10.7-0.4-0.8-0.9-2.1-0.1-0.4-0.1-0.4-2-2.4-2.2-2.8-1-0.8-1.2-2.9 0-2.2 1.2-3.2 2.1-2.2 2.5-2.6 2.2-1.8 3.4-2.6 0.3 0 0.3 0l-0.1-0.2q0-0.2 0-0.4 0.4-2.5 1.2-4.9 0 0 0-0.3 0.6-3.9 1.3-8.1 0 0 0 0.2 0 0 0 0.2-0.4 0.3-0.8-0.1 1.1-3.6 2-7.6 0.7-5.1 1.5-10.2-1.5 0.2-1.2-1.4 0.4-4.1 0.9-7.2-0.2-0.2-0.5-0.4 0.2-0.2 0.8-1-0.7-0.1-2.5-0.8 0.4-1.1 0.4-1.1 0 0-1-0.6-0.7-0.5-0.8-1.4 0 0-0.5-0.4-0.7-0.5-0.7-0.5 0-0.5-0.3-3.1 3.9-1.9 4.1-1.9 6.7-2.9 10.2-4.1 8.4-3.3 12.2-4.6 1.9-0.4 8.5-1.1 4.5-0.3 8.7 0.4 4 0.8 8.3 2.3 2.7 1.1 6.5 6.3 2.6 3.4 4.6 6 2 2.4 3.9 6.6zm-14.5-2q0.2-0.2 2.5-3.5-1.9-0.9-7.1-1.4-5.3-0.5-10 0-4.3 0.2-15.9 4 0.1 0.3 0.1 0.3-2.3 15.4-5.7 30.7 13.3-9.4 23.6-17.4 7.1-6 12.5-12.7zm8.9 2.6q0.9 2.2 0.3 4.7-1 3.4-3.8 7.4-3.4 4.7-10.8 11.1-7.7 6.5-18.1 13.4-11.1 7.3-16.4 10.5 6.3 2.8 16.5 10.6 10.1 7.6 14.8 10.1 0.9 0.6 1 1.4 1.6 1.2 3.5 2.5 1.4 0.9 0.9 2.7 0.5 0 0.9 0.3 0.5 0.4 0.7 0.4 1.9 1.3 0.4 3.7 0.2-0.1 0.3 0.6 1.1 1.8-0.8 3.1-1.8 1.1-3.2-0.1-0.2 0-1.9-1.1 2.7 2.5 5.1 4.7 0 0-0.2 0 0 0-0.1-0.2-1.3-0.3-2.3 0.7-0.9-0.4-2.7-1.5-1.7-1.1-2.1-1.5-4.1-3.2-9.9-6.5-9.2-5.1-12.6-6.7-1.4-1-14.2-6.6-0.9-0.5-2.9-1.4 0 0-2.5 7.4-0.7 1.9-2.5 1-0.6 2.6-0.6 2.8-0.5 1.4-2.1 2-0.3 0-0.3 0-0.1 0.7-0.7 1.2-0.4 0.5-1.2 1-0.6 0.3-0.8 0.5-0.2 0-0.9 0.1-0.6 0.1-0.8 0.5 0 0-0.4 0.3-0.2 0.2-0.2 0.2-0.5 1.2-1.9 2 0 0-0.3-0.2-0.2-0.4-0.3-0.6-0.7 0.9-1.3 1.6-0.3-4.5-0.1-4.7 0.1-3.7 1.9-10.7 1.5-6.2 2.8-10.7-0.3-0.8-0.9-2.1 0-0.4 0-0.4-2-2.4-2.3-2.8-0.9-0.8-1.2-2.9 0-2.2 1.2-3.2 2.2-2.2 2.6-2.6 2.2-1.8 3.4-2.6 0.2 0 0.2 0v-0.2q0-0.2-0.1-0.4 0.4-2.5 1.3-4.9 0 0-0.1-0.3 0.7-3.9 1.3-8.1 0 0 0.1 0.2 0 0 0 0.2-0.4 0.3-0.9-0.1 1.1-3.6 2-7.6 0.8-5.1 1.5-10.2-1.5 0.2-1.2-1.4 0.4-4.1 1-7.2-0.3-0.2-0.5-0.4 0.2-0.2 0.8-1-0.7-0.1-2.5-0.8 0.3-1.1 0.3-1.1 0 0-0.9-0.6-0.7-0.5-0.8-1.4 0 0-0.5-0.4-0.7-0.5-0.7-0.5-0.1-0.5-0.3-3.1 3.9-1.9 4.1-1.9 6.6-2.9 10.2-4.1 8.3-3.3 12.1-4.6 1.9-0.4 8.6-1.1 4.5-0.3 8.7 0.4 4 0.8 8.3 2.3 2.7 1.1 6.5 6.3 2.5 3.4 4.5 6 2 2.4 4 6.6zm-14.5-2q0.1-0.2 2.4-3.5-1.8-0.9-7.1-1.4-5.3-0.5-10 0-4.3 0.2-15.8 4 0 0.3 0 0.3-2.3 15.4-5.6 30.7 13.3-9.4 23.5-17.4 7.2-6 12.6-12.7zm91.7-19.5q6.3 3.9 4.9 11.4-0.8 4.7-4.8 9.9-6.1 7.3-12.3 12.6-3.6 2.7-6.8 3.5-1.5 0.2-2.2-0.2-0.7-0.1-2-0.9-0.3-0.4-0.8-0.5-0.4-0.2-1.8-0.9-0.4-0.2-0.7-0.6-0.5-0.8-2.1-1.3-1.3-0.3-2.4-2.1-0.5-0.6-0.7-0.8l-0.5-0.4 0.1-0.9q1.7-4.5 6.4-3.5l1.3 0.3q0 0 0.2-0.2 8-6.3 13.5-13.8 2.7-3.6 2.7-7.1 0-0.2 0-0.2-1 0.3-1.7 0.4-6.4 2.4-13.1 6.8-12.6 8.5-21 19.4-4.4 5.9-6.2 10.9-1 2.7-1 4.7 1-0.2 3.6-0.6l0.4-0.1q3-0.7 8.7-2.2 6.1-1.7 8.9-2.3 3.8-1 10.2-1.9 4.2-0.7 6.7 1.9 0.5 0.6 1.8 1.1 1.4 0.5 3.7 2.2 1.4 0.9 2.1 1.3 2.1 1.3 2.2 4.3 0.4 3.2-2.7 7-5.1 6.9-14.9 15.3-1.4 1-4.3 3.7-3.8 3.2-5.8 5-7.8 6.5-15 12.4-3.8 3-8.8 6.8-1 0.8-3 2.3-0.8 0.5-1.4 1l-2.5 1.4 0.2-2.4-1.3 0.3-0.1-1.3q-0.7-0.1-1.6-0.9-0.7-0.6-1.2-0.5h-1.7l0.5-1.4q0-0.2-0.2-0.2-0.3-0.2-0.3-0.4 0 0-0.2 0-0.2 0-0.4 0.1h-0.7l-2.4-2.1 0.2-0.7q0 0-0.3-0.2-0.2 0.1-0.2-0.2l-1.8-0.6 1.4-1.3q0.2-0.2 0.4-0.4 0.7-1 1.3-1.3 1.1-0.7 3.3-2.1 1.8-1.2 2.6-1.8 2.9-2 4.3-3l1.5-1.5q13.2-10.7 19.8-16.2 11-9 16.1-14.3 0.2 0 0.2 0-0.5 0-1.5 0.4-1.1 0.3-1.5 0.3-7.2 1.9-10.5 2.9-6.8 1.6-11.2 1.2-2.6-0.2-4.5-1.3l-1.3-0.7q-4.9-3-7.2-4.5-6.3-4.1-4.9-11.4 1-6.2 5.2-12.3 5.7-8.8 14.3-16.2 7.1-6.2 14.7-10.7 6.9-4.2 13.7-6 5.5-1.5 9.7 1.5 1.4 1.2 4.7 3 1.1 0.8 2 1.1zm-5.6 0.6q6.2 3.9 4.9 11.4-0.8 4.7-4.8 9.9-6.2 7.4-12.4 12.6-3.6 2.7-6.8 3.5-1.5 0.2-2.2-0.2-0.6-0.1-2-0.9-0.3-0.4-0.7-0.5-0.5-0.2-1.8-0.9-0.5-0.2-0.8-0.6-0.5-0.8-2-1.3-1.4-0.3-2.4-2.1-0.5-0.6-0.8-0.8l-0.5-0.4 0.2-0.9q1.7-4.5 6.3-3.5l1.4 0.3q0 0 0.1-0.2 8.1-6.3 13.6-13.8 2.6-3.6 2.7-7.1 0-0.2 0-0.2-1.1 0.3-1.7 0.4-6.5 2.4-13.2 6.8-12.6 8.5-20.9 19.4-4.4 5.9-6.3 10.9-1 2.7-1 4.7 1.1-0.1 3.6-0.6l0.5-0.1q2.9-0.7 8.6-2.2 6.1-1.7 8.9-2.3 3.8-1 10.2-1.9 4.3-0.7 6.7 1.9 0.5 0.6 1.9 1.1 1.3 0.5 3.7 2.2 1.4 0.9 2.1 1.3 2.1 1.3 2.2 4.3 0.3 3.2-2.8 7-5.1 6.9-14.8 15.3-1.4 1-4.4 3.7-3.8 3.3-5.8 5-7.7 6.5-14.9 12.4-3.8 3-8.9 6.8-1 0.8-3 2.3-0.8 0.5-1.4 1l-2.4 1.4 0.1-2.4-1.2 0.3-0.2-1.3q-0.6-0.1-1.6-0.9-0.7-0.6-1.1-0.5h-1.8l0.5-1.4q0-0.2-0.2-0.2-0.2-0.2-0.2-0.4 0 0-0.3 0-0.2 0-0.4 0.1h-0.6l-2.4-2.1 0.1-0.7q0 0-0.2-0.2-0.2 0.1-0.3-0.1l-1.8-0.7 1.4-1.3q0.2-0.2 0.4-0.4 0.8-1 1.4-1.3 1-0.7 3.2-2.1 1.9-1.2 2.7-1.7 2.8-2.1 4.2-3.1l1.6-1.5q13.2-10.7 19.7-16.2 11-9 16.1-14.3 0.2 0 0.2 0-0.4 0-1.5 0.4-1 0.3-1.4 0.3-7.2 1.9-10.6 2.9-6.8 1.6-11.1 1.2-2.7-0.2-4.5-1.3l-1.4-0.7q-4.9-3-7.2-4.4-6.3-4.2-4.9-11.5 1.1-6.2 5.2-12.2 5.8-8.9 14.3-16.3 7.2-6.2 14.7-10.7 7-4.2 13.7-6 5.5-1.5 9.7 1.5 1.5 1.2 4.7 3 1.2 0.8 2.1 1.1zm85.9-13.3q2.3 3.3 1.4 7.5-0.6 4.2-3.2 8.1-4 5.9-10.5 11.8-6.9 6.6-15.3 11.4-3.7 2.1-11.4 6.4-2.9 1.6-4.8 2.5-0.4 0.2-0.6 0.3-2.6 0.4-3 4-1.4 7.7-4.1 22.8-1.2 5.3-1.5 6.9-0.2 1.7-1.5 8.2-0.1 1-1.1 5.9 0.1 0.5-0.2 1.8l-0.1 1.1h-0.5q-0.2 0.1-0.4 0.1-0.7-0.2-1.1-0.1-0.2 0-0.2-0.2-0.8 0.9-2.1 0.9-0.2-0.2-0.2 0 0 0-0.2 0-0.6 0.5-1.1 0.6-0.4-0.2-0.5-0.6-0.2 0-0.6 0-0.4 0.1-0.4 0.3-1.1 1.6-2.7 1.6l-0.2-0.2-0.3-0.9-1.4 1.3-0.1-0.7q0-0.4 0-0.6-0.1-0.7-0.1-0.9 0.8-14.6 2.4-24.5 0.3-2.7 1.4-8.9 1.2-9 2-13.9 0.7-3.7 2.3-11.3l0.1-0.4q0.9-4.3 2.7-13.4 0.8-3.3 1.5-6.6 0-0.5 0.1-1.1l0.2-0.3q-0.2 0.1-0.2 0.1-0.9 0.3-1.3 0.5-1.4 0.6-2.6-0.6-0.7-0.5-1.7-1.7-1.5-1.6-2.2-2-0.3-0.4-0.3-1h-0.2q-0.3-0.8-1.3-1.6-0.7-0.4-1.5-1.8-0.5-0.4-0.5-0.6-0.2-0.2-0.3-0.6-0.2-0.2-0.2-0.4-1-1.4-0.1-2.6 1-1.2 1.8-1.7 3.6-2.6 5.7-3.9 8.6-4.8 23.3-9.4 11.9-3.9 21.7-3.9 1.5 0.1 4.4 0.7 1.6 0.4 3.1 2.2 0.7 0.8 2.2 2.4 1 1.4 1.7 2.2 0.3 0.4 0.8 1 2.2 2.6 3 3.8zm-16 8.5q3.9-4.1 5.4-7.6-0.6-0.1-0.8-0.1-1.3 0.1-2.2 0.2-5.1 0.6-10.4 2-2.7 1-7.8 2.6-3.3 1-4.8 1.6-1 0.3-1.4 1.4-0.7 3.4-2.4 9.8-1 4.5-1.5 6.5-0.3 1.1-0.5 3.1-0.2 0.2-0.3 1.1l3.9-2.4q13.8-8.2 22.8-18.2zm10.3-7.9q2.3 3.3 1.5 7.5-0.7 4.2-3.3 8.1-3.9 5.9-10.5 11.8-6.8 6.6-15.2 11.4-3.7 2.1-11.5 6.4-2.9 1.6-4.7 2.5-0.4 0.2-0.7 0.3-2.5 0.5-3 4-1.4 7.7-4.1 22.8-1.2 5.3-1.4 6.9-0.3 1.7-1.5 8.2-0.1 1.1-1.1 5.9 0 0.5-0.3 1.8l-0.1 1.1h-0.4q-0.2 0.1-0.5 0.1-0.6-0.2-1-0.1-0.3 0-0.3-0.2-0.8 0.9-2.1 0.9-0.2-0.2-0.2 0 0 0-0.2 0-0.6 0.5-1 0.6-0.5-0.2-0.5-0.6-0.2 0-0.7 0-0.4 0.1-0.4 0.3-1.1 1.6-2.6 1.6l-0.3-0.2-0.3-0.9-1.4 1.3v-0.7q-0.1-0.4-0.1-0.6-0.1-0.7-0.1-0.9 0.8-14.6 2.4-24.5 0.4-2.7 1.4-8.9 1.3-9 2-13.9 0.7-3.7 2.3-11.3l0.2-0.4q0.8-4.3 2.7-13.4 0.7-3.3 1.4-6.6 0-0.5 0.1-1.1l0.2-0.3q-0.2 0.1-0.2 0.1-0.8 0.3-1.2 0.5-1.5 0.6-2.7-0.6-0.7-0.5-1.7-1.7-1.5-1.6-2.2-2-0.2-0.4-0.3-1h-0.2q-0.3-0.8-1.3-1.6-0.6-0.4-1.4-1.8-0.5-0.4-0.5-0.6-0.3-0.2-0.3-0.6-0.3-0.2-0.3-0.4-1-1.4 0-2.6 0.9-1.2 1.7-1.7 3.7-2.6 5.7-3.9 8.6-4.8 23.3-9.4 12-3.9 21.7-3.8 1.6 0 4.4 0.6 1.6 0.5 3.1 2.2 0.7 0.8 2.2 2.4 1 1.4 1.8 2.2 0.2 0.4 0.7 1 2.2 2.6 3 3.8zm-16 8.5q3.9-4.1 5.5-7.6-0.7-0.1-0.9-0.1-1.3 0.1-2.1 0.2-5.2 0.6-10.5 2-2.7 1-7.7 2.6-3.4 1-4.8 1.6-1.1 0.3-1.4 1.4-0.7 3.4-2.4 9.8-1.1 4.5-1.5 6.5-0.3 1.1-0.6 3.1-0.2 0.2-0.3 1.1l3.9-2.4q13.9-8.2 22.8-18.2zm83.1-21l0.4-0.3 0.1 0.4q0 0.2 0.1 0.7 0.1 0.8-0.1 1.3-0.2 8.5-1.8 19.7-1.4 7.8-3.2 18.8-0.8 4.7-2.5 13.7-1.1 6.2-1.4 8.9l-0.7 4q-1.6 9.2-2.4 13.9-0.7 4.2-2.1 13.2-0.3 2.7-0.4 4-0.2 0.7-0.3 1.8 0 1.3-0.2 1.7 0 0.5-0.4 0.9-0.1 0.3-0.1 0.5l-0.2 0.2-1.2-0.5-2.5 2.2-0.7-0.3q-0.2 0.4-1.2 1.2-0.8 0.7-1.2 1.4l-0.1 0.2-0.8-0.8-2.2 2-0.2-0.4-2.4 2-0.5-0.4q-0.4 0.5-0.8 0.5-0.2 0.1-0.9-0.3-0.4 0-0.4 0l-0.5-0.1v-2.2q-0.1-3 0-4.6-0.3-6-1.2-10.5-0.1-0.8-0.4-2.1-0.8-3.2-1.2-4.9-2.3-7.5-7.4-12.9-0.2 0.1-0.3-0.1-6.2 12.8-9.3 22.4l-0.2 0.3h-0.2q-1.8-0.2-3.3 1.7l-0.2 0.2-0.7-0.4-2.5 2.5-0.5-0.4-1.2 0.8q-1.9 1.3-3.1 2-1 0.6-3 0.6-0.4 0-0.4-0.2h-0.4l-0.2-1.2 0.2-0.3q0 0 0.2-0.2 0.4-0.1 0.4-0.3 0.3-1.1 0.9-2.2-1.5-1.2-0.8-3 2.2-4.1 4.9-9.2 2.7-5.3 5.4-10.8 2.8-5.5 4.8-9.4-0.7-0.6-2.5-1.3l-0.2-0.1q-1.4-0.6-3.7-1.4-1.1-0.3-1.5-0.5l-2.5-1 0.1-0.7h1.8l-1-0.5 1.7-1q2-1.3 3-1.9 0.6-0.3 1.3-0.6 1-0.3 1.4-1 0.5-0.7 2.2-1.3 1.9-0.6 4.2-1.3 1.3-0.4 2.2 0l0.2-0.1q3-6.1 3.8-7.3 2-3.9 4.4-7.4l7.3-13q0.7-1.3 2-3.4 1.3-2.3 2.2-4.2 1.1-2 2-3.7 2.7-4.6 5.2-5.7 0.2 0 0.5-0.1 0.6-0.3 0.8-0.5 1-0.5 1.9-0.4 0.4-0.1 0.8-0.3 0.6-0.3 0.8-0.5 0.8-0.6 2.5-1.6 0.4-0.3 0.6-0.3 0.2-0.2 0.6-0.3 0.2 0 0.2 0 0 0 0.2 0 0.5-0.1 0.5-0.1-0.1-0.2 0.2-0.2 0.3-0.5 1-0.3 0.4-0.3 0.4-0.5 0.3-1.1 2.2-2 0.4-0.2 0.6-0.3 0.2-0.2 0.4 0 0.7 0.4 1.7-0.4 0.6-0.5 1-0.5zm-23.9 64.6q2.2-12 5.2-30.7l-14.3 23q0.5 0.2 1 0.5 1.6 1.2 2.5 1.7 1.4 1.2 3.2 2.9 0.4 0.4 1.2 1.2 0.7 1 1.2 1.4zm18.3-64l0.4-0.3v0.4q0.1 0.2 0.1 0.7 0.1 0.8-0.1 1.3-0.2 8.5-1.8 19.7-1.3 7.8-3.2 18.8-0.8 4.7-2.4 13.7-1.1 6.2-1.5 8.9l-0.6 4q-1.7 9.3-2.5 13.9-0.6 4.2-2 13.2-0.4 2.7-0.5 4-0.1 0.7-0.2 1.8-0.1 1.3-0.3 1.7 0.1 0.5-0.3 0.9-0.2 0.3-0.2 0.5l-0.2 0.2-1.1-0.5-2.6 2.2-0.7-0.3q-0.2 0.4-1.2 1.2-0.8 0.7-1.1 1.4l-0.2 0.2-0.7-0.8-2.2 2-0.3-0.4-2.4 2-0.4-0.4q-0.4 0.5-0.9 0.5-0.2 0.1-0.9-0.3-0.4 0-0.4 0l-0.4-0.1-0.1-2.2q-0.1-3 0-4.6-0.2-6-1.1-10.5-0.1-0.8-0.5-2.1-0.7-3.2-1.1-4.9-2.4-7.5-7.5-12.9-0.2 0.1-0.2-0.1-6.3 12.8-9.4 22.4l-0.1 0.3h-0.3q-1.7-0.2-3.3 1.7l-0.1 0.2-0.7-0.4-2.6 2.5-0.5-0.4-1.2 0.8q-1.8 1.3-3 2-1.1 0.6-3 0.6-0.4 0-0.5-0.2h-0.4l-0.1-1.2 0.2-0.3q0 0 0.2-0.2 0.4-0.1 0.4-0.3 0.3-1.1 0.8-2.2-1.4-1.2-0.7-3 2.1-4.1 4.8-9.2 2.7-5.3 5.4-10.8 2.9-5.5 4.9-9.4-0.8-0.6-2.6-1.3l-0.2-0.1q-1.4-0.5-3.6-1.4-1.1-0.3-1.6-0.5l-2.5-1 0.2-0.7h1.7l-0.9-0.5 1.6-1q2-1.3 3.1-1.9 0.6-0.3 1.2-0.6 1.1-0.3 1.4-1 0.6-0.7 2.3-1.3 1.8-0.6 4.2-1.3 1.2-0.4 2.1 0l0.2-0.1q3.1-6.1 3.8-7.3 2-3.9 4.4-7.4l7.3-13q0.8-1.3 2.1-3.4 1.2-2.3 2.1-4.2 1.1-2 2-3.7 2.8-4.6 5.3-5.7 0.2 0 0.4-0.1 0.6-0.3 0.8-0.5 1-0.5 1.9-0.4 0.5-0.1 0.9-0.3 0.6-0.3 0.8-0.5 0.8-0.6 2.4-1.6 0.4-0.3 0.6-0.3 0.2-0.2 0.6-0.3 0.3 0 0.3 0 0 0 0.2 0 0.4-0.1 0.4-0.1 0-0.2 0.2-0.2 0.4-0.5 1.1-0.3 0.4-0.3 0.3-0.5 0.3-1.1 2.2-2 0.4-0.2 0.6-0.2 0.2-0.3 0.5-0.1 0.7 0.4 1.7-0.4 0.6-0.5 1-0.5zm-24 64.6q2.2-11.9 5.2-30.7l-14.2 23q0.4 0.2 0.9 0.5 1.6 1.2 2.6 1.7 1.4 1.2 3.1 2.9 0.5 0.4 1.2 1.2 0.8 1 1.2 1.4zm96.1-66.5q0 0 0.3 0.5 0.1 0.4-0.1 1.3 0.1 0.6 0.1 1-3.1 10.8-3.3 11.7-0.6 1.8-2.3 2.2-0.2 0.2-1.1 0.5-0.6 0.3-0.8 0.3-0.4 0.3-1.2 0.6-0.9 0.1-1.3 0.4-1.1 0.3-1.7 0.8-2.2 1.3-4.8 1.6-0.6 0.3-1.6 0.8-0.6 0.5-1.7 0.4-0.9-0.3-1.4-0.9-0.1-0.2 0.1-0.7 0.5-1.6 1.3-4 1.1-2.5 1.4-3.2 0-0.2 0.3-1.2-0.6 0.5-0.6 0.5-9.1 12.3-14 22.8-7.1 15.3-9.1 29.2-1.3 8.4-0.6 14.2 0 0.4 1.2 7.9 0.2 0 0.5-0.1 2.3-2.4 2.3-2.4 8.4-10.9 13.8-19.7 3.5-5.8 4.3-8 0 0 0.4-0.7 0 0 1.2 1.6 1.3-0.6 1.7-0.8 0 0.2 0.1 0.8-0.2 0.5-0.2 0.7 0.6-0.5 0.8-0.8 0.2 0.2 0.7 0.4 0.4 0.2 0.7 0.4 0.4 0.1 0.9 0.5 0.7 0.2 0.9 0.4 0.4-0.3 1.4-1.1 0 0.2-0.1 0.7 0 0.4-0.1 0.9 0 0.2 0 0.6 0.4-0.4 1.4-1.2 0.1 0.6 0 1.5 1.3 0.1 1.6-0.6 0.3 0.2 0.7 0.4 0.7 0.1 0.9 0.3 0.5 0.2 0.7 0.4 0.5 0.1 0.7 0.5 0.3 0.5 0.3 0.9 0.4-0.3 1.1-0.6 0.6-0.2 0.8-0.5-0.8 2.7-0.8 2.7-3.4 6.9-13.6 21.4-4 5.7-7.5 8.6-3.8 3.5-7.7 3.5-1.1-0.1-3.1-0.8-1.8-0.4-5.2-1.8-5-1.7-7-2.5-3.6-1.4-6.5-5.9-1.5-2.2-2.7-6.8 0-0.5-0.9-4.5-0.1-0.9-0.2-2.4 0-1.5-0.1-2.4 0-0.4 0-0.4 0.6-6.6 0.6-6.8 1.9-18.4 11.6-37.5 6.1-11.7 16.6-19.5 3.8-2.8 12.3-6.6 3.1-1.4 5.8-1 0.8 0.1 3.6-0.6 0.8-0.1 1.3-0.1 4.4 0.6 4.8 0.7 1.6 0.1 2.1 1.5zm-5.6 0.7q0 0 0.3 0.4 0 0.4-0.1 1.3 0 0.6 0.1 1-3.2 10.8-3.3 11.7-0.7 1.8-2.4 2.2-0.2 0.2-1 0.5-0.7 0.3-0.9 0.3-0.4 0.3-1.2 0.6-0.9 0.1-1.3 0.4-1 0.3-1.6 0.8-2.3 1.3-4.8 1.6-0.7 0.3-1.7 0.8-0.6 0.5-1.7 0.4-0.9-0.3-1.4-0.9 0-0.2 0.2-0.7 0.4-1.6 1.3-4 1-2.5 1.4-3.2-0.1-0.2 0.3-1.1-0.6 0.4-0.6 0.4-9.1 12.3-14.1 22.8-7 15.3-9 29.2-1.3 8.4-0.7 14.2 0 0.4 1.3 7.9 0.2 0 0.4 0 2.3-2.5 2.3-2.5 8.4-10.9 13.8-19.7 3.5-5.8 4.3-8 0 0 0.4-0.7 0 0 1.3 1.6 1.2-0.6 1.6-0.8 0 0.2 0.1 0.8-0.2 0.5-0.1 0.7 0.6-0.5 0.7-0.8 0.3 0.2 0.7 0.4 0.5 0.2 0.7 0.4 0.5 0.1 1 0.5 0.6 0.2 0.9 0.4 0.4-0.3 1.4-1.1 0 0.3-0.2 0.7 0.1 0.4-0.1 0.9 0 0.2 0.1 0.6 0.4-0.4 1.4-1.2 0 0.6-0.1 1.5 1.3 0.1 1.7-0.6 0.2 0.2 0.7 0.4 0.6 0.1 0.9 0.3 0.4 0.2 0.7 0.4 0.4 0.1 0.7 0.5 0.2 0.5 0.3 0.9 0.4-0.3 1-0.6 0.6-0.2 0.8-0.5-0.8 2.7-0.8 2.7-3.4 6.9-13.6 21.4-3.9 5.7-7.5 8.6-3.8 3.5-7.7 3.5-1.1-0.1-3.1-0.8-1.8-0.4-5.2-1.8-4.9-1.7-7-2.5-3.6-1.4-6.4-5.9-1.6-2.2-2.7-6.8-0.1-0.5-0.9-4.5-0.1-0.9-0.3-2.4 0.1-1.5 0-2.3-0.1-0.5-0.1-0.5 0.6-6.6 0.6-6.8 1.9-18.4 11.6-37.5 6.2-11.7 16.6-19.5 3.9-2.8 12.4-6.6 3.1-1.4 5.7-1 0.9 0.1 3.6-0.6 0.9-0.1 1.3-0.1 4.4 0.6 4.9 0.7 1.5 0.1 2.1 1.6zm92.4-5.8q0.4 0.2 0.3 0.9 0 0.4-0.4 0.5 0 0.2-0.4 0.2 0 0-0.2 0 0 0 0 0-3.9 0.9-7.6 2.4 0 0 0 0.2 1.5-0.2 7.7-1.3 0.4 0 0.5 0.6 0.3 0.7-0.3 0.9-0.3 0.1-1.7 0.6 0.1 0.9-0.5 1.2-1.9 0.4-4.2 1.3 0 0.4-0.2 0.5-1.2 1-2.6 1.8-0.2 0.2-0.4 0.2 0 0-0.5 0.3-0.6 0-0.8 0.3 0 0-0.2 0-8.2 2.4-11 3.1-9.8 3-22.2 9.6-1.4 0.8-4.1 2.1-2.7 1.2-3.7 1.7-3.7 1.7-6.9 4.2-1.2 1-4.3 2.7-1.9 1-3.2-1.2-1-1.4-0.1-3 1.9-3.1 3.2-4.7 0-0.2 0.8-2.5 0.2-0.2 0.4-0.7 0.2-0.4 0.1-0.7 0.2-0.2 0.4-0.9 0.1-0.6 0.3-1.1 0.8-2.2 1-2.5 0.6-0.5 1.7-2.6 0.9-1.8 3.1-3.1 1.5-0.8 3.9-2.4 2.6-1.8 3.9-2.6 0.6-0.2 0.8-0.7 0.3-0.7 1.1-1.2 0.6-0.3 3.5-1.9 0 0.2-0.2 0.5 0.1 0.2 0.1 0.4 4.6-1.8 4.8-1.8 9.4-3.8 19.8-5.6 1.7-0.4 3.8-0.8 0 0 0 0 0.4-0.1 0.5 0.3 0.6 0 1.5-0.1 0.6-0.1 0.5 0.6 0.1 0.6-0.3 0.9 0.6-0.1 1.2-0.2 0.5 0 0.5 0.4 2.4-0.2 4.5-0.7 0.4 0 0.7 0.6 0.3 0.6-0.3 0.9 0 0 0 0-1.9 0.9-3.9 2 1.4-0.4 2.7-0.3 0.5-0.1 0.5 0.3 4.1-0.4 6.4 0.4zm-11.4 23.4q0.6-0.1 0.5 0.8 0 0.7-0.4 0.7-0.2 0-0.8 0.3-0.4 0.1-0.7 0.1 0.3 0.2 0.1 0.6 0.1 0.5-0.2 0.5-3.3 1-5.2 1.6-0.2 0.3-0.2 0.3-0.4 0.2-0.8 0.5-0.4 0-0.7 0.1 0.3-0.1 2.8-0.8 0.4 0 0.7 0.4-0.1-0.2-0.1-0.2 0.7-0.1 0.7 0.3 0.5 0.2 0.6 0.8 0 0.5-0.4 0.7-0.4 0.3-2.3 0.9-0.6 0.3-0.6 0.3h0.2q0.4-0.3 0.7 0.4l-0.1 0.8q-0.2 0.1-0.7 0.3-0.4 0.3-0.8 0.5 0.7 0.6-0.1 1.1-0.2 0.1-0.4 0.3 0.6-0.3 0.9 0.3 0.1 0.7-0.3 0.9-0.2 0.3-0.8 0.6-0.4 0.2-0.6 0.5-0.2 0-0.4 0.2-2.7 1.4-4.9 2.7 0 0.4 0 0.7-5.6 1.9-5.6 1.9-0.7 0-2.5 0.9-1.9 0.6-3 0.9-2.5 1.2-4.8 2.1-0.2 0.2-0.4-0.2-0.6 0.3-1.7 0.8-1 0.6-1.6 0.9-1.2 0.5-2.7 1.1-1.5 0.6-3.3 1.5-1.7 0.6-2.7 1.1-0.5 0.1-0.6 0.7-0.5 1.2-2.7 9.2 0 0 0 0.2-0.3 0.9-0.5 1.8-0.1 0.5 0.1 0.9-0.2 0-0.2 0.2 0 0 0 0-0.5 1.1-0.6 1.8-0.2 0.3-0.2 0.7-0.5 1.3-0.6 2-0.2 0.7 0.1 1.1 0 0.2 0 0.2-0.1 1.1 0.8 1.4 2.3 0.9 5.3-1 5.2-0.5 16.9-7 2.8-1.6 5.1-2.7 0.2 0 0.4 0 3.1-1.5 5.8-2.6 0 0 0 0 0.3 0 0.4-0.3 0.3 0 0.5 0 2.7-1.2 5.8-2.2 0.9-0.3 1.3-0.5 0.6-0.3 1-0.4 1.9-1 2.5-1.3 0.8-0.5 1.7 0 1.2-0.7 2.1-1.1 0.6-0.5 1.1 0.1 0.7 0.4 0.5 1.3 0.1 0.6-0.5 1.1 0.3 1.1-0.5 1.4-1 0.5-1.8 1.1-0.2 0.2-0.4 0.4 0.5 0.8-0.1 1.8 1.1 1.8-0.3 3.3 0.2 1-0.7 1.6-0.2 0-0.4 0.2 0 0 0.1 0.2h-0.3q-1 0.8-2.2 1.6 0.1 0.8-0.5 1.3-0.4 0.5-0.8 1-0.2 0-0.1 0.2-0.1 1.6-1.1 2.3-0.6 0.3-2.4 1.6-0.2 0.4-0.6 0.9-1.9 2.2-4.6 2-1.4 0.6-2.6 1.4 0 0.2-0.2 0.4-0.2 0.5-0.6 0.7-0.8 0.4-2.2 1.2-0.5 0-0.7 0-0.2 0-1 0.6-0.9 0.3-1.3 0.5-0.4 0.1-0.8 0.1-7.1 3.2-14.3 6.1-1.3 0.4-4.2 1.8-2.7 1.1-4.3 1.9-1.7 0.6-4.2 1.4-2.6 0.7-4.7 0.9-3.3 0.1-6.3-1.5-3-1.9-3.6-5.5 0-0.4-0.1-1.3-0.2 0-0.2 0-0.1-0.2-0.1-0.6 0.2-0.5-0.1-0.9 0.6-2.9 1-5.3 0.1-0.2 0.1-0.4 0.2-0.5 0.2-0.7 0.4-2.4 1-4.7 1-7 3.3-13.4 0.2-0.2 0.2-0.6 0.1-0.7 0.4-0.7-3.6 1.5-6.7 2.9 0.2-0.3 0.9-2.3 0.6-2 1.2-2.9 0.5-1 1.5-1.5 0.6-0.5 0.8-1.2 0.2-0.2 0.1-1.1-0.3-0.8 0.3-1.1 0.6-0.5 1.8-1.5 1.2-1 1.8-1.5 1.2-1 2.2-3.5 0-0.2 0.8-1.1 0 0 0 0 0.2-0.3 0.2-0.3 3.3-3.4 8.5-5.2 2.7-1.2 6.9-3.1 0.6-0.3 1.4-0.9 1-0.5 1.6-0.8 8.1-3.9 13.6-4.9 4-1.5 8.1-1.7 0.2 0 0.4 0.1 1.1-0.3 1.9-0.6 3.8-1.3 7.2-2.3 0.4-0.2 0.6 0.2 0.3 0.8-0.3 1.1-0.2 0.2-0.4 0.3 2.3-0.7 4.7-1.2zm5.7-22.7q0.5 0.1 0.3 0.8 0.1 0.4-0.4 0.5 0 0.2-0.4 0.2 0 0-0.2 0 0 0 0 0-3.8 0.9-7.6 2.4 0 0 0.1 0.2 1.5-0.2 7.6-1.3 0.5 0 0.5 0.6 0.3 0.7-0.3 0.9-0.2 0.1-1.7 0.6 0.1 0.9-0.5 1.2-1.9 0.4-4.2 1.3 0 0.4-0.2 0.5-1.2 1-2.6 1.8-0.2 0.2-0.4 0.2 0 0-0.4 0.3-0.7 0-0.8 0.3 0 0-0.3 0-8.2 2.4-10.9 3.1-9.9 3-22.2 9.6-1.5 0.8-4.1 2.1-2.7 1.2-3.8 1.7-3.7 1.7-6.9 4.2-1.2 1-4.3 2.7-1.8 1-3.1-1.2-1.1-1.4-0.1-3 1.8-3.1 3.1-4.7 0-0.2 0.9-2.5 0.2-0.2 0.3-0.7 0.2-0.4 0.2-0.7 0.2-0.2 0.3-0.9 0.2-0.6 0.3-1.1 0.9-2.2 1.1-2.5 0.6-0.5 1.6-2.5 0.9-1.9 3.2-3.2 1.4-0.8 3.9-2.4 2.6-1.8 3.8-2.6 0.6-0.2 0.8-0.7 0.4-0.7 1.2-1.2 0.6-0.3 3.5-1.9 0 0.2-0.2 0.5 0 0.2 0 0.4 4.6-1.8 4.8-1.8 9.4-3.8 19.8-5.6 1.7-0.4 3.9-0.8 0 0 0 0 0.4-0.1 0.4 0.3 0.7 0 1.5-0.1 0.7-0.1 0.5 0.6 0.1 0.6-0.3 0.9 0.6-0.1 1.3-0.2 0.4 0 0.5 0.4 2.3-0.2 4.4-0.7 0.5 0 0.8 0.6 0.2 0.6-0.4 0.9 0 0 0 0-1.8 0.9-3.9 2 1.5-0.4 2.8-0.3 0.4-0.1 0.5 0.3 4-0.4 6.3 0.5zm-11.4 23.3q0.6-0.1 0.5 0.8 0.1 0.7-0.3 0.7-0.3 0-0.9 0.3-0.4 0.1-0.6 0.1 0.2 0.2 0 0.6 0.1 0.5-0.1 0.5-3.4 1-5.3 1.6-0.2 0.3-0.2 0.3-0.4 0.2-0.8 0.5-0.4 0-0.6 0.1 0.2-0.1 2.7-0.8 0.5 0 0.7 0.4 0-0.2 0-0.2 0.6-0.1 0.7 0.3 0.4 0.2 0.5 0.9 0 0.4-0.4 0.6-0.4 0.3-2.3 0.9-0.6 0.3-0.6 0.3h0.2q0.4-0.3 0.7 0.4l-0.1 0.8q-0.2 0.1-0.6 0.3-0.4 0.3-0.8 0.5 0.7 0.6-0.1 1.1-0.2 0.1-0.4 0.3 0.6-0.3 0.9 0.3 0 0.7-0.4 0.9-0.2 0.3-0.8 0.6-0.4 0.2-0.6 0.5-0.2 0-0.4 0.2-2.7 1.4-4.9 2.7 0 0.4 0.1 0.7-5.7 1.9-5.7 1.9-0.6 0-2.5 0.9-1.9 0.6-2.9 0.9-2.5 1.2-4.8 2.1-0.2 0.2-0.5-0.2-0.6 0.3-1.6 0.8-1 0.6-1.7 0.9-1.2 0.5-2.7 1.1-1.4 0.6-3.3 1.5-1.7 0.6-2.7 1.1-0.4 0.1-0.6 0.7-0.5 1.2-2.7 9.2 0 0 0.1 0.2-0.4 0.9-0.5 1.8-0.2 0.5 0.1 0.9-0.2 0-0.2 0.2 0 0 0 0-0.5 1.2-0.7 1.8-0.2 0.3-0.1 0.7-0.5 1.3-0.7 2-0.1 0.7 0.1 1.1 0.1 0.2 0.1 0.2-0.1 1.1 0.8 1.4 2.2 0.9 5.3-1 5.1-0.5 16.8-7 2.9-1.6 5.1-2.7 0.3 0 0.5 0 3.1-1.5 5.8-2.6 0 0 0 0 0.2 0 0.4-0.3 0.2 0 0.4 0 2.7-1.2 5.9-2.2 0.8-0.3 1.2-0.5 0.6-0.3 1.1-0.3 1.8-1.1 2.4-1.4 0.8-0.5 1.8 0 1.2-0.7 2-1.1 0.6-0.4 1.1 0.1 0.7 0.4 0.6 1.3 0 0.6-0.6 1.1 0.4 1.1-0.5 1.4-1 0.5-1.8 1.1-0.2 0.2-0.4 0.4 0.5 0.8 0 1.8 1.1 1.8-0.3 3.3 0.1 1-0.7 1.6-0.2 0-0.4 0.2 0 0 0 0.2l-0.2 0.1q-1 0.7-2.2 1.5 0.1 0.8-0.5 1.3-0.4 0.5-0.8 1-0.2 0-0.2 0.2-0.1 1.6-1.1 2.3-0.6 0.3-2.4 1.6-0.2 0.4-0.6 0.9-1.9 2.2-4.5 2-1.5 0.6-2.7 1.4 0 0.2-0.2 0.4-0.1 0.5-0.5 0.7-0.9 0.4-2.3 1.2-0.4 0-0.6 0-0.3 0-1.1 0.6-0.8 0.3-1.2 0.5-0.4 0.1-0.9 0.1-7 3.2-14.3 6.1-1.3 0.4-4.2 1.8-2.7 1.1-4.3 1.9-1.7 0.7-4.2 1.4-2.5 0.7-4.7 0.9-3.2 0.1-6.2-1.5-3-1.9-3.6-5.5-0.1-0.4-0.2-1.3-0.2 0-0.2 0 0-0.2-0.1-0.6 0.2-0.5-0.1-0.9 0.6-2.8 1-5.3 0.2-0.2 0.2-0.4 0.1-0.5 0.1-0.7 0.4-2.4 1-4.7 1-7 3.4-13.4 0.2-0.2 0.1-0.6 0.2-0.7 0.4-0.7-3.5 1.5-6.6 2.9 0.1-0.3 0.8-2.3 0.7-2 1.2-2.9 0.6-1 1.6-1.5 0.6-0.5 0.7-1.2 0.2-0.2 0.1-1.1-0.3-0.8 0.3-1.1 0.6-0.5 1.8-1.5 1.2-1 1.8-1.5 1.2-1 2.3-3.5-0.1-0.2 0.7-1.1 0 0 0 0 0.2-0.3 0.2-0.3 3.3-3.4 8.6-5.2 2.7-1.2 6.8-3.1 0.6-0.3 1.4-0.8 1.1-0.6 1.7-0.9 8-3.9 13.6-4.9 3.9-1.5 8-1.7 0.2 0 0.5 0.1 1-0.3 1.9-0.6 3.7-1.3 7.1-2.3 0.4-0.2 0.7 0.2 0.3 0.8-0.3 1.1-0.2 0.2-0.5 0.3 2.4-0.7 4.7-1.2z"/>
</svg>