<svg xmlns="http://www.w3.org/2000/svg" fill="none" viewBox="0 0 295 263">
  <mask id="b" width="295" height="263" x="0" y="0" maskUnits="userSpaceOnUse" style="mask-type:alpha">
    <path fill="url(#a)" d="M291.717 119.172 230.253 12.328C225.828 4.685 217.715 0 208.946 0H86.018a24.51 24.51 0 0 0-21.266 12.328L3.288 119.172a24.753 24.753 0 0 0 0 24.656l61.464 106.844A24.51 24.51 0 0 0 86.018 263h122.928a24.51 24.51 0 0 0 21.266-12.328l61.464-106.844a24.655 24.655 0 0 0 .041-24.656Z"/>
  </mask>
  <g mask="url(#b)">
    <path fill="url(#c)" d="M291.717 119.172 230.253 12.328C225.828 4.685 217.715 0 208.946 0H86.018a24.51 24.51 0 0 0-21.266 12.328L3.288 119.172a24.753 24.753 0 0 0 0 24.656l61.464 106.844A24.51 24.51 0 0 0 86.018 263h122.928a24.51 24.51 0 0 0 21.266-12.328l61.464-106.844a24.655 24.655 0 0 0 .041-24.656Z"/>
    <path fill="url(#d)" d="M128 136c0-6.627 5.373-12 12-12h104c6.627 0 12 5.373 12 12v104c0 6.627-5.373 12-12 12H140c-6.627 0-12-5.373-12-12V136Z"/>
    <path fill="url(#e)" d="M-12 136c0-6.627 5.373-12 12-12h104c6.627 0 12 5.373 12 12v104c0 6.627-5.373 12-12 12H0c-6.627 0-12-5.373-12-12V136Z"/>
    <path fill="url(#f)" d="M-12-4c0-6.627 5.373-12 12-12h104c6.627 0 12 5.373 12 12v104c0 6.627-5.373 12-12 12H0c-6.627 0-12-5.373-12-12V-4Z"/>
    <path fill="url(#g)" d="M128-4c0-6.627 5.373-12 12-12h104c6.627 0 12 5.373 12 12v104c0 6.627-5.373 12-12 12H140c-6.627 0-12-5.373-12-12V-4Z"/>
    <path fill="#1F2348" fill-opacity=".4" d="M38.744 64.528c-4.48 0-7.936-1.488-10.368-4.464-2.432-3.008-3.648-7.232-3.648-12.672 0-3.744.624-6.928 1.872-9.552 1.28-2.656 3.072-4.688 5.376-6.096 2.336-1.408 5.136-2.112 8.4-2.112 1.856 0 3.68.288 5.472.864 1.824.576 3.424 1.44 4.8 2.592l-2.736 6.48c-1.152-.928-2.384-1.6-3.696-2.016a12.115 12.115 0 0 0-3.936-.672c-2.4 0-4.224.752-5.472 2.256-1.216 1.472-1.824 3.696-1.824 6.672v2.496h-.72c.288-1.376.816-2.544 1.584-3.504a7.373 7.373 0 0 1 2.88-2.256c1.184-.512 2.48-.768 3.888-.768 1.888 0 3.568.48 5.04 1.44 1.472.928 2.64 2.224 3.504 3.888.896 1.664 1.344 3.552 1.344 5.664 0 2.304-.512 4.336-1.536 6.096a11.005 11.005 0 0 1-4.128 4.176c-1.76.992-3.792 1.488-6.096 1.488Zm-.48-6.72c.832 0 1.568-.192 2.208-.576a3.58 3.58 0 0 0 1.44-1.632c.352-.704.528-1.52.528-2.448 0-.96-.176-1.776-.528-2.448a3.58 3.58 0 0 0-1.44-1.632c-.64-.416-1.376-.624-2.208-.624-.832 0-1.568.208-2.208.624a3.875 3.875 0 0 0-1.488 1.632c-.32.672-.48 1.488-.48 2.448 0 .928.16 1.744.48 2.448a3.875 3.875 0 0 0 1.488 1.632c.64.384 1.376.576 2.208.576ZM67.141 64v-5.712h-13.92v-6.144L68.485 30.16h7.056v21.552h4.416v6.576h-4.416V64h-8.4Zm0-12.288V40.624h1.248l-8.976 13.104v-2.016h7.728Z"/>
    <path fill="#1F2348" fill-opacity=".55" d="M152.368 64v-7.2h7.584V37.504h4.032l-10.8 6.144v-8.16l9.312-5.328h6.288V56.8h7.056V64h-23.472Zm27.677 0v-6.48l10.272-10.704c1.248-1.28 2.144-2.4 2.688-3.36s.816-1.936.816-2.928c0-1.216-.416-2.128-1.248-2.736-.8-.608-1.968-.912-3.504-.912-1.28 0-2.592.24-3.936.72-1.312.448-2.64 1.184-3.984 2.208l-2.736-6.432c1.504-1.152 3.312-2.064 5.424-2.736a21.401 21.401 0 0 1 6.528-1.008c3.936 0 6.928.848 8.976 2.544 2.08 1.696 3.12 4.144 3.12 7.344 0 2.048-.48 4.016-1.44 5.904-.928 1.856-2.48 3.84-4.656 5.952l-7.872 7.68V56.8h15.216V64h-23.664Zm39.917.528c-4.096 0-7.328-.864-9.696-2.592-2.336-1.728-3.504-4.128-3.504-7.2 0-2.432.721-4.432 2.161-6 1.44-1.6 3.264-2.528 5.472-2.784v1.392c-1.984-.416-3.601-1.376-4.849-2.88-1.248-1.536-1.872-3.392-1.872-5.568 0-2.88 1.104-5.136 3.312-6.768 2.208-1.664 5.2-2.496 8.976-2.496 3.808 0 6.816.832 9.024 2.496 2.208 1.632 3.313 3.888 3.313 6.768 0 2.208-.608 4.08-1.824 5.616-1.216 1.536-2.8 2.464-4.752 2.784v-1.344c2.208.32 3.999 1.28 5.375 2.88 1.376 1.568 2.065 3.536 2.065 5.904 0 3.072-1.168 5.472-3.504 7.2-2.336 1.728-5.569 2.592-9.697 2.592Zm0-6.624c1.728 0 3.024-.32 3.888-.96.896-.672 1.345-1.632 1.345-2.88 0-1.28-.449-2.24-1.345-2.88-.864-.64-2.16-.96-3.888-.96-1.696 0-2.992.32-3.888.96-.896.64-1.344 1.6-1.344 2.88 0 1.248.448 2.208 1.344 2.88.896.64 2.192.96 3.888.96Zm0-14.352c1.376 0 2.433-.32 3.169-.96.768-.672 1.152-1.568 1.152-2.688s-.384-2-1.152-2.64c-.736-.672-1.793-1.008-3.169-1.008-1.376 0-2.447.336-3.215 1.008-.736.64-1.104 1.52-1.104 2.64s.368 2.016 1.104 2.688c.768.64 1.839.96 3.215.96Z"/>
    <path fill="#1F2348" d="M137.264 210v-6.48l10.272-10.704c1.248-1.28 2.144-2.4 2.688-3.36s.816-1.936.816-2.928c0-1.216-.416-2.128-1.248-2.736-.8-.608-1.968-.912-3.504-.912-1.28 0-2.592.24-3.936.72-1.312.448-2.64 1.184-3.984 2.208l-2.736-6.432c1.504-1.152 3.312-2.064 5.424-2.736a21.401 21.401 0 0 1 6.528-1.008c3.936 0 6.928.848 8.976 2.544 2.08 1.696 3.12 4.144 3.12 7.344 0 2.048-.48 4.016-1.44 5.904-.928 1.856-2.48 3.84-4.656 5.952l-7.872 7.68V202.8h15.216v7.2h-23.664Zm39.917.528c-4.16 0-7.36-1.52-9.6-4.56-2.208-3.072-3.312-7.408-3.312-13.008 0-5.664 1.104-9.968 3.312-12.912 2.24-2.944 5.44-4.416 9.6-4.416 4.192 0 7.392 1.472 9.6 4.416 2.208 2.944 3.312 7.232 3.312 12.864 0 5.632-1.12 9.984-3.36 13.056-2.208 3.04-5.392 4.56-9.552 4.56Zm0-7.056c1.536 0 2.672-.832 3.408-2.496.768-1.664 1.152-4.336 1.152-8.016 0-3.712-.384-6.352-1.152-7.92-.736-1.6-1.872-2.4-3.408-2.4-1.536 0-2.688.8-3.456 2.4-.736 1.568-1.104 4.192-1.104 7.872 0 3.712.368 6.4 1.104 8.064.768 1.664 1.92 2.496 3.456 2.496ZM206.923 210v-5.712h-13.92v-6.144l15.263-21.984h7.056v21.552h4.416v6.576h-4.416V210h-8.399Zm0-12.288v-11.088h1.248l-8.976 13.104v-2.016h7.728Zm27.821 12.816c-4.096 0-7.328-.864-9.696-2.592-2.336-1.728-3.504-4.128-3.504-7.2 0-2.432.72-4.432 2.16-6 1.44-1.6 3.264-2.528 5.472-2.784v1.392c-1.984-.416-3.6-1.376-4.848-2.88-1.248-1.536-1.872-3.392-1.872-5.568 0-2.88 1.104-5.136 3.312-6.768 2.208-1.664 5.2-2.496 8.976-2.496 3.808 0 6.816.832 9.024 2.496 2.208 1.632 3.312 3.888 3.312 6.768 0 2.208-.608 4.08-1.824 5.616-1.216 1.536-2.8 2.464-4.752 2.784v-1.344c2.208.32 4 1.28 5.376 2.88 1.376 1.568 2.064 3.536 2.064 5.904 0 3.072-1.168 5.472-3.504 7.2-2.336 1.728-5.568 2.592-9.696 2.592Zm0-6.624c1.728 0 3.024-.32 3.888-.96.896-.672 1.344-1.632 1.344-2.88 0-1.28-.448-2.24-1.344-2.88-.864-.64-2.16-.96-3.888-.96-1.696 0-2.992.32-3.888.96-.896.64-1.344 1.6-1.344 2.88 0 1.248.448 2.208 1.344 2.88.896.64 2.192.96 3.888.96Zm0-14.352c1.376 0 2.432-.32 3.168-.96.768-.672 1.152-1.568 1.152-2.688s-.384-2-1.152-2.64c-.736-.672-1.792-1.008-3.168-1.008-1.376 0-2.448.336-3.216 1.008-.736.64-1.104 1.52-1.104 2.64s.368 2.016 1.104 2.688c.768.64 1.84.96 3.216.96Z"/>
    <path fill="#1F2348" fill-opacity=".7" d="M-1.632 210v-7.2h7.584v-19.296h4.032l-10.8 6.144v-8.16l9.312-5.328h6.288v26.64h7.056v7.2H-1.632Zm38.813.528c-4.16 0-7.36-1.52-9.6-4.56-2.208-3.072-3.312-7.408-3.312-13.008 0-5.664 1.104-9.968 3.312-12.912 2.24-2.944 5.44-4.416 9.6-4.416 4.192 0 7.392 1.472 9.6 4.416 2.208 2.944 3.312 7.232 3.312 12.864 0 5.632-1.12 9.984-3.36 13.056-2.208 3.04-5.392 4.56-9.552 4.56Zm0-7.056c1.536 0 2.672-.832 3.408-2.496.768-1.664 1.152-4.336 1.152-8.016 0-3.712-.384-6.352-1.152-7.92-.736-1.6-1.872-2.4-3.408-2.4-1.536 0-2.688.8-3.456 2.4-.736 1.568-1.104 4.192-1.104 7.872 0 3.712.368 6.4 1.104 8.064.768 1.664 1.92 2.496 3.456 2.496ZM54.827 210v-6.48l10.272-10.704c1.248-1.28 2.144-2.4 2.688-3.36.543-.96.816-1.936.816-2.928 0-1.216-.416-2.128-1.248-2.736-.8-.608-1.969-.912-3.505-.912-1.28 0-2.592.24-3.936.72-1.312.448-2.64 1.184-3.983 2.208l-2.736-6.432c1.504-1.152 3.312-2.064 5.423-2.736a21.401 21.401 0 0 1 6.529-1.008c3.935 0 6.927.848 8.975 2.544 2.08 1.696 3.12 4.144 3.12 7.344 0 2.048-.48 4.016-1.44 5.904-.928 1.856-2.48 3.84-4.656 5.952l-7.871 7.68V202.8H78.49v7.2H54.828Zm40.877 0v-5.712h-13.92v-6.144l15.264-21.984h7.056v21.552h4.416v6.576h-4.416V210h-8.4Zm0-12.288v-11.088h1.248l-8.976 13.104v-2.016h7.728Z"/>
  </g>
  <defs>
    <radialGradient id="a" cx="0" cy="0" r="1" gradientTransform="matrix(295.101 0 0 295.951 221.922 259.575)" gradientUnits="userSpaceOnUse">
      <stop stop-color="#EC991C"/>
      <stop offset="1" stop-color="#E9B213"/>
    </radialGradient>
    <radialGradient id="c" cx="0" cy="0" r="1" gradientTransform="matrix(307.106 0 0 313.956 218.949 259.366)" gradientUnits="userSpaceOnUse">
      <stop stop-color="#EC991C"/>
      <stop offset="1" stop-color="#E9B213"/>
    </radialGradient>
    <radialGradient id="d" cx="0" cy="0" r="1" gradientTransform="rotate(-137.74 184.103 54.724) scale(281.366 282.592)" gradientUnits="userSpaceOnUse">
      <stop offset=".188" stop-color="white"/>
      <stop offset=".613" stop-color="white" stop-opacity=".857"/>
      <stop offset="1" stop-color="white" stop-opacity=".6"/>
    </radialGradient>
    <radialGradient id="e" cx="0" cy="0" r="1" gradientTransform="rotate(-137.74 184.103 54.724) scale(281.366 282.592)" gradientUnits="userSpaceOnUse">
      <stop offset=".188" stop-color="white"/>
      <stop offset=".613" stop-color="white" stop-opacity=".857"/>
      <stop offset="1" stop-color="white" stop-opacity=".6"/>
    </radialGradient>
    <radialGradient id="f" cx="0" cy="0" r="1" gradientTransform="rotate(-137.74 184.103 54.724) scale(281.366 282.592)" gradientUnits="userSpaceOnUse">
      <stop offset=".188" stop-color="white"/>
      <stop offset=".613" stop-color="white" stop-opacity=".857"/>
      <stop offset="1" stop-color="white" stop-opacity=".6"/>
    </radialGradient>
    <radialGradient id="g" cx="0" cy="0" r="1" gradientTransform="rotate(-137.74 184.103 54.724) scale(281.366 282.592)" gradientUnits="userSpaceOnUse">
      <stop offset=".188" stop-color="white"/>
      <stop offset=".613" stop-color="white" stop-opacity=".857"/>
      <stop offset="1" stop-color="white" stop-opacity=".6"/>
    </radialGradient>
  </defs>
</svg>
