<svg xmlns="http://www.w3.org/2000/svg" data-name="Layer 1" viewBox="0 0 329 261"><title>nimiq_watch_app</title><path d="M155.21 74.2a5.92 5.92 0 0 0-4.65-2.68h-26.45a5.9 5.9 0 0 0-4.65 2.68l-13.23 22.52a5.71 5.71 0 0 0 0 5.36l13.23 22.61a5.9 5.9 0 0 0 4.65 2.68h26.45a5.78 5.78 0 0 0 4.65-2.68L168.43 102a5.48 5.48 0 0 0 0-5.27Zm54.33 30.92a6.15 6.15 0 0 0-4.65-2.68h-26.45a5.9 5.9 0 0 0-4.65 2.68l-13.22 22.7a5.66 5.66 0 0 0 0 5.36l13.22 22.61a5.92 5.92 0 0 0 4.65 2.68h26.45a5.9 5.9 0 0 0 4.65-2.68l13.23-22.61a5.53 5.53 0 0 0 0-5.27Zm-54 31.1a5.58 5.58 0 0 0-4.46-2.68h-26.62a5.89 5.89 0 0 0-4.64 2.68l-13.14 22.7a5.53 5.53 0 0 0 0 5.27l13.23 22.61a6.15 6.15 0 0 0 4.64 2.68H151a6 6 0 0 0 4.64-2.68l13.23-22.7a5.71 5.71 0 0 0 0-5.36Z" style="fill:#fff;fill-rule:evenodd"/></svg>