<svg xmlns="http://www.w3.org/2000/svg" data-name="Layer 1" viewBox="0 0 329 261"><title>shop_app</title><path d="M182.48 66a2.23 2.23 0 0 0-1.56.59l-7.25 7.25a2.21 2.21 0 0 0-.49 2l2.74 9.8a2.36 2.36 0 0 0 1.47 1.57l10 2.64a2.45 2.45 0 0 0 2-.58l7.2-7.27a2 2 0 0 0 .49-2l-2.64-9.8a2.6 2.6 0 0 0-1.44-1.58L183 66ZM159 82.63a1.84 1.84 0 0 0-1 .3l-9.11 4.9a2.2 2.2 0 0 0-1.08 1.66l-.39 10.29a2.29 2.29 0 0 0 1 1.76l8.81 5.39a1.79 1.79 0 0 0 2 0l9.12-4.9a1.87 1.87 0 0 0 1.07-1.66l.4-10.29a2.23 2.23 0 0 0-1-1.77l-8.72-5.38-1-.3Zm-43.31 7.64a4.75 4.75 0 0 0-2.55.69 5.77 5.77 0 0 0-2.84 3.33 5.14 5.14 0 0 0 .39 4.31 5.48 5.48 0 0 0 3.33 2.75l12.94 4.11 4.6 46-2.94 16.36a5.8 5.8 0 0 0 0 2.35 6 6 0 0 0 1.28 2.16 5.15 5.15 0 0 0 4.31 2h70.15a6.25 6.25 0 0 0 4.12-1.47 5.67 5.67 0 0 0 0-8 5.76 5.76 0 0 0-4.12-1.56h-63.62l1.37-7.55h66.73a5.5 5.5 0 0 0 3.63-1.27 6 6 0 0 0 1.86-3.33l4.6-26.36a5.42 5.42 0 0 0-1.07-4.31 6.08 6.08 0 0 0-3.92-2.16L203.35 117l.2-.49 2.25-10a1.83 1.83 0 0 0-.58-2l-7.45-7a2.28 2.28 0 0 0-2.06-.49l-9.8 2.94a2 2 0 0 0-1.47 1.46l-2.25 9.9a2 2 0 0 0 .59 2l1.57 1.57-45.66-5.1-1-9.11a5.8 5.8 0 0 0-1.18-3.13 4.88 4.88 0 0 0-2.65-1.77l-16.65-5.19a4 4 0 0 0-1.55-.32Zm27 87.21a8.4 8.4 0 0 0-6.17 2.55 8.53 8.53 0 0 0-2.52 6.27 8.71 8.71 0 0 0 8.7 8.7 8.51 8.51 0 0 0 8.82-8.22v-.6A8.4 8.4 0 0 0 149 180a8.53 8.53 0 0 0-6.3-2.52Zm51.35 0a8.44 8.44 0 0 0-6.18 2.55 9.41 9.41 0 0 0 0 12.44 8.23 8.23 0 0 0 6.18 2.55 8.13 8.13 0 0 0 6.27-2.55 8.43 8.43 0 0 0 2.54-6.17 8.52 8.52 0 0 0-8.22-8.82Z" style="fill:#fff"/></svg>