<svg xmlns="http://www.w3.org/2000/svg" width="1000" height="890" fill="none" viewBox="0 0 1000 890"><path fill="url(#a)" d="M988.871 403.163 780.519 41.707C765.518 15.849 738.015 0 708.291 0H291.588a83.12 83.12 0 0 0-72.09 41.707L11.147 403.163a83.6 83.6 0 0 0 0 83.413l208.351 361.456a83.12 83.12 0 0 0 72.09 41.707h416.703a83.12 83.12 0 0 0 72.089-41.707l208.352-361.456c14.998-25.858 14.998-57.555.139-83.413"/><path fill="url(#b)" d="M701.901 223.944 228.932 406.33c-32.278 12.964-32.092 30.971-5.922 39l121.43 37.881 280.954-177.264c13.285-8.083 25.422-3.735 15.445 5.122L413.211 516.503h-.053l.053.026-8.376 125.165c12.271 0 17.686-5.629 24.569-12.271l58.981-57.354 122.684 90.619c22.621 12.458 38.867 6.056 44.496-20.941L736.1 262.198c8.243-33.052-12.618-48.017-34.199-38.254"/><defs><radialGradient id="a" cx="0" cy="0" r="1" gradientTransform="matrix(1000.34 0 0 1001.21 752.276 878.151)" gradientUnits="userSpaceOnUse"><stop stop-color="#ec991c"/><stop offset="1" stop-color="#e9b213"/></radialGradient><linearGradient id="b" x1="598.652" x2="335.595" y1="231.101" y2="690.024" gradientUnits="userSpaceOnUse"><stop stop-color="#fefbf5"/><stop offset="1" stop-color="#fcf3df"/></linearGradient></defs></svg>