<svg xmlns="http://www.w3.org/2000/svg" width="27" height="25" fill="none" viewBox="0 0 27 25"><path fill="url(#a)" d="m26.488 11.405-5.58-9.91A2.23 2.23 0 0 0 18.97.352H7.811c-.797 0-1.533.434-1.931 1.143L.3 11.405a2.33 2.33 0 0 0 0 2.287l5.58 9.91a2.22 2.22 0 0 0 1.931 1.143h11.16c.798 0 1.534-.434 1.932-1.143l5.58-9.91a2.33 2.33 0 0 0 .005-2.287"/><path fill="url(#b)" d="M6 16.194V8.352h5.328v1.345H7.735v1.914h3.337v1.334H7.735v3.249zm6.442 0V8.352h1.524l2.725 6.117h-.356l2.725-6.117h1.513v7.842h-1.58v-5.329h.445l-2.436 5.329h-1l-2.448-5.329h.467v5.329z"/><defs><radialGradient id="a" cx="0" cy="0" r="1" gradientTransform="matrix(-26.785 0 0 -24.3938 26.785 24.745)" gradientUnits="userSpaceOnUse"><stop stop-color="#ec991c"/><stop offset="1" stop-color="#e9b213"/></radialGradient><radialGradient id="b" cx="0" cy="0" r="1" gradientTransform="matrix(-10.1136 5.38782 -10.0872 -5.49898 18.768 9.57)" gradientUnits="userSpaceOnUse"><stop offset=".188" stop-color="#fff"/><stop offset=".613" stop-color="#fff" stop-opacity=".857"/><stop offset="1" stop-color="#fff" stop-opacity=".6"/></radialGradient></defs></svg>