<svg xmlns="http://www.w3.org/2000/svg" width="31" height="32" fill="none" viewBox="0 0 31 32"><path fill="#0582ca" d="m15.18 16.187-9.666-2.212a1.66 1.66 0 0 1 .398-.825l5.478-6.082a1.62 1.62 0 0 1 .93-.515z"/><path fill="#d94432" d="m15.138 16.22 9.614 2.432c-.06.3-.2.584-.416.815l-5.616 5.956a1.6 1.6 0 0 1-.68.43z"/><path fill="#0582ca" d="m15.187 16.187-5.735 6.404-.878.871a1.66 1.66 0 0 1-.635-.871l-2.4-7.827a1.6 1.6 0 0 1-.04-.796z"/><path fill="#e9b213" d="m15.13 16.22 5.88-6.272.897-.851c.293.216.513.525.616.885l2.22 7.88c.076.265.08.539.022.797z"/><path fill="#e9b213" d="M15.056 16.628 12.74 7.912l-.388-1.379c.26-.061.536-.062.804.009l8.035 2.122c.324.085.606.266.82.509z"/><path fill="#e9b213" d="m15.18 15.79 2.898 10.058a1.7 1.7 0 0 1-.816.039l-7.855-1.942a1.65 1.65 0 0 1-.832-.483z"/><path fill="#1f2348" d="m23.294 17.57-1.897-6.731a1.4 1.4 0 0 0-1.003-.976L13.616 8.14a1.4 1.4 0 0 0-1.345.379l-4.88 5.009c-.35.358-.48.873-.345 1.354l1.897 6.732c.135.481.517.852 1 .975l6.778 1.723c.484.123.997-.02 1.345-.38l4.882-5.008c.35-.358.481-.872.346-1.354"/></svg>