<svg xmlns="http://www.w3.org/2000/svg" xml:space="preserve" id="Layer_1" x="0" y="0" viewBox="0 0 329 261"><style>.st0{fill:#fff}</style><path d="m108.3 127.63-1.9.19h-.27.28zm14.7 4.7v.4c-5 .58-10.3 1.13-15.78 1.64 5.47-.53 10.72-1.21 15.78-2.04" class="st0"/><path d="M199 103.35v-6.13a138.3 138.3 0 0 1-33.54 23.15c9.32-2 18.07-4.19 26.66-6.77 1.75-.52 3.59.47 4.11 2.22s-.47 3.59-2.22 4.11c-2.65.79-5.31 1.56-8 2.28v24.86a3.304 3.304 0 0 1-3.49 3.12 3.31 3.31 0 0 1-3.12-3.12V124c-3.86 1-7.78 1.87-11.81 2.72v20.4a3.304 3.304 0 0 1-3.49 3.12 3.31 3.31 0 0 1-3.12-3.12V128c-3.83.75-7.75 1.45-11.81 2.12v16.94a3.304 3.304 0 0 1-3.49 3.12 3.31 3.31 0 0 1-3.12-3.12v-15.9c-4.17.63-8.51 1.22-13 1.78v29.24h72.67a3.311 3.311 0 1 1 .01 6.61h-76c-1.82 0-3.3-1.48-3.31-3.3v-32.16c-5 .83-10.29 1.51-15.78 2h-.49c-.51 0-1.02-.12-1.47-.35a1.4 1.4 0 0 1-.26-.15c-.25-.16-.49-.34-.69-.56-.36-.39-.62-.86-.75-1.38-.05-.17-.09-.34-.1-.52-.09-.92.21-1.84.84-2.52l.21-.21c.37-.35.81-.6 1.3-.74l.23-.06h.39l1.9-.19h.15c5-.48 9.87-1 14.53-1.53V89.51c.1-1.83 1.66-3.22 3.49-3.12 1.68.09 3.03 1.44 3.12 3.12v35.86c25.8-5.38 45.74-15.55 64.44-32.56h-5.58c-1.82 0-3.3-1.48-3.3-3.3s1.48-3.3 3.3-3.3h13.84c.1-.01.19-.01.29 0h.31l.32.08.3.1q.3.12.57.3l.26.19.24.22q.21.225.39.48l.08.13c.03.04.05.08.07.13.04.08.08.16.11.25v.09c0 .1.07.19.1.29q.15.435.15.9v13.84c0 1.82-1.48 3.3-3.3 3.3s-3.3-1.48-3.3-3.3z" class="st0"/><path d="M105 133.91c-.26-.15-.49-.34-.69-.56.2.22.44.4.69.56m18-8.28v.45c-4.66.54-9.49 1-14.53 1.53 5.03-.53 9.86-1.19 14.53-1.98" class="st0"/></svg>