<svg id="Layer_1" data-name="Layer 1" xmlns="http://www.w3.org/2000/svg" viewBox="0 0 329 261"><defs><style>.cls-1{fill:#fff;fill-rule:evenodd;}</style></defs><title>trust_wallet_app</title><path class="cls-1" d="M162.11,79.52a3.8,3.8,0,0,1,4.69,0,58.85,58.85,0,0,0,38.4,11.23A3.82,3.82,0,0,1,209,94.56v.09c-.36,18.31-1.15,31.59-2.66,41.59A53.27,53.27,0,0,1,199,158.36c-3.54,5.31-8.23,8.67-13.54,11.85L180,173.4c-4,2.3-8.32,4.78-13.45,8.23a3.61,3.61,0,0,1-4.16,0c-5.14-3.45-9.47-5.93-13.37-8.23l-5.57-3.19c-5.31-3.18-9.91-6.54-13.45-11.85s-5.84-12.21-7.34-22.12A323.27,323.27,0,0,1,120,94.65a3.82,3.82,0,0,1,3.72-3.9h1C130.88,90.75,147.6,90.93,162.11,79.52ZM127.6,98.45c.44,16.19,1.15,27.88,2.48,36.64a46,46,0,0,0,6.19,19c2.57,3.8,6.11,6.46,11.06,9.56l5,2.92c3.54,2,7.61,4.42,12.12,7.25,4.42-2.92,8.58-5.31,12-7.25l5.05-2.92c5-3,8.58-5.67,11.24-9.56a46,46,0,0,0,6.19-19,293.39,293.39,0,0,0,2.39-36.64A65.44,65.44,0,0,1,164.5,87.3a65.48,65.48,0,0,1-36.81,11.15Z"/></svg>