<svg xmlns="http://www.w3.org/2000/svg" data-name="Layer 1" viewBox="0 0 329 261"><title>trust_wallet_app</title><path d="M162.11 79.52a3.8 3.8 0 0 1 4.69 0 58.85 58.85 0 0 0 38.4 11.23 3.82 3.82 0 0 1 3.8 3.81v.09c-.36 18.31-1.15 31.59-2.66 41.59a53.3 53.3 0 0 1-7.34 22.12c-3.54 5.31-8.23 8.67-13.54 11.85L180 173.4c-4 2.3-8.32 4.78-13.45 8.23a3.61 3.61 0 0 1-4.16 0c-5.14-3.45-9.47-5.93-13.37-8.23l-5.57-3.19c-5.31-3.18-9.91-6.54-13.45-11.85s-5.84-12.21-7.34-22.12A323 323 0 0 1 120 94.65a3.82 3.82 0 0 1 3.72-3.9h1c6.16 0 22.88.18 37.39-11.23M127.6 98.45c.44 16.19 1.15 27.88 2.48 36.64a46 46 0 0 0 6.19 19c2.57 3.8 6.11 6.46 11.06 9.56l5 2.92c3.54 2 7.61 4.42 12.12 7.25 4.42-2.92 8.58-5.31 12-7.25l5.05-2.92c5-3 8.58-5.67 11.24-9.56a46 46 0 0 0 6.19-19 293 293 0 0 0 2.39-36.64A65.44 65.44 0 0 1 164.5 87.3a65.5 65.5 0 0 1-36.81 11.15Z" style="fill:#fff;fill-rule:evenodd"/></svg>