<svg id="Layer_1" data-name="Layer 1" xmlns="http://www.w3.org/2000/svg" viewBox="0 0 329 261"><defs><style>.cls-1{fill:#fff;}</style></defs><title>twini_app</title><path class="cls-1" d="M107.07,157.34a16,16,0,0,1-13.5-12.8c-.2-.9-.2-2-.2-13.31v-12.3h6.9c6.9,0,7,0,7.5.3a3.69,3.69,0,0,1,0,6.6l-.6.3h-6.7v8.51c0,9.5,0,9,.9,10.7a8.36,8.36,0,0,0,7.4,4.8c2.6.2,4,1.4,4,3.6,0,2.8-2.1,4-5.8,3.6Zm21.71-.1a3.86,3.86,0,0,1-1.7-1.1q-6.56-16.5-12.61-33.21c-.7-3.4,3.8-5.6,6.2-3,.5.5.5.7,3.91,9.5,4,10.41,3.7,10,5.1,10,1.8.2,1.7.4,5.5-9.61,1.8-4.7,3.3-8.8,3.5-9a3.64,3.64,0,0,1,5.7-1.2c.6.6.8,1,4.2,10l3.3,8.71a2.26,2.26,0,0,0,3.7.4c.2-.2,1.8-4.3,3.6-9.11,3.8-9.9,3.5-9.3,4.2-10a3.67,3.67,0,0,1,6,3.3c-.2,1-12.21,32.61-12.71,33.21-1.4,1.8-4.9,1.6-6-.5l-3.5-9-3.5-9.1a2.2,2.2,0,0,0-3.8.6q-3.48,8.76-6.8,17.6A3.89,3.89,0,0,1,128.78,157.24Zm48.71,0a3.52,3.52,0,0,1-1.8-1.3c-.7-1-.7,0-.6-18.3V121l.3-.6a3.7,3.7,0,0,1,6.6.1l.3.6v16.71c0,18.9,0,17.3-1,18.4A3.61,3.61,0,0,1,177.49,157.24Zm14.5,0a3.37,3.37,0,0,1-2.2-2l-.3-.5V121l.3-.6c1.3-2.8,5.6-2.8,6.6-.1.2.6.2.6.7.3,9.5-6,22.61,0,24.31,11.1.3,2,.2,22.51,0,23.41a3.75,3.75,0,0,1-6.8.2l-.3-.7v-11c0-12.31,0-11.4-.8-13a8.89,8.89,0,0,0-16.51,1.2l-.2.81v11l-.1,11.1-.3.6a3.81,3.81,0,0,1-4.4,2Zm38.31,0a5.1,5.1,0,0,1-1.9-1.7l-.3-.6v-16.8c0-19-.1-17.41.8-18.51a3.71,3.71,0,0,1,5.23-.21,3.81,3.81,0,0,1,.77,1l.2.5v16.81l.1,16.8-.2.6a3.66,3.66,0,0,1-4.7,2ZM96.07,117.33a4.14,4.14,0,0,1-2.5-2c-.2-.6-.2-.7-.2-6.1v-5.7h5.3c7,0,7.4.1,9.3,2,3,3,2.7,10.4-.4,11.6a73.48,73.48,0,0,1-11.5.1Zm7.1-2.7a4.2,4.2,0,0,0,2.2-3c.1-.7.2-.7-3.9-.9s-4-.2-3.9.7A4,4,0,0,0,103.17,114.63Zm2.4-6.7a1.09,1.09,0,0,0-1.8-.8c-.7.6-.7,1.5,0,1a1.05,1.05,0,0,1,1.3,0C105.47,108.53,105.57,108.43,105.57,107.93Zm-5.6,0c.4-1.1-1.7-1.8-2.3-.7-.3.6,0,1,.5.5a1.08,1.08,0,0,1,1.1,0C99.67,108.13,99.87,108.13,100,107.93Zm77.12,6.4a4.08,4.08,0,0,1-.2-7.4c4.2-2,8,3.6,4.5,6.7A4.3,4.3,0,0,1,177.09,114.33Zm53.21.1a4,4,0,0,1,.8-7.9c3.8-.5,6,4.2,3.4,7a4.67,4.67,0,0,1-4.2,1Z"/></svg>