<svg id="Layer_1" data-name="Layer 1" xmlns="http://www.w3.org/2000/svg" viewBox="0 0 329 261"><defs><style>.cls-1,.cls-2{fill:#fff;}.cls-1{fill-rule:evenodd;}</style></defs><title>project_nimizuela_app</title><path class="cls-1" d="M181.78,97.08a33,33,0,0,0-21.25,18.07,35,35,0,0,0-2.12,27.62,72.24,72.24,0,0,1,5.31-21.25l3.19,2.13,4.25-7.44L168,114.08A69.2,69.2,0,0,1,181.78,97.08Zm-23.37,12.75a1.07,1.07,0,0,0-1.07,1.07l-2.12,3.18a2.14,2.14,0,0,0,1.06,2.13l1.06,1.06a20.28,20.28,0,0,1,3.19-6.37l-1.06-1.07A1.06,1.06,0,0,0,158.41,109.83Zm13.81,7.44L169,123.65l31.88,18.06a1.06,1.06,0,0,0,2.12,0l2.13-4.25a2.13,2.13,0,0,0-1.07-2.13Zm-27.63,14.88-4.25,6.37h8.5Zm-5.31,12.75a5.31,5.31,0,0,0-4.25,3.18l-10.62,19.13a6.32,6.32,0,0,0,0,5.31L135,191.65a5.31,5.31,0,0,0,4.25,3.18h21.25a5.3,5.3,0,0,0,5.31-3.18l10.63-19.13a6.39,6.39,0,0,0,0-5.31l-10.63-19.13a5.3,5.3,0,0,0-5.31-3.18ZM186,148.08l-10.62,1.07,7.43,8.5Zm4.25,9.57-7.44,8.5,10.63,2.12Z"/><g id="nimizuela-f"><g id="nimizuela-e"><g id="nimizuela-d"><g id="nimizuela-c"><g id="nimizuela-b"><path id="nimizuela-a" class="cls-2" d="M178.39,65l-4.58,8.61L179,76.32Z"/><path class="cls-2" d="M178.39,65l1.36,9.66-5.8.81Z"/></g><path class="cls-2" d="M186.35,73.21l-9.6-1.7-1,5.77Z"/><path class="cls-2" d="M186.35,73.21l-8.76,4.27L175,72.22Z"/></g><path class="cls-2" d="M168.08,70l6.78,7,4.21-4.06Z"/><path class="cls-2" d="M168.08,70l9.61,1.69-1,5.76Z"/><path class="cls-2" d="M181,83.33l-1.36-9.66-5.79.82Z"/><path class="cls-2" d="M181,83.33l-6.77-7,4.21-4.07Z"/><path class="cls-2" d="M169.68,81.34l8.77-4.27-2.57-5.26Z"/><path class="cls-2" d="M169.68,81.34l4.58-8.61,5.17,2.75Z"/></g><path class="cls-2" d="M204.49,74.46,197.24,81l3.92,4.35Z"/><path class="cls-2" d="M204.49,74.46l-2,9.54-5.72-1.22Z"/><path class="cls-2" d="M209.16,84.94l-8.45-4.88-2.93,5.07Z"/><path class="cls-2" d="M209.16,84.94l-9.71,1-.61-5.82Z"/><path class="cls-2" d="M193.09,75.66l4,8.91,5.35-2.38Z"/><path class="cls-2" d="M193.09,75.66l8.44,4.88-2.92,5.06Z"/><path class="cls-2" d="M200.63,92.61l2-9.54-5.72-1.22Z"/><path class="cls-2" d="M200.63,92.61l-4-8.91L202,81.32Z"/><path class="cls-2" d="M190.7,86.87l9.7-1L199.79,80Z"/><path class="cls-2" d="M190.7,86.87,198,80.35l3.92,4.35Z"/></g><path class="cls-2" d="M225.77,92.32l-9,3.65,2.19,5.43Z"/><path class="cls-2" d="M225.77,92.32l-5.17,8.27-5-3.1Z"/><path class="cls-2" d="M226.57,103.75l-6.27-7.47L215.82,100Z"/><path class="cls-2" d="M226.57,103.75l-9.46-2.36,1.41-5.67Z"/><path class="cls-2" d="M214.64,89.54l.68,9.73,5.84-.41Z"/><path class="cls-2" d="M214.64,89.54,220.91,97l-4.48,3.77Z"/><path class="cls-2" d="M215.94,108.05l5.17-8.27-5-3.1Z"/><path class="cls-2" d="M215.94,108.05l-.68-9.73,5.84-.41Z"/><path class="cls-2" d="M208.57,99.27l9.46,2.36L219.45,96Z"/><path class="cls-2" d="M208.57,99.27l9-3.66L219.8,101Z"/><path class="cls-2" d="M239.66,116.37l-9.75.34.21,5.85Z"/><path class="cls-2" d="M239.66,116.37l-7.69,6-3.6-4.62Z"/><path class="cls-2" d="M236.5,127.39l-3.34-9.16-5.5,2Z"/><path class="cls-2" d="M236.5,127.39l-8.09-5.45,3.27-4.85Z"/><path class="cls-2" d="M230.15,110l-2.69,9.38,5.63,1.61Z"/><path class="cls-2" d="M230.15,110l3.34,9.17-5.5,2Z"/><path class="cls-2" d="M225,127.79l7.69-6-3.61-4.61Z"/><path class="cls-2" d="M225,127.79l2.69-9.37,5.62,1.61Z"/><path class="cls-2" d="M221.12,117l8.08,5.45,3.28-4.85Z"/><path class="cls-2" d="M221.12,117l9.75-.34.2,5.85Z"/></g><path class="cls-2" d="M89.34,116.37l7.69,6,3.6-4.62Z"/><path class="cls-2" d="M89.34,116.37l9.75.34-.21,5.85Z"/><path class="cls-2" d="M98.85,110l-3.34,9.17,5.5,2Z"/><path class="cls-2" d="M98.85,110l2.69,9.38L95.91,121Z"/><path class="cls-2" d="M92.5,127.39l8.09-5.45-3.27-4.85Z"/><path class="cls-2" d="M92.5,127.39l3.34-9.16,5.5,2Z"/><path class="cls-2" d="M107.88,117l-9.75-.34-.2,5.85Z"/><path class="cls-2" d="M107.88,117l-8.08,5.45-3.28-4.85Z"/><path class="cls-2" d="M104,127.79l-2.69-9.37L95.65,120Z"/><path class="cls-2" d="M104,127.79l-7.69-6,3.61-4.61Z"/><path class="cls-2" d="M103.23,92.32l5.17,8.27,5-3.1Z"/><path class="cls-2" d="M103.23,92.32l9,3.65-2.19,5.43Z"/><path class="cls-2" d="M114.36,89.54,108.09,97l4.48,3.77Z"/><path class="cls-2" d="M114.36,89.54l-.68,9.73-5.84-.41Z"/><path class="cls-2" d="M102.43,103.75l9.46-2.36-1.41-5.67Z"/><path class="cls-2" d="M102.43,103.75l6.27-7.47,4.48,3.76Z"/><path class="cls-2" d="M120.43,99.27l-9-3.66L109.2,101Z"/><path class="cls-2" d="M120.43,99.27,111,101.63,109.55,96Z"/><path class="cls-2" d="M113.06,108.05l.68-9.73-5.84-.41Z"/><path class="cls-2" d="M113.06,108.05l-5.17-8.27,5-3.1Z"/><path class="cls-2" d="M124.51,74.46l2,9.54,5.72-1.22Z"/><path class="cls-2" d="M124.51,74.46,131.76,81l-3.92,4.35Z"/><path class="cls-2" d="M135.91,75.66l-8.44,4.88,2.92,5.06Z"/><path class="cls-2" d="M135.91,75.66l-4,8.91-5.35-2.38Z"/><path class="cls-2" d="M119.84,84.94l9.71,1,.61-5.82Z"/><path class="cls-2" d="M119.84,84.94l8.45-4.88,2.93,5.07Z"/><path class="cls-2" d="M138.3,86.87l-7.25-6.52-3.92,4.35Z"/><path class="cls-2" d="M138.3,86.87l-9.7-1,.61-5.83Z"/><path class="cls-2" d="M128.37,92.61l4-8.91L127,81.32Z"/><path class="cls-2" d="M128.37,92.61l-2-9.54,5.72-1.22Z"/><path class="cls-2" d="M150.61,65l-1.36,9.66,5.8.81Z"/><path class="cls-2" d="M150.61,65l4.58,8.61L150,76.32Z"/><path class="cls-2" d="M160.92,70l-9.61,1.69,1,5.76Z"/><path class="cls-2" d="M160.92,70l-6.78,7-4.21-4.06Z"/><path class="cls-2" d="M142.65,73.21l8.76,4.27L154,72.22Z"/><path class="cls-2" d="M142.65,73.21l9.6-1.7,1,5.77Z"/><path class="cls-2" d="M159.32,81.34l-4.58-8.61-5.17,2.75Z"/><path class="cls-2" d="M159.32,81.34l-8.77-4.27,2.57-5.26Z"/><path class="cls-2" d="M148,83.33l6.77-7-4.21-4.07Z"/><path class="cls-2" d="M148,83.33l1.36-9.66,5.79.82Z"/></svg>